<svg id="Capa_1" enable-background="new 0 0 509.606 509.606" height="512" viewBox="0 0 509.606 509.606" width="512" xmlns="http://www.w3.org/2000/svg"><g><path d="m239.9 239.606h30v30h-30z"/><path d="m270.9 376.915 161.088-257.309h-125.431l23.835-23.43c6.01 2.896 12.64 4.43 19.508 4.43 33.218 0 54.815-34.758 40.621-64.407l14.986-14.986-21.214-21.213-14.985 14.985c-29.485-14.11-64.408 7.217-64.408 40.621 0 6.791 1.496 13.352 4.328 19.307l-45.466 44.693h-186.143l163.281 257.358v102.643h-61v30h150v-30h-59zm79-336.309c8.29 0 15 6.709 15 15s-6.71 15-15 15-15-6.709-15-15 6.709-15 15-15zm27.912 109-18.781 30h-144.131v30h125.349l-84.434 134.867-123.634-194.867z"/></g></svg>