<svg id="Capa_1" enable-background="new 0 0 511.977 511.977" height="512" viewBox="0 0 511.977 511.977" width="512" xmlns="http://www.w3.org/2000/svg"><g><path d="m423.519 395.228-50.91-33.061 50.91-33.061c29.367-19.072 37.744-58.48 18.673-87.848-10.281-15.83-26.471-25.546-43.811-28.163.349-4.066.538-8.177.538-12.331 0-49.207-23.599-99.29-68.243-144.835-32.993-33.658-65.689-53.05-67.065-53.859-4.638-2.728-10.381-2.762-15.052-.09-4.67 2.671-7.552 7.64-7.552 13.02v80.729c0 3.029-2.015 4.316-3.216 4.813-1.155.477-3.354.973-5.426-.89l-28.215-32.152c-5.31-6.049-14.447-6.831-20.705-1.771-23.188 18.748-40.841 39.453-52.468 61.541-11.864 22.539-17.88 47.266-17.88 73.493 0 4.156.189 8.269.538 12.336-17.341 2.616-33.531 12.328-43.812 28.159-9.238 14.226-12.384 31.199-8.857 47.791 3.526 16.592 13.304 30.818 27.53 40.057l50.91 33.061-50.91 33.061c-.019.012-.036.026-.054.038-29.322 19.085-37.677 58.46-18.618 87.81 12.152 18.711 32.555 28.9 53.36 28.9 11.849 0 23.832-3.307 34.488-10.228l98.335-63.86 98.335 63.86c10.658 6.921 22.638 10.228 34.488 10.228 20.804 0 41.21-10.19 53.36-28.9 19.073-29.368 10.696-68.776-18.671-87.848zm-6.487-137.631c10.062 15.495 5.643 36.286-9.853 46.349l-62.111 40.336-24.616-15.986c34.355-17.431 60.763-48.339 72.222-85.723 9.614 1.088 18.688 6.295 24.358 15.024zm-225.632-159.143 18.832 21.459c.215.245.438.482.668.713 10.106 10.105 25.167 13.101 38.372 7.632 13.204-5.469 21.735-18.238 21.735-32.53v-52.186c34.905 26.401 97.911 84.179 97.911 157.221 0 62.259-50.651 112.911-112.911 112.911-62.259 0-112.91-50.652-112.91-112.911 0-38.832 15.828-72.419 48.303-102.309zm-101.089 184.358c-1.861-8.754-.201-17.709 4.673-25.214 5.669-8.73 14.743-13.936 24.358-15.026 17.922 58.467 72.406 101.102 136.666 101.102 9.795 0 19.363-.992 28.609-2.879l77.347 50.23c-10.393 4.856-19.598 12.567-26.293 22.876s-9.994 21.855-10.203 33.324l-220.631-143.28c-7.507-4.874-12.665-12.379-14.526-21.133zm4.673 183.925c-10.063-15.495-5.643-36.287 9.853-46.349 7.505-4.875 16.459-6.534 25.214-4.673 8.754 1.861 16.26 7.019 21.134 14.525 4.875 7.506 6.534 16.46 4.674 25.214-1.861 8.754-7.02 16.26-14.525 21.134-15.497 10.064-36.289 5.643-46.35-9.851zm91.599-19.534c-.215-11.738-3.686-23.212-10.239-33.302-6.552-10.09-15.622-17.927-26.258-22.898l16.861-10.95 61.519 39.951zm230.449 19.534c-10.062 15.495-30.851 19.915-46.35 9.852-15.494-10.062-19.914-30.854-9.852-46.349 6.411-9.873 17.176-15.248 28.153-15.248 6.252 0 12.573 1.745 18.195 5.396 15.496 10.063 19.915 30.855 9.854 46.349z"/></g></svg>