<?xml version="1.0" encoding="iso-8859-1"?>
<!-- Generator: Adobe Illustrator 19.0.0, SVG Export Plug-In . SVG Version: 6.00 Build 0)  -->
<svg version="1.1" id="Capa_1" xmlns="http://www.w3.org/2000/svg" xmlns:xlink="http://www.w3.org/1999/xlink" x="0px" y="0px"
	 viewBox="0 0 512 512" style="enable-background:new 0 0 512 512;" xml:space="preserve">
<g>
	<g>
		<path d="M316.449,457.93c-0.46-0.46-0.97-0.87-1.52-1.24c-0.54-0.36-1.12-0.67-1.73-0.92c-0.6-0.25-1.23-0.44-1.87-0.57
			c-1.29-0.26-2.62-0.26-3.91,0c-0.63,0.13-1.26,0.32-1.87,0.57c-0.6,0.25-1.181,0.56-1.72,0.92c-0.55,0.37-1.06,0.78-1.52,1.24
			c-1.86,1.87-2.93,4.44-2.93,7.08c0,0.65,0.06,1.31,0.19,1.95s0.32,1.27,0.57,1.87c0.25,0.6,0.561,1.18,0.921,1.73
			c0.37,0.54,0.79,1.06,1.25,1.52c0.46,0.46,0.97,0.88,1.52,1.24c0.54,0.36,1.12,0.67,1.72,0.92c0.61,0.25,1.24,0.44,1.87,0.57
			c0.65,0.13,1.31,0.2,1.96,0.2c0.65,0,1.31-0.07,1.949-0.2c0.64-0.13,1.27-0.32,1.87-0.57c0.61-0.25,1.19-0.56,1.73-0.92
			c0.55-0.36,1.06-0.78,1.52-1.24c0.46-0.46,0.88-0.98,1.24-1.52c0.36-0.55,0.67-1.13,0.92-1.73c0.25-0.6,0.44-1.23,0.57-1.87
			s0.2-1.3,0.2-1.95C319.379,462.37,318.309,459.8,316.449,457.93z"/>
	</g>
</g>
<g>
	<g>
		<path d="M498.296,49.107L452.118,2.929c-3.905-3.905-10.237-3.905-14.143,0L308.986,131.918
			c-18.92-11.644-40.852-17.961-63.761-17.961c-35.494,0-68.64,15.161-91.876,41.808c-6.546-1.091-13.266-1.658-20.116-1.658
			c-66.214,0-120.277,53.026-121.952,118.845c-0.328,0.99-0.506,2.048-0.506,3.147c0,18.681,2.253,36.976,6.698,54.376
			c7.909,30.963,22.696,59.281,43.95,84.167c18.922,22.155,42.52,41.097,70.205,56.363V502c0,5.523,4.477,10,10,10h207.193
			c5.523,0,10-4.477,10-10v-30.995c27.685-15.266,51.284-34.208,70.206-56.363c21.254-24.886,36.041-53.204,43.95-84.167
			c4.445-17.401,6.698-35.696,6.698-54.376c0-1.1-0.178-2.159-0.506-3.149c-1.297-50.944-33.98-94.225-79.39-111.184l98.517-98.517
			C502.202,59.344,502.202,53.012,498.296,49.107z M445.047,24.142l8.947,8.947L334.359,152.724
			c-2.894-3.106-5.928-6.043-9.088-8.805L445.047,24.142z M245.225,133.958c21.304,0,41.6,6.539,58.546,18.478
			c0.424,0.361,0.872,0.68,1.337,0.959c3.452,2.517,6.76,5.26,9.902,8.222c-6.901,2.537-13.51,5.676-19.765,9.36
			c-14.29-11.025-31.776-17.02-50.021-17.02s-35.731,5.995-50.021,17.02c-6.254-3.684-12.864-6.823-19.764-9.36
			C194.25,143.887,218.972,133.958,245.225,133.958z M245.225,193.958c-6.322,0-12.532,1.438-18.165,4.144
			c-4.44-5.352-9.321-10.301-14.585-14.8c9.752-6.081,21.044-9.344,32.749-9.344s22.997,3.264,32.75,9.344
			c-5.263,4.498-10.143,9.448-14.584,14.8C257.757,195.396,251.547,193.958,245.225,193.958z M251.666,214.928
			c-2.057,3.556-3.947,7.233-5.656,11.021h-1.57c-1.709-3.788-3.598-7.465-5.656-11.021c2.074-0.638,4.245-0.97,6.441-0.97
			C247.422,213.958,249.592,214.29,251.666,214.928z M133.233,174.108c21.104,0,40.731,6.443,57.018,17.465
			c0.048,0.034,0.096,0.068,0.144,0.101c1.609,1.093,3.181,2.227,4.716,3.4c0.038,0.029,0.076,0.058,0.114,0.087
			c0.182,0.139,0.363,0.28,0.544,0.42c7.859,6.117,20.748,21.712,20.833,21.828c4.689,6.641,8.605,13.863,11.617,21.536
			c0.023,0.06,0.047,0.119,0.07,0.179c3.318,8.501,5.527,17.552,6.449,26.974h-20.12c-4.948-40.511-39.559-71.992-81.385-71.992
			c-41.826,0-76.437,31.48-81.385,71.992H31.727C36.769,214.537,80.369,174.108,133.233,174.108z M133.233,234.107
			c-19.71,0-36.291,13.649-40.789,31.992H72.047c4.794-29.446,30.406-51.992,61.185-51.992s56.392,22.546,61.186,51.992h-20.396
			C169.524,247.757,152.943,234.107,133.233,234.107z M152.817,266.099h-39.169c3.647-7.113,11.057-11.992,19.584-11.992
			S149.17,258.986,152.817,266.099z M344.177,456.175c-3.292,1.727-5.355,5.138-5.355,8.855V492H151.628v-16.994h115.79
			c5.523,0,10-4.477,10-10s-4.477-10-10-10H144.072c-51.874-27.803-87.431-68.035-103.577-117.005h409.462
			C433.582,387.661,397.248,428.337,344.177,456.175z M455.358,318.001H35.093c-2.197-10.354-3.562-21.029-4.081-31.902h428.427
			C458.921,296.972,457.556,307.647,455.358,318.001z M357.217,234.107c-19.71,0-36.291,13.649-40.789,31.992h-20.397
			c4.794-29.446,30.406-51.992,61.186-51.992c30.78,0,56.392,22.546,61.186,51.992h-20.397
			C393.508,247.757,376.927,234.107,357.217,234.107z M376.802,266.099h-39.169c3.647-7.113,11.057-11.992,19.584-11.992
			C365.745,254.108,373.155,258.986,376.802,266.099z M458.723,266.099h-20.12c-4.948-40.511-39.559-71.992-81.385-71.992
			c-41.826,0-76.437,31.48-81.385,71.992h-20.121c0.913-9.342,3.093-18.318,6.363-26.755c0.067-0.174,0.135-0.347,0.203-0.52
			c0.03-0.076,0.06-0.152,0.09-0.227c0.027-0.068,0.054-0.135,0.081-0.203c0.067-0.169,0.135-0.337,0.203-0.506
			c0.058-0.144,0.117-0.288,0.176-0.432c0.028-0.069,0.057-0.138,0.085-0.206c2.911-7.04,6.589-13.686,10.928-19.833
			c0.088-0.118,0.173-0.238,0.255-0.359c5.786-8.121,20.949-21.759,21.13-21.897c0.037-0.028,0.074-0.056,0.111-0.085
			c1.536-1.174,3.109-2.308,4.718-3.402c0.049-0.033,0.096-0.067,0.144-0.101c10.887-7.368,23.267-12.69,36.583-15.409
			c0.014-0.003,0.028-0.006,0.042-0.008c6.591-1.343,13.411-2.048,20.393-2.048C410.082,174.108,453.682,214.537,458.723,266.099z
			 M377.472,155.789c-5.318-0.892-10.751-1.44-16.275-1.617l106.94-106.94l8.947,8.947L377.472,155.789z"/>
	</g>
</g>
<g>
</g>
<g>
</g>
<g>
</g>
<g>
</g>
<g>
</g>
<g>
</g>
<g>
</g>
<g>
</g>
<g>
</g>
<g>
</g>
<g>
</g>
<g>
</g>
<g>
</g>
<g>
</g>
<g>
</g>
</svg>
