<svg id="Capa_1" enable-background="new 0 0 512.632 512.632" height="512" viewBox="0 0 512.632 512.632" width="512" xmlns="http://www.w3.org/2000/svg"><g><path d="m349.501 274.924-57.215 83.259-107.492-172.346-182.486 326.479h510.324zm106.115 207.392h-47.643l-25.242-106.063zm-230.04-27.057-18.426-176.887 66.601 106.782zm-172.132 27.057 122.044-218.343 22.744 218.343zm256.161-96.364 33.125-48.204 34.405 144.568h-133.751z"/><path d="m318.667 172.436-22.127 22.127 21.214 21.213 22.126-22.126c10.842 7.727 23.464 13.108 37.12 15.409v31.257h30v-31.257c13.655-2.301 26.278-7.682 37.12-15.409l22.126 22.126 21.214-21.213-22.126-22.127c7.728-10.843 13.109-23.465 15.41-37.12h31.256v-30h-31.257c-2.301-13.655-7.682-26.277-15.41-37.12l22.126-22.125-21.213-21.213-22.126 22.125c-10.842-7.729-23.465-13.109-37.12-15.41v-31.257h-30v31.257c-13.655 2.301-26.278 7.682-37.12 15.41l-22.126-22.125-21.213 21.213 22.126 22.125c-7.729 10.843-13.109 23.465-15.41 37.12h-31.257v30h31.257c2.301 13.655 7.681 26.277 15.41 37.12zm73.333-112.12c33.084 0 60 26.916 60 60s-26.916 60-60 60-60-26.916-60-60 26.916-60 60-60z"/><path d="m55 81.377c0-16.542 13.458-30 30-30s30 13.458 30 30v15h90v-30h-61.898c-6.678-25.85-30.195-45-58.102-45s-51.424 19.15-58.102 45h-26.898v30h55z"/></g></svg>