<svg id="Capa_1" enable-background="new 0 0 512 512" height="512" viewBox="0 0 512 512" width="512" xmlns="http://www.w3.org/2000/svg"><g><path d="m481.34 413.5c17.716-18.051 28.66-42.77 28.66-70 0-55.141-44.859-100-100-100-5.256 0-10.417.41-15.457 1.196l-8.732-26.196h32.161c17.66 0 32.027-14.367 32.027-32.027v-62.973h-95.855l-18.333-55h-60.811v30h39.188l30 90h-144.731l-15.108-30h30.651v-30h-95v30h30.759l21.997 43.678-33.563 49.326c-12.042-5.15-25.29-8.005-39.193-8.005-55.141 0-100 44.859-100 100 0 27.23 10.945 51.949 28.66 70h-28.66v30h512v-30h-30.66zm-71.34-140c38.598 0 70 31.402 70 70s-31.402 70-70 70-70-31.402-70-70c0-26.081 14.348-48.86 35.555-60.902l25.215 75.645 28.461-9.486-25-75c1.904-.156 3.825-.257 5.769-.257zm10-120v32.973c0 1.118-.909 2.027-2.027 2.027h-42.161l-11.667-35zm-65.812 65 11.749 35.248c-33.104 16.318-55.937 50.416-55.937 89.752 0 27.23 10.945 51.949 28.66 70h-167.32c12.101-12.331 21.046-27.77 25.496-45h78.164v-30h-.002l-60.432-120zm-184.386 120h-53.515l31.412-46.167c12.564 11.721 20.812 27.994 22.103 46.167zm18.388-105.675 53.218 105.675h-41.533c-1.408-28.461-14.774-53.825-35.161-71.172zm-158.19 110.675c0-38.598 31.402-70 70-70 7.626 0 14.963 1.243 21.841 3.508l-41.841 61.492v.001.001 29.998h85.368c-10.087 26.284-35.576 45-65.368 45-38.598 0-70-31.402-70-70z"/></g></svg>