<svg id="Capa_1" enable-background="new 0 0 510 510" height="512" viewBox="0 0 510 510" width="512" xmlns="http://www.w3.org/2000/svg"><g><path d="m255 1.615-255 127.5v379.271h510v-379.271zm225 476.77h-450v-330.729l225-112.5 225 112.5z"/><path d="m150 298.385h30v30h-30z"/><path d="m330 298.385h30v30h-30z"/><path d="m153.686 133.385-32.353 113.235c-18.701 10.74-31.333 30.9-31.333 53.968v57.797 30 60h90v-60h150v60h90v-60-30-57.797c0-23.068-12.632-43.228-31.333-53.968l-32.353-113.235zm180 30 21.429 75h-200.229l21.429-75zm-183.686 255h-30v-30h30zm240 0h-30v-30h30zm0-60h-60-150-60v-57.797c0-17.757 14.446-32.203 32.203-32.203h205.594c17.757 0 32.203 14.446 32.203 32.203z"/></g></svg>