<svg id="Capa_1" enable-background="new 0 0 512 512" height="512" viewBox="0 0 512 512" width="512" xmlns="http://www.w3.org/2000/svg"><g><path d="m437.02 74.98c-48.353-48.351-112.64-74.98-181.02-74.98s-132.667 26.629-181.02 74.98c-48.351 48.353-74.98 112.64-74.98 181.02s26.629 132.667 74.98 181.02c48.353 48.351 112.64 74.98 181.02 74.98s132.667-26.629 181.02-74.98c48.351-48.353 74.98-112.64 74.98-181.02s-26.629-132.667-74.98-181.02zm-181.02 407.02c-124.617 0-226-101.383-226-226s101.383-226 226-226 226 101.383 226 226-101.383 226-226 226z"/><path d="m256 68.857c-103.19 0-187.143 83.952-187.143 187.143s83.953 187.143 187.143 187.143 187.143-83.952 187.143-187.143-83.953-187.143-187.143-187.143zm0 344.286c-86.648 0-157.143-70.494-157.143-157.143s70.495-157.143 157.143-157.143 157.143 70.494 157.143 157.143-70.495 157.143-157.143 157.143z"/><path d="m271 137.71h-28.204l-79.466 110.631v20.07l77.67 36v69.879h28.204l79.466-110.642v-20.247l-77.67-34.026zm42.742 123.142-42.742 59.511v-35.113l-72.955-33.814 42.955-59.802v37.351z"/></g></svg>