<svg id="Capa_1" enable-background="new 0 0 512 512" height="512" viewBox="0 0 512 512" width="512" xmlns="http://www.w3.org/2000/svg"><g><path id="XMLID_1662_" d="m392.89 0h-273.78c-8.284 0-15 6.716-15 15v453.152c0 8.284 6.716 15 15 15h18.601v13.848c0 8.284 6.716 15 15 15s15-6.716 15-15v-13.848h172.319v13.848c0 8.284 6.716 15 15 15s15-6.716 15-15v-13.848h22.86c8.284 0 15-6.716 15-15v-453.152c0-8.284-6.716-15-15-15zm-15 453.152h-243.78v-260.882h243.78zm0-290.882h-243.78v-132.27h243.78z"/><path id="XMLID_1661_" d="m179.11 142.987c8.284 0 15-6.716 15-15v-66.338c0-8.284-6.716-15-15-15s-15 6.716-15 15v66.338c0 8.284 6.716 15 15 15z"/><path id="XMLID_1618_" d="m179.11 420.648c8.284 0 15-6.716 15-15v-180.299c0-8.284-6.716-15-15-15s-15 6.716-15 15v180.299c0 8.285 6.716 15 15 15z"/></g></svg>