<svg id="Capa_1" enable-background="new 0 0 512 512" height="512" viewBox="0 0 512 512" width="512" xmlns="http://www.w3.org/2000/svg"><g><path d="m339.899 177.319-56.819-47.349-9.622-104.884c-.472-5.147-4.789-9.086-9.958-9.086h-80c-5.169 0-9.486 3.939-9.958 9.086l-9.622 104.883-56.82 47.35c-2.29 1.9-3.6 4.7-3.6 7.681v317c0 2.63 1.07 5.21 2.93 7.069 1.86 1.86 4.44 2.931 7.07 2.931h65c5.51 0 10-4.49 10-10s-4.49-10-10-10h-55v-302.32l53.62-44.68h92.76l53.62 44.68v49.82h-100c-5.523 0-10 4.478-10 10v60c0 3.448 1.776 6.652 4.7 8.48l35.3 22.062v79.458c0 5.522 4.478 10 10 10h60v62.5h-55c-5.51 0-10 4.49-10 10s4.49 10 10 10h65c2.63 0 5.21-1.07 7.069-2.931 1.86-1.859 2.931-4.439 2.931-7.069v-317c0-2.98-1.311-5.78-3.601-7.681zm-155.44-52.319 8.165-89h61.751l8.166 89zm89.041 284.5v-75c0-3.448-1.776-6.652-4.7-8.48l-35.3-22.062v-44.458h90v150z"/><circle cx="223.5" cy="502" r="10"/><path d="m223.5 349.5c-5.523 0-10 4.478-10 10v60c0 5.522 4.477 10 10 10s10-4.478 10-10v-60c0-5.522-4.477-10-10-10z"/><path d="m391.45 141.81-9.19-3.95c-1.26-.54-2.58-.81-3.94-.81-4.01 0-7.609 2.37-9.189 6.05-2.18 5.061.17 10.96 5.229 13.141l9.19 3.949c1.26.54 2.58.811 3.94.811 4.01 0 7.619-2.37 9.199-6.05 2.17-5.071-.179-10.961-5.239-13.141z"/><path d="m340.92 120.09-9.19-3.95c-1.25-.54-2.58-.82-3.939-.82-4 0-7.61 2.381-9.19 6.061-.54 1.24-.81 2.54-.819 3.88-.021 4.03 2.35 7.66 6.05 9.25l9.189 3.95c1.261.54 2.58.82 3.94.82 4.01 0 7.62-2.381 9.2-6.051 1.05-2.46 1.09-5.18.1-7.66-.991-2.48-2.891-4.421-5.341-5.48z"/><path d="m378.31 23.95c1.36 0 2.69-.271 3.95-.82l9.19-3.94c5.069-2.18 7.409-8.08 5.239-13.14-1.58-3.68-5.189-6.05-9.199-6.05-1.351 0-2.681.27-3.94.81l-9.19 3.95c-5.06 2.18-7.409 8.07-5.229 13.14 1.579 3.68 5.179 6.05 9.179 6.05z"/><path d="m327.79 45.67c1.359 0 2.689-.271 3.939-.811l9.19-3.949c5.06-2.181 7.41-8.07 5.24-13.141-1.58-3.68-5.19-6.05-9.2-6.05-1.36 0-2.68.271-3.94.811l-9.189 3.949c-3.7 1.59-6.07 5.23-6.05 9.25.01 1.34.279 2.65.819 3.891 1.581 3.68 5.191 6.05 9.191 6.05z"/><path d="m398.5 70.5h-10c-5.51 0-10 4.49-10 10s4.49 10 10 10h10c5.51 0 10-4.49 10-10s-4.49-10-10-10z"/><path d="m343.5 70.5h-10c-5.51 0-10 4.49-10 10s4.49 10 10 10h10c5.51 0 10-4.49 10-10s-4.49-10-10-10z"/><circle cx="223.5" cy="80.5" r="10"/></g></svg>