<svg id="Capa_1" enable-background="new 0 0 512 512" height="512" viewBox="0 0 512 512" width="512" xmlns="http://www.w3.org/2000/svg"><g><path d="m391 322v-30h-270v30h120v190h30v-190z"/><path d="m30 242h-30v270h30v-60h91v60h30c0-3.395 0-145.608 0-150h-121zm91 180h-91v-30h91z"/><path d="m482 242v120h-121v150h30v-60h91v60h30c0-11.228 0-257.244 0-270zm-91 150h91v30h-91z"/><path d="m106 149.192c20.617 21.067 54.359 21.091 75 0 20.617 21.067 54.359 21.091 75 0 20.617 21.067 54.359 21.091 75 0 20.617 21.067 54.359 21.091 75 0 32.903 33.62 90 9.98 90-36.692 0-17.79 0-27.48 0-39.347l-18.289-73.153h-425.982l-35.729 71.459v41.041c0 46.666 57.095 70.315 90 36.692zm-60-70.651 24.27-48.541h384.018l11.712 46.847v35.653c0 12.407-10.093 22.5-22.5 22.5s-22.5-10.093-22.5-22.5v-37.5h-30v37.5c0 12.407-10.093 22.5-22.5 22.5s-22.5-10.093-22.5-22.5v-37.5h-30v37.5c0 12.407-10.093 22.5-22.5 22.5s-22.5-10.093-22.5-22.5v-37.5h-30v37.5c0 12.407-10.093 22.5-22.5 22.5s-22.5-10.093-22.5-22.5v-37.5h-30v37.5c0 12.407-10.093 22.5-22.5 22.5s-22.5-10.093-22.5-22.5v-37.5h-30v37.5c0 12.407-10.093 22.5-22.5 22.5s-22.5-10.093-22.5-22.5z"/></g></svg>