<svg id="Layer_1" enable-background="new 0 0 512.003 512.003" height="512" viewBox="0 0 512.003 512.003" width="512" xmlns="http://www.w3.org/2000/svg"><path d="m496.917 183h-8.16l-106.707-121.881c-2.848-3.253-6.962-5.119-11.286-5.119s-8.438 1.866-11.286 5.119l-29.536 33.736-62.898-88.542c-2.814-3.96-7.371-6.313-12.229-6.313s-9.415 2.353-12.229 6.313l-61.879 87.106-28.279-32.3c-2.848-3.253-6.961-5.119-11.285-5.119s-8.438 1.866-11.286 5.119l-106.707 121.881h-8.063c-8.284 0-15 6.716-15 15s6.716 15 15 15h140.053c-30.572 18.401-48.787 39.994-55.193 65.224-14.7 57.9 39.757 115.424 75.792 153.489 10.52 11.113 19.605 20.71 24.398 27.529 5.884 8.371 6.958 15.466-4.965 26.958-5.965 5.749-6.14 15.245-.391 21.209 2.944 3.055 6.87 4.591 10.802 4.591 3.746 0 7.497-1.395 10.407-4.2 28.5-27.469 17.679-53.022 8.691-65.809-6.049-8.606-15.83-18.939-27.156-30.903-31.513-33.288-79.135-83.593-68.5-125.483 7.246-28.538 40.94-52.958 100.125-72.606h58.858c-23.564 17.8-35.732 36.159-37.587 56.168-4.068 43.89 43.088 78.746 93.013 115.649 47.895 35.403 97.421 72.01 88.907 108.802-1.868 8.071 3.161 16.128 11.232 17.996 1.138.263 2.275.39 3.395.39 6.824 0 12.996-4.689 14.601-11.622 5.996-25.913-2.956-51.63-27.369-78.622-19.531-21.594-46.679-41.662-72.934-61.068-41.042-30.337-83.48-61.707-80.973-88.756 1.675-18.065 24.49-38.416 66.011-58.937h150.614c8.284 0 15-6.716 15-15s-6.717-14.999-15.001-14.999zm-126.153-89.229 78.12 89.229h-56.325l-44.756-63.002zm-229.621 0 21.704 24.79-45.776 64.439h-54.049zm113.672-52.87 100.945 142.099h-201.89z"/></svg>