<svg id="Capa_1" enable-background="new 0 0 510 510" height="512" viewBox="0 0 510 510" width="512" xmlns="http://www.w3.org/2000/svg"><g><path d="m480.152 449.01-29.34-88.021h-60.812v-30h60v-66.536c0-54.675-15.52-92.502-47.447-115.644-24.041-17.426-56.051-26.107-102.553-27.59v-30.229h-30v-30h60v-30h-150v30h60v30h-30v30.246c-45.682 1.544-78.384 10.409-102.151 27.555-32.198 23.226-47.849 61.06-47.849 115.663v66.536h60v30h-60.812l-29.34 88.021h-29.848v30h510v-30h-29.848zm-390.152-184.556c0-44.274 11.58-74.149 35.401-91.334 20.929-15.098 52.577-22.13 99.599-22.13h15v-30h30v30h15c47.377 0 79.136 7.026 99.947 22.11 23.587 17.097 35.053 46.979 35.053 91.354v36.536h-330zm60 66.536h210v30h-210zm-69.188 60h348.377l19.34 58.021h-387.058z"/></g></svg>