<svg id="Capa_1" enable-background="new 0 0 510 510" height="512" viewBox="0 0 510 510" width="512" xmlns="http://www.w3.org/2000/svg"><g><path d="m270 115v-80h-30v50h-120v-50h-30v80h-90v298c0 34.187 27.813 62 62 62h386c34.187 0 62-27.813 62-62v-298zm-30 90h-120v-30h120zm-120 30h120v30h-120zm120-120v30h-120v-30zm-150 30v120h-60v-120zm390 210v58c0 17.645-14.355 32-32 32h-386c-16.972 0-30.894-13.284-31.931-30h59.931v-30h-60v-30h120v-30h-120v-30h270v-30h-30v-120h210v120h-60v30h60v30h-180v30z"/><path d="m210 385h240v30h-240z"/><path d="m180 325h90v30h-90z"/><path d="m120 385h60v30h-60z"/><path d="m330 265h60v30h-60z"/></g></svg>