<svg id="Layer_3" enable-background="new 0 0 64 64" height="512" viewBox="0 0 64 64" width="512" xmlns="http://www.w3.org/2000/svg"><g><path d="m62 27h-10v-3c0-.553-.447-1-1-1-1.53 0-2.885.706-3.803 1.792-.245-.15-.502-.281-.778-.373l-2.051-.685c-.818-.272-1.368-1.034-1.368-1.896v-.838h11c1.103 0 2-.897 2-2v-16c0-1.103-.897-2-2-2h-28c-1.103 0-2 .897-2 2v16c0 1.103.897 2 2 2h11v.838c0 .862-.55 1.624-1.368 1.897l-2.051.684c-1.216.405-2.109 1.388-2.437 2.581h-12.144v-17c0-.553-.447-1-1-1h-12c-.553 0-1 .447-1 1v17h-3c-.553 0-1 .447-1 1v6 28c0 .553.447 1 1 1h4c.553 0 1-.447 1-1v-7h10v7c0 .553.447 1 1 1h4c.553 0 1-.447 1-1v-27h23v7h-13c-2.757 0-5 2.243-5 5v2c0 .553.447 1 1 1h8v.758c0 2.336-.87 4.533-2.441 6.242h-1.559c-1.654 0-3 1.346-3 3s1.346 3 3 3h14c1.654 0 3-1.346 3-3s-1.346-3-3-3h-1.559c-1.571-1.709-2.441-3.906-2.441-6.242v-.758h6c1.654 0 3-1.346 3-3v-4-8h5v27c0 .553.447 1 1 1h4c.553 0 1-.447 1-1v-28-6c0-.553-.447-1-1-1zm-8-24 .001 12h-28.001v-12zm-28 14h28.002v2h-28.002zm8.214 9.315 2.051-.683c1.635-.545 2.735-2.07 2.735-3.794v-.838h2v.838c0 1.725 1.1 3.249 2.735 3.794l2.051.684c.163.055.316.132.455.23-.047.152-.108.297-.14.455h-12.786c.214-.313.522-.56.899-.686zm-17.214-5.315h-10v-4h10zm0-10v4h-10v-4zm-10 12h10v4h-10zm-2 38h-2v-26h2zm12-26v8h-10v-8zm-10 18v-8h10v8zm14 8h-2v-26h2zm1-28h-4-12-3v-4h43v4zm26-5c0-1.304.836-2.416 2-2.829v16.829h-2zm0 32c0 .552-.448 1-1 1h-14c-.552 0-1-.448-1-1s.448-1 1-1h14c.552 0 1 .448 1 1zm-5.111-3h-5.778c1.228-1.832 1.889-3.986 1.889-6.242v-.758h2v.758c0 2.256.661 4.41 1.889 6.242zm7.111-10c0 .552-.448 1-1 1h-19v-1c0-1.654 1.346-3 3-3h17zm2-18h9v4h-3-6zm9 32h-2v-26h2z"/><path d="m10 37h4v2h-4z"/><path d="m10 47h4v2h-4z"/></g></svg>