<svg id="Capa_1" enable-background="new 0 0 512 512" height="512" viewBox="0 0 512 512" width="512" xmlns="http://www.w3.org/2000/svg"><g><g><g><g><path d="m426 512h-340c-24.813 0-45-20.187-45-45v-422c0-24.813 20.187-45 45-45h340c24.813 0 45 20.188 45 45v422c0 24.813-20.187 45-45 45zm-340-482c-8.271 0-15 6.729-15 15v422c0 8.271 6.729 15 15 15h340c8.271 0 15-6.729 15-15v-422c0-8.271-6.729-15-15-15z" fill="#222221"/></g><g><path d="m456 143h-400c-8.284 0-15-6.716-15-15s6.716-15 15-15h400c8.284 0 15 6.716 15 15s-6.716 15-15 15z" fill="#222221"/></g><g><path d="m168 143c-8.284 0-15-6.716-15-15v-113c0-8.284 6.716-15 15-15s15 6.716 15 15v113c0 8.284-6.716 15-15 15z" fill="#222221"/></g><g><path d="m392 87h-16c-8.284 0-15-6.716-15-15s6.716-15 15-15h16c8.284 0 15 6.716 15 15s-6.716 15-15 15z" fill="#222221"/></g><g><path d="m312 87h-16c-8.284 0-15-6.716-15-15s6.716-15 15-15h16c8.284 0 15 6.716 15 15s-6.716 15-15 15z" fill="#222221"/></g><g><path d="m256 447c-74.439 0-135-60.561-135-135 0-74.438 60.561-135 135-135s135 60.562 135 135c0 74.439-60.561 135-135 135zm0-240c-57.897 0-105 47.104-105 105 0 57.897 47.103 105 105 105s105-47.103 105-105-47.103-105-105-105z" fill="#222221"/></g></g></g><circle cx="232" cy="72" fill="#222221" r="15"/></g></svg>