<svg id="Capa_1" enable-background="new 0 0 510 510" height="512" viewBox="0 0 510 510" width="512" xmlns="http://www.w3.org/2000/svg"><g><path d="m330 217.536v-117.536-15-30h-30v30h-240v-30h-30v30 15 117.875c-17.499 6.513-30 23.385-30 43.125v44 15 75h30v60h90v-60h120v60h90v-60h30v-75-15-44c0-20.392-12.358-37.28-30-43.464zm-30-2.536h-30v-22.5c0-26.191-21.309-47.5-47.5-47.5h-85c-26.191 0-47.5 21.309-47.5 47.5v22.5h-30v-100h240zm-60 0h-120v-22.5c0-9.649 7.851-17.5 17.5-17.5h85c9.649 0 17.5 7.851 17.5 17.5zm-150 210h-30v-30h30zm210 0h-30v-30h30zm30-60h-300v-30h300zm-300-60v-44c0-8.822 7.178-16 16-16h269c8.552 0 15 6.878 15 16v44z"/><path d="m510 260v-30h-.001l-17.55-90h-84.898l-17.551 90v30h45v35h-45v160h120v-160h-45v-35zm-90 165v-35h60v35zm60-65h-60v-35h60zm-59.42-130 11.869-60h35.102l11.868 60z"/></g></svg>