<svg id="Capa_1" enable-background="new 0 0 512 512" height="512" viewBox="0 0 512 512" width="512" xmlns="http://www.w3.org/2000/svg"><g><path d="m407.199 261.47 62.48-138.845-27.357-12.311-68.02 151.155h-103.302v-57h-30v57h-103.301l-68.02-151.155-27.357 12.311 62.48 138.845h-104.802v238h512v-238zm74.801 208h-452v-178h452z"/><path d="m112 427.47c25.916 0 47-21.084 47-47s-21.084-47-47-47-47 21.084-47 47 21.084 47 47 47zm0-64c9.374 0 17 7.626 17 17s-7.626 17-17 17-17-7.626-17-17 7.626-17 17-17z"/><path d="m240 427.47c25.916 0 47-21.084 47-47s-21.084-47-47-47-47 21.084-47 47 21.084 47 47 47zm0-64c9.374 0 17 7.626 17 17s-7.626 17-17 17-17-7.626-17-17 7.626-17 17-17z"/><path d="m384 325.47h64v30h-64z"/><path d="m197.436 111.863 21.213 21.213c18.173-18.172 56.615-18.171 74.788 0l21.213-21.213c-29.839-29.838-87.326-29.888-117.214 0z"/><path d="m330.394 70.006 21.213-21.213c-48.33-48.33-142.756-48.372-191.128 0l21.213 21.213c36.666-36.665 112.043-36.657 148.702 0z"/></g></svg>