<?xml version="1.0" encoding="utf-8"?>
<!-- Generator: Adobe Illustrator 24.1.2, SVG Export Plug-In . SVG Version: 6.00 Build 0)  -->
<svg version="1.1" id="Capa_1" xmlns="http://www.w3.org/2000/svg" xmlns:xlink="http://www.w3.org/1999/xlink" x="0px" y="0px"
	 viewBox="0 0 240 240" style="enable-background:new 0 0 240 240;" xml:space="preserve">
<style type="text/css">
	.st0{fill:#FFFFFF;}
</style>
<g>
	<path class="st0" d="M177,6l-29.8,0C113.7,5.9,92,28.2,92,62.5v26.1H62c-2.6,0-4.7,2.1-4.7,4.7v37.8c0,2.6,2.1,4.7,4.7,4.7h30v95.4
		c0,2.6,2.1,4.7,4.7,4.7h39.1c2.6,0,4.7-2.1,4.7-4.7v-95.4h35.1c2.6,0,4.7-2.1,4.7-4.7l0-37.8c0-1.2-0.5-2.4-1.4-3.3
		c-0.9-0.9-2.1-1.4-3.3-1.4h-35.1V66.5c0-10.6,2.5-16,16.4-16l20.1,0c2.6,0,4.7-2.1,4.7-4.7V10.7C181.7,8.1,179.6,6,177,6z"/>
</g>
</svg>
