<?xml version="1.0" encoding="utf-8"?>
<!-- Generator: Adobe Illustrator 24.1.2, SVG Export Plug-In . SVG Version: 6.00 Build 0)  -->
<svg version="1.1" id="Capa_1" xmlns="http://www.w3.org/2000/svg" xmlns:xlink="http://www.w3.org/1999/xlink" x="0px" y="0px"
	 viewBox="0 0 240 240" style="enable-background:new 0 0 240 240;" xml:space="preserve">
<style type="text/css">
	.st0{fill:#FFFFFF;}
</style>
<g>
	<path class="st0" d="M59.9,34.8c0,14.4-10.8,25.9-28.2,25.9h-0.3c-16.7,0-27.5-11.5-27.5-25.9C3.9,20.1,15,8.9,32,8.9
		C49.1,8.9,59.6,20.1,59.9,34.8z M6.8,231h49.8V81.1H6.8V231z M178.9,77.6c-26.4,0-38.3,14.5-44.9,24.7v0.5h-0.3
		c0.1-0.1,0.2-0.3,0.3-0.5V81.2H84.2c0.6,14,0,149.9,0,149.9H134v-83.7c0-4.5,0.3-8.9,1.6-12.2c3.6-8.9,11.8-18.2,25.5-18.2
		c18.1,0,25.3,13.8,25.3,33.9V231h49.8v-85.9C236.3,99,211.7,77.6,178.9,77.6z"/>
</g>
</svg>
