<?xml version="1.0" encoding="utf-8"?>
<!-- Generator: Adobe Illustrator 24.1.2, SVG Export Plug-In . SVG Version: 6.00 Build 0)  -->
<svg version="1.1" id="Capa_1" xmlns="http://www.w3.org/2000/svg" xmlns:xlink="http://www.w3.org/1999/xlink" x="0px" y="0px"
	 viewBox="0 0 240 240" style="enable-background:new 0 0 240 240;" xml:space="preserve">
<style type="text/css">
	.st0{fill:#FFFFFF;}
</style>
<g>
	<path class="st0" d="M234.5,47.3c-9.1,3.9-18.2,6.3-27.3,7.3c10.3-6.2,17.2-14.8,20.8-26.1c-9.4,5.6-19.4,9.4-30,11.4
		C188.6,30,177.1,25,163.4,25c-13.1,0-24.2,4.6-33.5,13.8c-9.2,9.2-13.8,20.4-13.8,33.5c0,3.5,0.4,7.1,1.2,10.8
		c-19.3-1-37.5-5.8-54.4-14.6c-16.9-8.7-31.3-20.4-43.2-34.9C15.4,41,13.2,49,13.2,57.5c0,8.1,1.9,15.6,5.7,22.6
		C22.8,87,27.9,92.7,34.3,97c-7.6-0.3-14.8-2.3-21.4-6v0.6c0,11.4,3.6,21.5,10.8,30.1c7.2,8.6,16.2,14.1,27.2,16.3
		c-4.1,1.1-8.3,1.6-12.5,1.6c-2.7,0-5.7-0.2-8.9-0.7c3,9.5,8.6,17.3,16.7,23.4c8.1,6.1,17.3,9.3,27.5,9.5
		C56.6,185.2,37,191.9,15,191.9c-4.2,0-8-0.2-11.4-0.6c22,14.2,46.2,21.2,72.7,21.2c16.8,0,32.6-2.7,47.3-8
		c14.8-5.3,27.4-12.5,37.8-21.4c10.4-8.9,19.5-19.2,27-30.8c7.6-11.6,13.2-23.8,16.9-36.4c3.7-12.7,5.6-25.3,5.6-38
		c0-2.7,0-4.8-0.1-6.2C220,65,227.9,56.9,234.5,47.3z"/>
</g>
</svg>
