<?xml version="1.0" encoding="utf-8"?>
<!-- Generator: Adobe Illustrator 24.1.2, SVG Export Plug-In . SVG Version: 6.00 Build 0)  -->
<svg version="1.1" id="Capa_1" xmlns="http://www.w3.org/2000/svg" xmlns:xlink="http://www.w3.org/1999/xlink" x="0px" y="0px"
	 viewBox="0 0 240 240" style="enable-background:new 0 0 240 240;" xml:space="preserve">
<style type="text/css">
	.st0{fill:#FFFFFF;}
</style>
<g>
	<path class="st0" d="M233.3,117.2c0,61.1-49.9,110.6-111.4,110.6c-19.5,0-37.9-5-53.9-13.7L6.3,233.7l20.1-59.3
		c-10.1-16.7-16-36.2-16-57.1C10.5,56.2,60.3,6.7,121.9,6.7C183.5,6.7,233.3,56.2,233.3,117.2z M121.9,24.3
		c-51.7,0-93.7,41.7-93.7,93c0,20.3,6.6,39.2,17.8,54.5l-11.7,34.5l36-11.4c14.8,9.7,32.5,15.4,51.5,15.4c51.7,0,93.7-41.7,93.7-93
		C215.6,66,173.5,24.3,121.9,24.3z M178.2,142.7c-0.7-1.1-2.5-1.8-5.2-3.2c-2.7-1.4-16.2-7.9-18.7-8.8c-2.5-0.9-4.3-1.4-6.2,1.3
		c-1.8,2.7-7,8.8-8.6,10.6c-1.6,1.8-3.2,2-5.9,0.7c-2.7-1.4-11.5-4.2-22-13.4c-8.1-7.2-13.6-16.1-15.2-18.8
		c-1.6-2.7-0.2-4.2,1.2-5.5c1.2-1.2,2.7-3.2,4.1-4.8c1.4-1.6,1.8-2.7,2.7-4.5c0.9-1.8,0.4-3.4-0.2-4.8c-0.7-1.4-6.1-14.7-8.4-20.1
		c-2.3-5.4-4.5-4.5-6.1-4.5c-1.6,0-3.4-0.2-5.2-0.2s-4.8,0.7-7.3,3.4c-2.5,2.7-9.6,9.3-9.6,22.6c0,13.4,9.8,26.2,11.1,28
		c1.4,1.8,18.9,30.1,46.7,40.9c27.8,10.8,27.8,7.2,32.8,6.8c5-0.5,16.2-6.6,18.4-12.9C178.9,149.3,178.9,143.8,178.2,142.7z"/>
</g>
</svg>
