<?xml version="1.0" encoding="UTF-8"?>
<!DOCTYPE svg PUBLIC "-//W3C//DTD SVG 1.1//EN" "http://www.w3.org/Graphics/SVG/1.1/DTD/svg11.dtd">
<!-- Creator: CorelDRAW -->
<!--width="12851px" height="2884px"-->
<svg xmlns="http://www.w3.org/2000/svg" xml:space="preserve" width="326px" height="73px" style="shape-rendering:geometricPrecision; text-rendering:geometricPrecision; image-rendering:optimizeQuality; fill-rule:evenodd; clip-rule:evenodd"
viewBox="0 0 12917 2898.67"
 xmlns:xlink="http://www.w3.org/1999/xlink">
 <defs>
  <style type="text/css">
   <![CDATA[
    .fil9 {fill:#00336A}
    .fil11 {fill:#00548E}
    .fil16 {fill:#007EC0}
    .fil1 {fill:#009C3F}
    .fil5 {fill:#00B0DC}
    .fil14 {fill:#00BC38}
    .fil7 {fill:#1D7837}
    .fil10 {fill:#A81136}
    .fil0 {fill:#E31930}
    .fil2 {fill:#E48E16}
    .fil3 {fill:#E4A10B}
    .fil13 {fill:#FF0C88}
    .fil6 {fill:#FF152A}
    .fil4 {fill:#FF3E25}
    .fil12 {fill:#FF6D17}
    .fil15 {fill:#FF9E04}
    .fil8 {fill:#FFB800}
    .fil17 {fill:#383838;fill-rule:nonzero}
   ]]>
  </style>
 </defs>
 <g id="Layer_x0020_1">
  <metadata id="CorelCorpID_0Corel-Layer"/>
  <g id="_262465200">
   <path id="_262453584" class="fil0" d="M2206.79 648.302c57.6112,56.392 109.503,122.31 157.351,197.516l286.703 -177.148c-61.2296,-97.3752 -135.561,-185.091 -218.068,-266.778l-225.986 246.409z"/>
   <path id="_262453704" class="fil1" d="M1949.93 455.318c78.9522,41.8486 147.597,94.8003 209.627,148.278l229.736 -241.917c-93.6939,-79.63 -190.116,-150.956 -293.302,-201.682l-146.062 295.321z"/>
   <path id="_262454136" class="fil2" d="M48.0869 1822l269.134 -87.8758c-24.3836,-93.6357 -37.1725,-188.07 -37.3304,-283.375l-279.768 -14.0757c-1.72727,132.246 14.8141,260.568 47.9634,385.327z"/>
   <path id="_262453944" class="fil3" d="M1654.67 343.964c89.5615,17.5801 168.295,48.1546 235.887,80.715l146.559 -293.117c-101.765,-46.3454 -208.898,-81.9271 -322.429,-104.685l-60.0163 317.087z"/>
   <path id="_262454472" class="fil4" d="M1852.25 2482.6l123.491 311.479c103.471,-41.5482 199.991,-93.853 288.806,-158.092l-203.472 -270.653c-62.2374,43.691 -131.735,82.8483 -208.825,117.265z"/>
   <path id="_262454424" class="fil5" d="M1589.03 2890.63c112.348,-11.5377 220.033,-34.6641 321.962,-72.0989l-118.238 -312.409c-67.0334,25.6063 -143.296,45.4633 -232.398,57.3204l28.6738 327.187z"/>
   <path id="_262454160" class="fil6" d="M1329.61 319.628c85.2048,-5.7445 170.396,-2.12614 255.577,11.1305l54.1211 -316.444c-113.24,-15.4587 -225.371,-18.9441 -336.143,-7.7638l26.4444 313.077z"/>
   <path id="_262455072" class="fil7" d="M2.10952 1371.52l279.207 16.1853c2.4716,-97.7871 23.4968,-189.7 49.7702,-279.6l-265.064 -93.8126c-36.7629,118.586 -57.6991,237.671 -63.9137,357.227z"/>
   <path id="_262454496" class="fil8" d="M1195.56 2877.85c110.043,18.3126 218.966,25.0377 326.585,18.2034l-29.6485 -325.772c-82.0885,5.39074 -163.363,3.0248 -243.725,-8.05465l-53.2117 315.623z"/>
   <path id="_262454736" class="fil9" d="M904.972 103.198l115.59 282.063c80.5144,-29.2282 162.966,-49.1565 247.681,-59.7373l-30.9389 -311.235c-115.512,16.9462 -226.441,46.1756 -332.332,88.9086z"/>
   <path id="_262454664" class="fil10" d="M818.732 2756.74c100.956,49.8795 204.182,84.8356 309.325,107.201l54.9853 -313c-79.8852,-16.3242 -157.612,-40.6519 -232.818,-74.3319l-131.492 280.131z"/>
   <path id="_262455096" class="fil11" d="M558.723 302.816l176.437 236.702c69.9894,-51.8406 143.211,-93.5265 218.891,-127.488l-111.045 -282.158c-101.287,48.043 -197.362,103.754 -284.282,172.944z"/>
   <path id="_262454568" class="fil12" d="M491.083 2539.71c82.3153,72.9121 171.574,135.047 267.459,186.897l129.671 -280.24c-71.1682,-37.0015 -138.179,-80.8183 -200.272,-132.68l-196.859 226.023z"/>
   <path id="_262454904" class="fil13" d="M233.654 2241.2c57.2301,88.2011 125.312,171.815 205.461,250.333l202.039 -218.91c-62.5093,-57.2824 -113.958,-119.501 -159.532,-184.338l-247.968 152.915z"/>
   <path id="_262455816" class="fil14" d="M277.082 594.255l232.195 168.897c49.1909,-66.0469 106.829,-127.441 174.699,-183.198l-182.905 -229.733c-86.6744,73.781 -161.139,155.251 -223.988,244.034z"/>
   <path id="_262455504" class="fil15" d="M66.0813 1884.55c32.3883,102.931 76.3571,201.223 130.07,295.61l251.578 -142.609c-44.2976,-73.6742 -82.3343,-149.599 -108.336,-229.841l-273.312 76.8403z"/>
   <path id="_262455720" class="fil16" d="M89.495 945.249l265.105 95.3036c30.1126,-78.5367 69.1809,-153.218 116.666,-224.268l-236.296 -160.851c-58.1015,92.2349 -108.103,188.155 -145.475,289.815z"/>
   <path id="_262464456" class="fil17" d="M6763.07 2399.18l127.636 0c22.3773,0 41.5696,1.07672 57.7501,3.31327 16.0939,2.15345 31.4992,7.45634 46.2172,15.9882 14.7168,8.53306 27.6268,20.2144 38.6433,35.0428 11.0153,14.9115 19.6232,32.0595 25.9055,51.3622 6.36893,19.3027 9.46733,42.7472 9.46733,70.2505 0,52.4389 -12.9088,95.5173 -38.8154,129.234 -25.9055,33.7167 -70.4025,50.6167 -133.66,50.6167l-133.144 0 0 -355.808zm48.9713 313.558l79.1813 0c16.0939,0 30.5531,-0.910525 43.2042,-2.89896 12.7379,-1.90534 25.5624,-7.20704 38.559,-15.7401 13.0809,-8.61616 23.8399,-22.699 32.4453,-42.2498 8.60666,-19.5508 12.8245,-45.4812 12.8245,-77.7057 0,-17.7285 -1.63586,-34.3803 -4.90639,-49.8711 -3.27053,-15.4089 -9.29401,-29.4929 -18.1595,-42.1679 -8.77879,-12.7569 -18.9347,-22.0354 -30.3809,-27.9176 -11.4475,-5.96412 -22.5495,-9.52668 -33.3938,-10.8515 -10.8444,-1.24292 -24.7872,-1.90534 -41.7417,-1.90534l-77.6321 0 0 271.308z"/>
   <path id="_2624644561" class="fil17" d="M7174.63 2754.99l-45.442 0 0 -257.474 45.442 0 0 257.474zm0 -306.268l-45.442 0 0 -49.5399 45.442 0 0 49.5399z"/>
   <path id="_26246445612" class="fil17" d="M7393.24 2569.59c-2.06679,-14.0829 -8.00479,-24.6863 -17.8164,-31.7283 -9.81159,-7.04203 -23.4968,-10.5203 -40.9677,-10.5203 -17.2988,0 -31.3271,2.81586 -41.9993,8.44996 -10.6734,5.71601 -16.0084,13.9167 -16.0084,24.7694 0,10.1891 4.30333,17.4792 12.7379,21.8704 8.52,4.38999 25.3024,9.69288 50.3472,15.9882 28.231,6.95893 49.3168,13.1723 63.4305,18.474 14.0295,5.3017 24.9605,12.8411 32.7053,22.4509 7.83147,9.60859 11.7917,23.029 11.7917,40.1783 0,22.9471 -9.81159,42.3317 -29.2626,57.9899 -19.5365,15.7401 -45.6153,23.5265 -78.1473,23.5265 -33.9969,0 -60.5042,-6.87583 -79.611,-20.7106 -19.0201,-13.8348 -30.8118,-34.6273 -35.1152,-62.2968l45.0989 -6.54462c2.3232,17.9766 9.29519,31.3971 20.8281,40.3445 11.4463,8.86308 27.5401,13.3374 48.2816,13.3374 19.7965,0 35.0297,-4.05997 45.6153,-12.0125 10.5856,-8.03565 15.9229,-17.8104 15.9229,-29.2437 0,-7.78636 -2.49653,-13.9998 -7.31625,-18.7222 -4.9052,-4.72239 -11.0165,-8.20066 -18.3316,-10.5203 -7.31507,-2.40274 -23.7544,-6.54462 -49.3156,-12.5099 -37.956,-8.78117 -63.0008,-19.3846 -75.221,-31.8114 -12.2215,-12.4256 -18.2461,-27.3383 -18.2461,-44.6514 0,-21.5392 8.86427,-39.2677 26.6806,-53.1856 17.8152,-13.9167 41.7417,-20.8756 71.8638,-20.8756 31.9301,0 56.804,6.04722 74.5325,18.1417 17.7309,12.0125 28.3165,29.9892 31.8446,53.9311l-44.3225 5.88102z"/>
   <path id="_262464456123" class="fil17" d="M7721.23 2665.93c-5.85253,32.8062 -19.2789,56.9132 -40.278,72.1559 -21.0869,15.3258 -44.8413,22.9471 -71.4353,22.9471 -38.8154,0 -68.7666,-12.2606 -89.9378,-36.7819 -21.259,-24.5213 -31.8458,-56.9951 -31.8458,-97.4226 0,-33.4686 6.11132,-60.3095 18.3328,-80.4396 12.136,-20.1313 27.4558,-34.2972 45.7874,-42.4979 18.2461,-8.11875 37.5239,-12.2606 57.6634,-12.2606 27.6268,0 51.209,6.87583 70.7456,20.6275 19.6232,13.7517 31.6725,33.9648 36.2334,60.7238l-43.894 6.54344c-4.55975,-17.313 -11.876,-30.3192 -22.1173,-39.1015 -10.157,-8.69807 -23.1525,-13.0881 -38.9021,-13.0881 -25.3902,0 -44.668,8.61497 -57.7489,25.9292 -13.0833,17.3142 -19.7098,41.5043 -19.7098,72.5702 0,31.7283 6.4544,56.2496 19.3644,73.4807 12.8233,17.2311 31.3282,25.8473 55.599,25.8473 19.4499,0 34.7709,-5.3848 45.9596,-16.1544 11.1875,-10.7696 18.2449,-26.924 21.0857,-48.4632l45.0977 5.3848z"/>
   <path id="_2624644561234" class="fil17" d="M7869.27 2491.63c36.148,0 66.098,11.3489 89.8523,33.9648 23.841,22.699 35.7182,54.9247 35.7182,96.594 0,50.6998 -12.8245,86.488 -38.5578,107.447 -25.7345,20.9587 -54.7384,31.3971 -87.0127,31.3971 -33.8236,0 -63.0862,-10.7696 -87.9589,-32.2257 -24.9593,-21.5392 -37.3529,-55.6703 -37.3529,-102.476 0,-45.3138 12.0493,-79.0305 36.0625,-101.315 24.012,-22.2028 53.791,-33.3855 89.2493,-33.3855zm0 233.533c25.9055,0 45.5286,-9.27857 59.0417,-27.6695 13.4252,-18.474 20.1384,-42.7472 20.1384,-72.8183 0,-32.2257 -7.57386,-56.4989 -22.8071,-72.8183 -15.2332,-16.3206 -33.9957,-24.5213 -56.373,-24.5213 -23.0647,0 -41.9138,8.28376 -56.7173,24.8525 -14.8035,16.5687 -22.2052,41.3381 -22.2052,74.1431 0,32.7231 7.48839,57.3275 22.5495,73.8962 15.0622,16.6506 33.8248,24.9356 56.373,24.9356z"/>
   <path id="_26246445612345" class="fil17" d="M8264.39 2754.99l-40.6234 0 0 -37.8586 -1.20493 0c-20.5693,29.2425 -48.5404,43.9058 -83.9998,43.9058 -18.6759,0 -35.8892,-4.14188 -51.8109,-12.5087 -15.9217,-8.28495 -26.5085,-19.8001 -31.758,-34.4623 -5.33613,-14.5803 -7.91931,-33.5517 -7.91931,-56.9132l0 -159.638 45.3577 0 0 142.655c0,22.8652 1.11827,39.1846 3.356,49.0437 2.3232,9.85789 8.26239,17.9766 17.8152,24.3551 9.55399,6.46152 21.0014,9.60978 34.2557,9.60978 17.2121,0 33.306,-5.71601 48.4537,-17.0661 15.1477,-11.432 22.7216,-35.1247 22.7216,-70.9949l0 -137.602 45.3565 0 0 257.474z"/>
   <path id="_262464456123456" class="fil17" d="M8478.95 2505.47l-15.5775 40.3433c-11.2741,-6.37843 -22.2907,-9.52668 -33.0496,-9.52668 -17.04,0 -29.8645,7.37324 -38.6433,21.9535 -8.69213,14.6634 -13.0821,35.2078 -13.0821,61.5525l0 135.198 -45.3553 0 0 -257.474 41.3108 0 0 38.7703 1.0328 0c14.4592,-29.7399 33.3938,-44.6514 56.7173,-44.6514 15.4932,0 31.0695,4.63929 46.6469,13.8348z"/>
   <path id="_2624644561234567" class="fil17" d="M8655.99 2569.59c-2.06679,-14.0829 -8.00479,-24.6863 -17.8164,-31.7283 -9.81159,-7.04203 -23.4968,-10.5203 -40.9677,-10.5203 -17.2988,0 -31.3271,2.81586 -41.9993,8.44996 -10.6734,5.71601 -16.0084,13.9167 -16.0084,24.7694 0,10.1891 4.30333,17.4792 12.7379,21.8704 8.52,4.38999 25.3024,9.69288 50.3472,15.9882 28.231,6.95893 49.3168,13.1723 63.4305,18.474 14.0295,5.3017 24.9605,12.8411 32.7053,22.4509 7.83147,9.60859 11.7917,23.029 11.7917,40.1783 0,22.9471 -9.81159,42.3317 -29.2626,57.9899 -19.5365,15.7401 -45.6153,23.5265 -78.1473,23.5265 -33.9969,0 -60.5042,-6.87583 -79.611,-20.7106 -19.0201,-13.8348 -30.8118,-34.6273 -35.1152,-62.2968l45.0989 -6.54462c2.3232,17.9766 9.29519,31.3971 20.8281,40.3445 11.4463,8.86308 27.5401,13.3374 48.2816,13.3374 19.7965,0 35.0297,-4.05997 45.6153,-12.0125 10.5856,-8.03565 15.9229,-17.8104 15.9229,-29.2437 0,-7.78636 -2.49653,-13.9998 -7.31625,-18.7222 -4.9052,-4.72239 -11.0165,-8.20066 -18.3316,-10.5203 -7.31507,-2.40274 -23.7544,-6.54462 -49.3156,-12.5099 -37.956,-8.78117 -63.0008,-19.3846 -75.221,-31.8114 -12.2215,-12.4256 -18.2461,-27.3383 -18.2461,-44.6514 0,-21.5392 8.86427,-39.2677 26.6806,-53.1856 17.8152,-13.9167 41.7417,-20.8756 71.8638,-20.8756 31.9301,0 56.804,6.04722 74.5325,18.1417 17.7309,12.0125 28.3165,29.9892 31.8446,53.9311l-44.3225 5.88102z"/>
   <path id="_26246445612345678" class="fil17" d="M8997.41 2637.27l-200.533 0c1.89347,28.4981 10.328,50.2855 25.3891,65.28 15.0622,15.0765 33.8236,22.6159 56.373,22.6159 17.2988,0 31.8446,-4.47428 43.6352,-13.2554 11.7051,-8.78117 20.7415,-22.1185 26.9394,-39.9302l46.6469 5.551c-7.57386,26.924 -21.4312,47.5515 -41.5696,61.8837 -20.2251,14.4141 -45.4432,21.6211 -75.652,21.6211 -40.1925,0 -71.6062,-11.8463 -94.2423,-35.539 -22.5483,-23.6927 -33.9102,-56.0846 -33.9102,-97.1745 0,-40.6757 11.0177,-73.5638 32.9641,-98.8306 21.9476,-25.1837 52.7582,-37.8586 92.6065,-37.8586 19.5365,0 38.299,4.14188 56.373,12.4256 18.0728,8.20185 33.3938,22.2847 46.045,42.0848 12.5657,19.7989 18.9347,50.2024 18.9347,91.1261zm-46.6469 -35.9533c-1.89347,-26.1785 -10.328,-45.0668 -25.3891,-56.6651 -15.0634,-11.5151 -31.5004,-17.313 -49.3168,-17.313 -21.3445,0 -38.9009,6.87583 -52.6716,20.6275 -13.7707,13.7517 -21.7754,31.5621 -23.9265,53.3506l151.304 0z"/>
   <path id="_262464456123456789" class="fil17" d="M9304.5 2491.63c36.148,0 66.098,11.3489 89.8523,33.9648 23.841,22.699 35.7182,54.9247 35.7182,96.594 0,50.6998 -12.8245,86.488 -38.5578,107.447 -25.7345,20.9587 -54.7384,31.3971 -87.0127,31.3971 -33.8236,0 -63.0862,-10.7696 -87.9589,-32.2257 -24.9593,-21.5392 -37.3529,-55.6703 -37.3529,-102.476 0,-45.3138 12.0493,-79.0305 36.0625,-101.315 24.012,-22.2028 53.791,-33.3855 89.2493,-33.3855zm0 233.533c25.9055,0 45.5286,-9.27857 59.0417,-27.6695 13.4252,-18.474 20.1384,-42.7472 20.1384,-72.8183 0,-32.2257 -7.57386,-56.4989 -22.8071,-72.8183 -15.2332,-16.3206 -33.9957,-24.5213 -56.373,-24.5213 -23.0647,0 -41.9138,8.28376 -56.7173,24.8525 -14.8035,16.5687 -22.2052,41.3381 -22.2052,74.1431 0,32.7231 7.48839,57.3275 22.5495,73.8962 15.0622,16.6506 33.8248,24.9356 56.373,24.9356z"/>
   <path id="_26246445612345678910" class="fil17" d="M9701.34 2754.99l-45.6153 0 0 -156.572c0,-26.3435 -4.9052,-44.4863 -14.7168,-54.3442 -9.89707,-9.85789 -23.4956,-14.8284 -40.9665,-14.8284 -13.5131,0 -26.2509,3.14707 -38.2136,9.52668 -12.0493,6.29533 -20.5693,15.1596 -25.6478,26.6747 -4.99186,11.5151 -7.4872,27.7526 -7.4872,48.7944l0 140.749 -45.4432 0 0 -257.474 40.881 0 0 36.3676 1.0328 0c9.55399,-14.0829 21.3445,-24.6032 35.3728,-31.6452 14.0295,-7.04203 30.2954,-10.6034 48.8004,-10.6034 14.1137,0 28.0565,2.48465 41.8272,7.29014 13.8561,4.8874 24.615,12.1775 32.4465,21.8704 7.83265,9.69169 12.7379,20.047 14.7168,31.0659 2.0656,11.0177 3.01292,25.8461 3.01292,44.6514l0 158.478z"/>
   <path id="_2624644561234567891011" class="fil17" d="M9920.21 2399.18l127.636 0c22.3773,0 41.5696,1.07672 57.7501,3.31327 16.0939,2.15345 31.4992,7.45634 46.2172,15.9882 14.7168,8.53306 27.6268,20.2144 38.6433,35.0428 11.0153,14.9115 19.6232,32.0595 25.9055,51.3622 6.36893,19.3027 9.46733,42.7472 9.46733,70.2505 0,52.4389 -12.9088,95.5173 -38.8154,129.234 -25.9055,33.7167 -70.4025,50.6167 -133.66,50.6167l-133.144 0 0 -355.808zm48.9713 313.558l79.1813 0c16.0939,0 30.5531,-0.910525 43.2042,-2.89896 12.7379,-1.90534 25.5624,-7.20704 38.559,-15.7401 13.0809,-8.61616 23.8399,-22.699 32.4453,-42.2498 8.60666,-19.5508 12.8245,-45.4812 12.8245,-77.7057 0,-17.7285 -1.63586,-34.3803 -4.90639,-49.8711 -3.27053,-15.4089 -9.29401,-29.4929 -18.1595,-42.1679 -8.77879,-12.7569 -18.9347,-22.0354 -30.3809,-27.9176 -11.4475,-5.96412 -22.5495,-9.52668 -33.3938,-10.8515 -10.8444,-1.24292 -24.7872,-1.90534 -41.7417,-1.90534l-77.6321 0 0 271.308z"/>
   <path id="_262464456123456789101112" class="fil17" d="M10518.9 2637.27l-200.533 0c1.89347,28.4981 10.328,50.2855 25.3891,65.28 15.0622,15.0765 33.8236,22.6159 56.373,22.6159 17.2988,0 31.8446,-4.47428 43.6352,-13.2554 11.7051,-8.78117 20.7415,-22.1185 26.9394,-39.9302l46.6469 5.551c-7.57386,26.924 -21.4312,47.5515 -41.5696,61.8837 -20.2251,14.4141 -45.4432,21.6211 -75.652,21.6211 -40.1925,0 -71.6062,-11.8463 -94.2423,-35.539 -22.5483,-23.6927 -33.9102,-56.0846 -33.9102,-97.1745 0,-40.6757 11.0177,-73.5638 32.9641,-98.8306 21.9476,-25.1837 52.7582,-37.8586 92.6065,-37.8586 19.5365,0 38.299,4.14188 56.373,12.4256 18.0728,8.20185 33.3938,22.2847 46.045,42.0848 12.5657,19.7989 18.9347,50.2024 18.9347,91.1261zm-46.6469 -35.9533c-1.89347,-26.1785 -10.328,-45.0668 -25.3891,-56.6651 -15.0634,-11.5151 -31.5004,-17.313 -49.3168,-17.313 -21.3445,0 -38.9009,6.87583 -52.6716,20.6275 -13.7707,13.7517 -21.7754,31.5621 -23.9265,53.3506l151.304 0z"/>
   <path id="_26246445612345678910111213" class="fil17" d="M10790.9 2497.51l-101.126 257.474 -42.3448 0 -101.644 -257.474 47.9397 0 55.1669 148.951c10.4147,28.1669 16.6969,47.3034 18.6759,57.3263l1.03399 0c2.66747,-10.3553 7.31507,-24.272 13.8561,-41.7524l62.0534 -164.525 46.3893 0z"/>
   <path id="_2624644561234567891011121314" class="fil17" d="M11064.3 2637.27l-200.533 0c1.89347,28.4981 10.328,50.2855 25.3891,65.28 15.0622,15.0765 33.8236,22.6159 56.373,22.6159 17.2988,0 31.8446,-4.47428 43.6352,-13.2554 11.7051,-8.78117 20.7415,-22.1185 26.9394,-39.9302l46.6469 5.551c-7.57386,26.924 -21.4312,47.5515 -41.5696,61.8837 -20.2251,14.4141 -45.4432,21.6211 -75.652,21.6211 -40.1925,0 -71.6062,-11.8463 -94.2423,-35.539 -22.5483,-23.6927 -33.9102,-56.0846 -33.9102,-97.1745 0,-40.6757 11.0177,-73.5638 32.9641,-98.8306 21.9476,-25.1837 52.7582,-37.8586 92.6065,-37.8586 19.5365,0 38.299,4.14188 56.373,12.4256 18.0728,8.20185 33.3938,22.2847 46.045,42.0848 12.5657,19.7989 18.9347,50.2024 18.9347,91.1261zm-46.6469 -35.9533c-1.89347,-26.1785 -10.328,-45.0668 -25.3891,-56.6651 -15.0634,-11.5151 -31.5004,-17.313 -49.3168,-17.313 -21.3445,0 -38.9009,6.87583 -52.6716,20.6275 -13.7707,13.7517 -21.7754,31.5621 -23.9265,53.3506l151.304 0z"/>
   <polygon id="_262464456123456789101112131415" class="fil17" points="11164.4,2754.99 11118.9,2754.99 11118.9,2399.18 11164.4,2399.18 "/>
   <path id="_26246445612345678910111213141516" class="fil17" d="M11342.6 2491.63c36.148,0 66.098,11.3489 89.8523,33.9648 23.841,22.699 35.7182,54.9247 35.7182,96.594 0,50.6998 -12.8245,86.488 -38.5578,107.447 -25.7345,20.9587 -54.7384,31.3971 -87.0127,31.3971 -33.8236,0 -63.0862,-10.7696 -87.9589,-32.2257 -24.9593,-21.5392 -37.3529,-55.6703 -37.3529,-102.476 0,-45.3138 12.0493,-79.0305 36.0625,-101.315 24.012,-22.2028 53.791,-33.3855 89.2493,-33.3855zm0 233.533c25.9055,0 45.5286,-9.27857 59.0417,-27.6695 13.4252,-18.474 20.1384,-42.7472 20.1384,-72.8183 0,-32.2257 -7.57386,-56.4989 -22.8071,-72.8183 -15.2332,-16.3206 -33.9957,-24.5213 -56.373,-24.5213 -23.0647,0 -41.9138,8.28376 -56.7173,24.8525 -14.8035,16.5687 -22.2052,41.3381 -22.2052,74.1431 0,32.7231 7.48839,57.3275 22.5495,73.8962 15.0622,16.6506 33.8248,24.9356 56.373,24.9356z"/>
   <path id="_2624644561234567891011121314151617" class="fil17" d="M11563.7 2530.73c17.0412,-26.0123 42.5157,-39.1015 76.426,-39.1015 35.1152,0 62.9141,12.2606 83.2258,36.7819 20.3105,24.5213 30.4676,56.4158 30.4676,95.7654 0,41.9186 -11.1887,75.221 -33.7393,99.8254 -22.5483,24.6863 -50.1762,37.03 -82.9658,37.03 -28.7462,0 -51.8121,-11.0177 -69.1109,-32.9712l-1.20493 0 0 125.921 -45.4432 0 0 -356.471 41.3974 0 0 33.2205 0.947326 0zm70.4013 194.431c21.1724,0 38.73,-8.44996 52.5861,-25.433 13.8561,-16.8999 20.7415,-42.0836 20.7415,-75.5522 0,-31.5633 -6.62653,-55.8353 -20.0529,-72.8183 -13.3397,-16.983 -30.4676,-25.5161 -51.2957,-25.5161 -21.5155,0 -39.1597,9.52787 -53.0158,28.415 -13.9428,18.9715 -20.8281,43.4927 -20.8281,73.565 0,31.8933 6.62772,56.0834 19.882,72.569 13.3397,16.4856 30.6397,24.7706 51.983,24.7706z"/>
   <path id="_262464456123456789101112131415161718" class="fil17" d="M12170.7 2754.99l-45.3565 0 0 -162.62c0,-11.9294 -0.860666,-22.2016 -2.49653,-30.7347 -1.72014,-8.44996 -6.02348,-15.9882 -12.9955,-22.5328 -6.9708,-6.54462 -17.9019,-9.85789 -32.7053,-9.85789 -17.8152,0 -33.135,6.04722 -46.1305,17.9766 -12.91,12.0113 -19.3644,31.3971 -19.3644,58.238l0 149.53 -45.442 0 0 -167.424c0,-22.3678 -4.04572,-37.6936 -12.2226,-45.8955 -8.17573,-8.28376 -19.7087,-12.4256 -34.6842,-12.4256 -19.4511,0 -35.4594,6.54462 -48.024,19.4677 -12.4803,12.923 -18.7625,37.1131 -18.7625,72.5702l0 133.707 -45.3565 0 0 -257.474 40.7944 0 0 35.8714 1.0328 0c18.1595,-27.8357 44.7534,-41.7524 79.9553,-41.7524 19.6232,0 35.8025,3.81067 48.5404,11.3489 12.6524,7.45634 21.8609,18.8053 27.5413,33.7998 19.8808,-30.0723 47.3354,-45.1488 82.4506,-45.1488 27.7989,0 48.5416,7.20704 62.4832,21.6211 13.8585,14.4153 20.7426,36.0364 20.7426,64.7826l0 176.952z"/>
   <path id="_26246445612345678910111213141516171819" class="fil17" d="M12470.8 2637.27l-200.533 0c1.89347,28.4981 10.328,50.2855 25.3891,65.28 15.0622,15.0765 33.8236,22.6159 56.373,22.6159 17.2988,0 31.8446,-4.47428 43.6352,-13.2554 11.7051,-8.78117 20.7415,-22.1185 26.9394,-39.9302l46.6469 5.551c-7.57386,26.924 -21.4312,47.5515 -41.5696,61.8837 -20.2251,14.4141 -45.4432,21.6211 -75.652,21.6211 -40.1925,0 -71.6062,-11.8463 -94.2423,-35.539 -22.5483,-23.6927 -33.9102,-56.0846 -33.9102,-97.1745 0,-40.6757 11.0177,-73.5638 32.9641,-98.8306 21.9476,-25.1837 52.7582,-37.8586 92.6065,-37.8586 19.5365,0 38.299,4.14188 56.373,12.4256 18.0728,8.20185 33.3938,22.2847 46.045,42.0848 12.5657,19.7989 18.9347,50.2024 18.9347,91.1261zm-46.6469 -35.9533c-1.89347,-26.1785 -10.328,-45.0668 -25.3891,-56.6651 -15.0634,-11.5151 -31.5004,-17.313 -49.3168,-17.313 -21.3445,0 -38.9009,6.87583 -52.6716,20.6275 -13.7707,13.7517 -21.7754,31.5621 -23.9265,53.3506l151.304 0z"/>
   <path id="_2624644561234567891011121314151617181920" class="fil17" d="M12744 2754.99l-45.6153 0 0 -156.572c0,-26.3435 -4.9052,-44.4863 -14.7168,-54.3442 -9.89707,-9.85789 -23.4956,-14.8284 -40.9665,-14.8284 -13.5131,0 -26.2509,3.14707 -38.2136,9.52668 -12.0493,6.29533 -20.5693,15.1596 -25.6478,26.6747 -4.99186,11.5151 -7.4872,27.7526 -7.4872,48.7944l0 140.749 -45.4432 0 0 -257.474 40.881 0 0 36.3676 1.0328 0c9.55399,-14.0829 21.3445,-24.6032 35.3728,-31.6452 14.0295,-7.04203 30.2954,-10.6034 48.8004,-10.6034 14.1137,0 28.0565,2.48465 41.8272,7.29014 13.8561,4.8874 24.615,12.1775 32.4465,21.8704 7.83265,9.69169 12.7379,20.047 14.7168,31.0659 2.0656,11.0177 3.01292,25.8461 3.01292,44.6514l0 158.478z"/>
   <path id="_262464456123456789101112131415161718192021" class="fil17" d="M12917 2754.49c-13.4252,2.56894 -24.786,3.89377 -33.9945,3.89377 -19.8808,0 -34.3412,-3.39637 -43.3776,-10.1072 -9.12306,-6.70963 -14.6313,-15.2427 -16.6969,-25.598 -1.98013,-10.3553 -3.01174,-24.6863 -3.01174,-43.1603l0 -148.289 -32.9629 0 0 -33.7167 32.9629 0 0 -64.1202 45.442 -26.4266 0 90.5468 45.3565 0 0 33.7167 -45.3565 0 0 150.691c0,12.923 1.37825,22.1185 4.13238,27.5864 2.75294,5.3848 9.81041,8.11756 21.0857,8.11756 6.53987,0 13.2531,-0.662416 20.1384,-1.98725l6.28227 38.8522z"/>
   <path id="_262468656" class="fil17" d="M979.447 2319.03l255.328 0 0 -1544.91 179.572 0c86.5118,0.465353 163.673,12.1063 231.947,34.9217 68.7417,23.2807 128.131,54.9425 179.104,95.4508 50.5051,40.0429 92.5922,86.6044 126.261,138.754 33.2015,52.1481 58.4541,108.022 74.8222,166.689 16.8346,59.1331 24.7848,118.733 24.7848,178.797l0 41.9055c0,38.1803 -4.67609,80.5512 -13.5629,127.113 -9.35218,46.5614 -23.8482,94.5201 -43.0214,143.875 -19.1733,48.8894 -44.4258,96.3827 -74.3544,142.012 -30.3952,46.0961 -66.8708,87.0709 -108.958,123.389 -42.0872,36.7831 -90.2548,65.6516 -145.435,87.0697 -54.7146,21.4181 -115.973,32.5925 -184.249,33.0591 -3.27291,0 -7.48127,-0.46654 -12.6263,-1.39725 -5.14382,-0.930706 -9.35218,-1.39725 -12.6263,-1.39725l-143.095 0 0 234.67 143.095 0c99.607,-3.25866 188.925,-18.1583 267.489,-44.2335 78.5616,-26.074 147.771,-60.0638 207.628,-102.9 59.8584,-42.3709 111.765,-90.3296 155.255,-142.944 43.0238,-53.0799 79.4982,-107.557 108.493,-164.362 29.4597,-56.8051 52.3736,-112.678 69.676,-167.156 16.8358,-54.4772 28.9944,-104.763 36.4768,-150.859 7.48127,-46.0961 11.2231,-84.7418 10.7554,-115.938l0 -36.3177c-0.935455,-106.16 -17.3024,-203.008 -49.1007,-290.544 -32.2684,-87.5351 -75.2899,-165.293 -129.536,-232.807 -54.2457,-67.5142 -115.038,-124.319 -182.377,-170.881 -67.3397,-46.0961 -136.55,-81.4819 -207.631,-105.229 -71.5481,-23.7461 -139.823,-35.8524 -205.76,-35.8524l-558.355 0 0 1760.02z"/>
   <path id="_262469328" class="fil17" d="M2632.46 1793.92l88.1358 158.956 755.446 -411.268c-27.6992,-49.6218 -59.5961,-95.8782 -95.6894,-138.771 -36.5136,-42.8932 -76.8035,-80.3197 -121.711,-113.12 -44.4875,-32.38 -93.5906,-57.6112 -146.472,-76.1137 -53.3008,-18.0823 -110.799,-27.3348 -172.494,-27.755 -51.2019,0 -103.663,7.14887 -156.965,21.8669 -53.7198,14.2977 -104.922,36.586 -154.027,66.8625 -49.5233,29.8574 -93.5918,68.5458 -132.622,115.222 -39.0315,46.6778 -70.0891,101.766 -92.7525,166.106 -23.0825,64.3398 -34.835,137.51 -35.2541,220.352 0.419055,80.3197 15.1097,154.331 43.6482,221.194 28.5385,66.8625 68.8295,124.894 120.452,174.096 51.6222,48.7802 112.058,87.0472 181.307,113.96 69.2486,26.9133 144.375,40.3706 226.214,40.7908 74.7058,-0.420242 141.437,-10.9334 200.614,-30.6979 59.5961,-20.1847 111.218,-47.098 155.287,-80.74 44.4863,-33.2217 81,-70.647 110.379,-111.438 29.3778,-40.7908 51.2031,-82.4221 65.8914,-124.474 14.6895,-42.473 21.8241,-82.0019 21.8241,-119.428l0 -47.9385 -198.935 -17.6621c-13.4288,53.8266 -28.1183,101.345 -44.0673,143.398 -16.3669,41.6313 -36.9327,76.9542 -61.6949,105.971 -25.1813,29.0157 -57.4984,50.8826 -97.3692,66.0208 -40.2899,15.1394 -90.6525,22.7085 -151.928,22.7085 -59.1758,-0.420242 -111.218,-10.5132 -156.125,-30.6979 -44.9078,-20.1847 -82.2607,-47.098 -112.898,-80.74 -30.2171,-34.0622 -52.8817,-72.3292 -67.9902,-114.382 -15.5288,-42.0515 -23.0825,-85.365 -23.0825,-129.94 0,-50.4623 7.55368,-98.8223 23.0825,-145.92 15.1085,-47.098 37.7731,-89.571 67.9902,-126.996 30.6373,-37.4265 67.9902,-67.2839 112.898,-89.571 44.9066,-21.8669 96.949,-33.2217 156.125,-33.642 39.4506,0.420242 71.7677,4.2048 97.7883,11.7751 26.0206,7.14887 47.0054,16.8204 62.9545,28.1741 16.3681,11.3549 29.798,23.549 39.8708,35.7444 10.4918,12.1953 20.1443,23.1288 28.5385,32.8003l-536.367 305.298z"/>
   <path id="_262470648" class="fil17" d="M3447.42 1205.84l391.083 981.493c12.1953,29.4372 26.9133,54.2469 44.9956,74.0113 18.0823,19.7645 37.4265,34.4836 58.8731,44.5754 21.4466,10.0929 42.8932,15.1394 65.1803,15.1394 23.1288,0 45.4159,-5.04647 67.7041,-15.1394 21.8669,-10.0918 42.0515,-24.8109 60.5541,-44.5754 18.5037,-19.7645 33.642,-44.5742 45.8373,-74.0113l373.421 -981.493 -232.127 0 -305.297 857.861 -338.098 -857.861 -232.127 0z"/>
   <path id="_262471224" class="fil17" d="M5394.78 723.633l0 946.17c0,63.4982 -5.46671,123.212 -17.2406,179.561 -11.7751,55.929 -30.2776,105.551 -55.5088,148.444 -25.2312,42.8932 -58.0326,76.9554 -98.402,101.345 -40.7908,24.3907 -89.571,37.0063 -146.762,37.4265 -32.8003,0.420242 -68.9649,-2.94407 -108.494,-10.0929 -39.5289,-7.56911 -77.7959,-22.7073 -115.643,-45.4159 -37.8468,-22.7085 -70.647,-56.7707 -98.402,-102.187 -27.7538,-44.9956 -46.2563,-105.129 -55.929,-180.403 -0.420242,-4.2048 -1.26191,-9.25127 -2.52264,-15.1382 -1.68216,-5.88814 -2.52383,-10.9334 -2.52383,-15.1394 0.42143,-58.0314 10.5132,-109.756 29.4372,-155.172 19.343,-45.4159 44.9956,-83.684 76.9542,-114.802 32.38,-31.5384 67.7041,-55.0874 106.393,-71.4887 39.1075,-15.9787 78.2161,-24.3895 117.745,-24.3895 41.6313,0.420242 82.0019,5.46671 121.109,15.1382 39.1087,9.6727 74.0113,21.4466 105.131,35.3241 31.1181,13.8775 55.929,27.3336 74.0113,40.3694l0 -214.465c-16.8204,-12.1953 -37.8468,-23.549 -63.0779,-34.0622 -24.8109,-10.5132 -58.0314,-19.343 -99.2425,-26.0717 -41.2111,-6.72863 -95.0377,-10.0929 -160.639,-10.5132 -41.2099,0 -84.9448,7.14887 -130.781,21.0264 -45.8373,13.8763 -90.4115,35.3229 -134.146,63.9184 -43.7337,28.1752 -83.6829,64.3398 -119.427,107.233 -35.3241,43.3135 -63.9196,94.196 -84.9448,152.227 -21.4466,58.4529 -32.38,124.474 -32.8015,198.065 0.42143,3.78456 1.26191,8.83103 2.52383,14.2977 1.68216,5.46671 2.52264,10.9334 2.52264,15.9799 0,50.4623 5.88814,100.925 18.0823,151.387 12.1953,50.4623 31.5396,98.8223 58.0326,145.08 26.9121,45.8361 61.816,87.4686 104.709,124.053 43.3135,37.0051 95.8782,66.8625 157.694,89.571 61.8172,22.7073 134.146,36.1646 216.569,39.9491l20.1847 0c66.022,-0.420242 124.894,-10.0929 177.038,-29.0157 52.1445,-18.924 98.402,-44.1551 137.931,-76.1149 39.5289,-31.9586 73.1709,-67.703 100.925,-107.232 28.1752,-39.5289 50.8826,-79.8995 68.5446,-121.531 17.2418,-41.6313 30.2776,-81.5805 38.267,-119.847 8.41078,-37.8468 12.1953,-71.9089 12.1953,-101.346l0 -1052.14 -219.511 0z"/>
   <path id="_261262736" class="fil17" d="M5801.49 955.348c0.420242,26.0717 6.72863,47.9385 18.924,65.6006 11.7739,17.2418 27.3336,30.6979 46.6778,39.5289 18.9228,8.83103 39.1075,13.4573 60.5541,13.4573 20.6061,0 40.3706,-4.62623 58.8731,-13.4573 18.9228,-8.83103 34.0622,-22.2871 46.2575,-39.5289 11.7739,-17.6621 18.0823,-39.5289 18.5025,-65.6006 -0.420242,-24.3907 -7.14887,-44.5754 -20.1847,-60.5553 -13.037,-15.9799 -29.0157,-28.1752 -47.9397,-36.1646 -18.9228,-7.98936 -37.4265,-11.7751 -55.5088,-11.7751 -23.9693,0 -44.9956,3.78574 -63.9184,11.7751 -18.924,7.98936 -34.0622,20.1847 -44.9956,36.1646 -11.3549,15.9799 -16.8216,36.1646 -17.2418,60.5553zm17.6621 1339.78l196.803 0 0 -1087.46 -196.803 0 0 1087.46z"/>
   <path id="_2612627361" class="fil17" d="M6180.69 2102.95l0 194.702 444.069 0c10.5132,0 23.1288,0.840485 37.8468,2.52264 14.718,1.26191 29.8574,2.1024 45.4159,2.52264 36.1646,0.42143 74.4328,-2.52264 114.802,-8.83103 40.3694,-6.3072 78.6376,-19.343 115.222,-38.6872 36.5848,-19.3442 66.8625,-48.3599 91.2532,-87.0472 23.9693,-38.2682 38.267,-89.571 42.0515,-153.911 0.420242,-59.2934 -10.5132,-110.176 -32.8003,-152.649 -22.2871,-42.8932 -59.2934,-80.3185 -111.018,-113.54 -51.7242,-33.2205 -121.53,-64.7601 -209.418,-95.458 -22.7085,-7.14887 -47.9397,-13.8775 -76.5352,-20.1847 -28.1741,-6.72863 -57.1898,-13.8775 -85.7853,-21.8669 -29.0157,-7.99054 -55.929,-17.6621 -80.74,-29.4372 -24.3907,-11.7739 -44.1551,-26.0717 -59.2934,-43.3135 -15.1394,-16.8204 -22.7085,-37.8468 -23.1288,-62.2362 0.420242,-24.3907 9.25127,-43.3135 26.9133,-56.3505 17.6621,-13.4561 41.2111,-22.7073 70.647,-27.7538 29.4372,-5.04647 62.6577,-7.56911 99.2425,-7.14887l428.931 0 0 -176.618 -411.269 0c-58.4517,-0.420242 -113.12,2.52264 -164.423,9.25127 -51.304,6.72863 -96.7199,20.1847 -135.829,39.5289 -39.1075,19.7645 -69.8054,48.3599 -92.0936,86.6269 -22.2871,37.8468 -33.642,87.8888 -34.0622,150.126 0.420242,58.4517 13.4573,108.914 39.1087,150.545 26.0717,42.0527 62.6577,76.9554 110.176,105.131 47.098,27.7538 103.448,50.4623 168.629,68.1244 50.8826,13.0358 97.9806,25.6514 141.715,37.8468 43.3135,12.1942 81.5805,25.6514 114.381,39.9491 32.8003,14.2977 58.4529,31.1181 76.9554,50.4623 18.0823,18.9228 27.3336,42.0515 27.7538,68.9649 -0.420242,26.0728 -7.98936,45.8373 -22.2871,59.2934 -14.2977,13.4573 -32.38,22.7085 -54.6671,27.7538 -22.2883,4.62623 -45.4171,7.14887 -69.3863,6.72863 -11.3537,0 -23.1288,-0.840485 -35.3241,-2.52264 -12.1942,-1.26191 -23.9693,-2.1024 -35.3229,-2.52383l-461.731 0z"/>
   <path id="_261261512" class="fil17" d="M7143.14 1761.01c0,39.5289 5.04647,82.0019 15.9799,128.259 10.9334,46.2563 28.5955,92.0936 52.985,137.93 24.3907,45.8373 56.3505,88.3091 96.7199,126.998 40.3706,39.1087 89.571,70.647 148.023,95.8782 58.4529,24.8109 126.998,39.1087 206.055,43.3135l229.603 0 0 -194.28 -158.956 0c-4.2048,0.420242 -9.67151,1.26191 -16.8204,2.52383 -6.72863,1.68216 -13.0358,2.52264 -18.5037,2.52264 -48.7802,-0.420242 -91.252,-7.98936 -127.838,-22.7085 -36.5848,-15.1382 -67.2827,-34.9027 -92.5139,-59.7136 -25.2312,-24.8109 -45.4159,-52.1445 -60.9755,-82.0007 -15.5585,-30.2776 -26.9133,-60.9755 -33.642,-91.6734 -7.14768,-31.1193 -10.512,-60.135 -10.512,-87.0484 0.420242,-53.8266 8.83103,-100.503 25.2312,-139.192 16.4001,-39.1087 37.8468,-71.9089 64.7601,-98.402 26.9133,-26.0717 56.3493,-47.098 88.3091,-62.6565 31.9586,-15.5597 63.9184,-26.4931 95.458,-33.2217 31.9598,-6.72863 60.9755,-10.0929 87.0472,-9.67151l158.956 0 0 -194.28 -211.941 0c-75.6935,0.420242 -142.557,13.0358 -201.429,36.5848 -58.4529,23.9693 -108.915,55.5088 -151.387,95.0377 -42.473,39.5289 -76.9554,83.2626 -104.289,130.361 -27.3336,47.5194 -47.5194,95.0377 -60.5553,142.977 -13.4561,47.9385 -19.7645,92.0936 -19.7645,132.463z"/>
   <path id="_2612615121" class="fil17" d="M7925.17 1720.64c0,82.0019 11.3537,158.536 34.0622,229.604 22.7085,71.0673 58.0314,133.725 105.971,187.552 47.9385,54.2469 108.914,96.2984 183.767,126.576 74.4316,30.6979 163.162,46.2575 266.609,46.6778 71.0685,-0.420242 135.407,-12.1953 192.598,-34.9027 57.191,-23.1288 107.233,-53.8266 150.126,-92.9353 43.3135,-39.1087 79.0566,-83.2626 108.074,-132.043 28.5943,-49.2016 50.4623,-100.084 64.7601,-153.069 14.718,-52.5659 21.8669,-104.289 21.8669,-154.751 -0.42143,-82.8424 -11.7751,-155.593 -34.0622,-218.671 -22.2883,-62.6577 -52.5647,-116.905 -91.2532,-161.9 -38.267,-44.5754 -82.4221,-81.5805 -131.202,-109.756 -49.2004,-28.1752 -100.925,-49.2004 -154.751,-62.6577 -54.2469,-13.4561 -108.074,-19.7645 -161.48,-19.7645 -73.1697,0.42143 -142.976,13.037 -208.998,38.2682 -66.4422,25.6514 -125.314,62.2362 -177.459,109.756 -51.7242,47.9385 -92.5151,105.97 -122.792,173.254 -29.8574,67.703 -44.9956,143.818 -45.8373,228.763zm211.942 0c0,-40.3694 5.88696,-81.1602 17.6621,-122.792 12.1942,-41.2111 31.5384,-79.4781 58.4517,-114.802 26.4931,-34.9027 61.816,-63.4982 105.971,-84.9448 43.7337,-21.4466 97.5604,-32.8003 161.059,-33.2217 76.5352,0.42143 141.295,15.5597 194.28,44.9956 52.9862,29.8574 92.9353,71.0685 120.269,124.474 27.3336,52.9862 41.2111,115.222 41.2111,186.291 -0.420242,76.534 -9.67151,140.454 -28.1741,191.756 -18.5037,51.304 -44.1551,91.6734 -76.9554,121.951 -32.38,29.8574 -70.2268,50.8838 -113.12,63.9196 -42.8932,12.6156 -88.7293,18.9228 -137.511,18.5025 -54.2469,-0.420242 -100.925,-8.83103 -140.454,-25.6514 -39.1075,-16.4001 -71.9089,-38.6884 -97.9806,-66.4422 -26.4931,-28.1752 -47.098,-59.2934 -62.2374,-93.7758 -15.5585,-34.4824 -26.4919,-69.8065 -32.8003,-105.971 -6.72863,-36.5848 -9.67151,-71.0685 -9.67151,-104.289z"/>
   <path id="_261262112" class="fil17" d="M9187.05 1204.63l0 625.734c0.420242,88.7293 11.7739,164.843 34.4824,227.921 23.1288,63.0779 55.0874,114.382 96.7199,153.911 41.6313,39.9491 90.8317,68.9649 147.602,87.4674 56.7695,18.5037 119.427,27.755 187.972,27.755 67.7041,-0.420242 128.68,-12.6156 183.347,-36.1646 54.2469,-23.9704 100.925,-56.7707 140.033,-98.402 38.6872,-42.0515 68.5446,-90.4115 89.1496,-145.5 21.0264,-54.6671 31.5396,-113.54 31.5396,-176.618l0 -666.103 -196.804 0 0 643.395c0,31.5396 -5.46671,63.4993 -16.4001,96.7199 -10.5132,33.2217 -26.4919,63.9196 -47.5183,92.0936 -21.0264,28.5955 -47.098,51.7242 -77.7959,68.9661 -30.6979,17.6609 -65.6017,26.9133 -105.551,27.3336 -55.929,-0.420242 -103.869,-11.3537 -144.658,-33.642 -40.7908,-21.8669 -71.9089,-52.5647 -94.1972,-92.5139 -22.2871,-39.9491 -33.2205,-87.0484 -33.6408,-141.295l0 -661.057 -194.28 0z"/>
   <path id="_2612621121" class="fil17" d="M10256.7 1204.63l0 1087.46 196.804 0 0 -497.054c-0.42143,-22.7085 0.420242,-50.8826 2.1024,-84.1043 2.1024,-33.2205 7.56911,-68.5446 16.4001,-105.55 8.83103,-37.0063 23.1288,-72.7506 43.7337,-106.813 20.1847,-34.0622 48.7802,-63.0779 84.9448,-87.4674 36.586,-23.9704 83.2638,-39.9503 140.454,-47.5194l52.9862 0 0 -194.28 -75.6935 0c-35.3241,0.42143 -67.2839,5.04647 -95.8782,14.7192 -29.0169,9.25127 -54.2481,21.4454 -76.5352,36.1646 -21.8669,14.718 -40.7908,29.8562 -55.929,45.8361 -15.5597,15.9799 -27.7538,31.1181 -36.5848,44.5754l0 -105.971 -196.804 0z"/>
   <path id="_262456296" class="fil17" d="M10843.1 2102.39l0 194.702 444.069 0c10.5132,0 23.1288,0.840485 37.8468,2.52264 14.718,1.26191 29.8574,2.1024 45.4159,2.52264 36.1646,0.42143 74.4328,-2.52264 114.802,-8.83103 40.3694,-6.3072 78.6376,-19.343 115.222,-38.6872 36.5848,-19.3442 66.8625,-48.3599 91.2532,-87.0472 23.9693,-38.2682 38.267,-89.571 42.0515,-153.911 0.420242,-59.2934 -10.5132,-110.176 -32.8003,-152.649 -22.2871,-42.8932 -59.2934,-80.3185 -111.018,-113.54 -51.7242,-33.2205 -121.53,-64.7601 -209.418,-95.458 -22.7085,-7.14887 -47.9397,-13.8775 -76.5352,-20.1847 -28.1741,-6.72863 -57.1898,-13.8775 -85.7853,-21.8669 -29.0157,-7.99054 -55.929,-17.6621 -80.74,-29.4372 -24.3907,-11.7739 -44.1551,-26.0717 -59.2934,-43.3135 -15.1394,-16.8204 -22.7085,-37.8468 -23.1288,-62.2362 0.420242,-24.3907 9.25127,-43.3135 26.9133,-56.3505 17.6621,-13.4561 41.2111,-22.7073 70.647,-27.7538 29.4372,-5.04647 62.6577,-7.56911 99.2425,-7.14887l428.931 0 0 -176.618 -411.269 0c-58.4517,-0.420242 -113.12,2.52264 -164.423,9.25127 -51.304,6.72863 -96.7199,20.1847 -135.829,39.5289 -39.1075,19.7645 -69.8054,48.3599 -92.0936,86.6269 -22.2871,37.8468 -33.642,87.8888 -34.0622,150.126 0.420242,58.4517 13.4573,108.914 39.1087,150.545 26.0717,42.0527 62.6577,76.9554 110.176,105.131 47.098,27.7538 103.448,50.4623 168.629,68.1244 50.8826,13.0358 97.9806,25.6514 141.715,37.8468 43.3135,12.1942 81.5805,25.6514 114.381,39.9491 32.8003,14.2977 58.4529,31.1181 76.9554,50.4623 18.0823,18.9228 27.3336,42.0515 27.7538,68.9649 -0.420242,26.0728 -7.98936,45.8373 -22.2871,59.2934 -14.2977,13.4573 -32.38,22.7085 -54.6671,27.7538 -22.2883,4.62623 -45.4171,7.14887 -69.3863,6.72863 -11.3537,0 -23.1288,-0.840485 -35.3241,-2.52264 -12.1942,-1.26191 -23.9693,-2.1024 -35.3229,-2.52383l-461.731 0z"/>
   <path id="_2624562961" class="fil17" d="M12054.1 1797.51l88.3103 158.956 756.935 -411.268c-27.7538,-49.6218 -59.7136,-95.8782 -95.8782,-138.771 -36.586,-42.8932 -76.9554,-80.3197 -121.951,-113.12 -44.5754,-32.38 -93.7758,-57.6112 -146.761,-76.1137 -53.4064,-18.0823 -111.018,-27.3348 -172.835,-27.755 -51.3028,0 -103.868,7.14887 -157.274,21.8669 -53.8266,14.2977 -105.129,36.586 -154.331,66.8625 -49.6207,29.8574 -93.7758,68.5458 -132.883,115.222 -39.1087,46.6778 -70.228,101.766 -92.9353,166.106 -23.1288,64.3398 -34.9039,137.51 -35.3241,220.352 0.420242,80.3197 15.1394,154.331 43.7349,221.194 28.5943,66.8625 68.9649,124.894 120.689,174.096 51.7231,48.7802 112.278,87.0472 181.665,113.96 69.3851,26.9133 144.658,40.3706 226.659,40.7908 74.853,-0.420242 141.715,-10.9334 201.009,-30.6979 59.7136,-20.1847 111.438,-47.098 155.593,-80.74 44.5742,-33.2217 81.1602,-70.647 110.596,-111.438 29.436,-40.7908 51.304,-82.4221 66.022,-124.474 14.718,-42.473 21.8669,-82.0019 21.8669,-119.428l0 -47.9385 -199.327 -17.6621c-13.4561,53.8266 -28.1741,101.345 -44.1539,143.398 -16.4001,41.6313 -37.0063,76.9542 -61.8172,105.971 -25.2312,29.0157 -57.6112,50.8826 -97.5604,66.0208 -40.3694,15.1394 -90.8317,22.7085 -152.229,22.7085 -59.2922,-0.420242 -111.437,-10.5132 -156.432,-30.6979 -44.9956,-20.1847 -82.4221,-47.098 -113.12,-80.74 -30.2776,-34.0622 -52.9862,-72.3292 -68.1244,-114.382 -15.5597,-42.0515 -23.1288,-85.365 -23.1288,-129.94 0,-50.4623 7.56911,-98.8223 23.1288,-145.92 15.1382,-47.098 37.8468,-89.571 68.1244,-126.996 30.6979,-37.4265 68.1244,-67.2839 113.12,-89.571 44.9956,-21.8669 97.1401,-33.2217 156.432,-33.642 39.5289,0.420242 71.9089,4.2048 97.9818,11.7751 26.0717,7.14887 47.098,16.8204 63.0779,28.1741 16.4001,11.3549 29.8574,23.549 39.9491,35.7444 10.5132,12.1953 20.1847,23.1288 28.5955,32.8003l-537.425 305.298z"/>
  </g>
 </g>
</svg>
