<?xml version="1.0" encoding="UTF-8"?> <svg xmlns="http://www.w3.org/2000/svg" version="1.1" id="Layer_1" x="0" y="0" viewBox="39 341 528 109" xml:space="preserve"><style>.st0{fill:#122b50}</style><path class="st0" d="M119.6 446.97H39.38v-18.16l53.05-66.35H40.81V344.3h78.51v16.87l-53.77 67.64h54.06v18.16zM199.68 362.46H145.2v21.59h50.05v18.16H145.2v26.6h56.92v18.16h-77.94V344.29h75.51v18.17zM270.61 344.29h20.02v102.68h-21.45l-41.9-73.22h-.29v73.22h-20.02V344.29h22.6l40.76 71.5h.29v-71.5zM348.11 391.63h42.9v55.34h-14.3l-2.15-12.87c-5.43 6.29-13.3 15.59-32.03 15.59-24.74 0-47.19-17.73-47.19-53.77 0-27.89 15.44-54.34 49.91-54.34h.29c31.46 0 43.9 20.45 45.05 34.61h-21.45c0-4-7.29-16.87-22.45-16.87-15.3 0-29.46 10.58-29.46 36.9 0 28.03 15.3 35.32 29.89 35.32 4.72 0 20.45-1.86 24.88-22.59h-23.88v-17.32zM472.81 362.46h-54.48v21.59h50.05v18.16h-50.05v26.6h56.92v18.16H397.3V344.29h75.51v18.17zM480.67 344.29h51.91c27.31 0 32.32 20.16 32.32 29.03 0 11.3-5.72 21.02-15.87 24.45 8.44 3.72 13.01 6.87 13.01 26.03 0 15.02 0 18.73 4.58 20.45v2.72h-23.74c-1.43-4.86-2.29-10.15-2.29-20.74 0-14.01-.86-19.45-16.73-19.45h-22.17v40.18h-21.02V344.29zm46.19 45.19c11.15 0 16.59-3.86 16.59-14.01 0-5.43-2.43-13.44-15.02-13.44h-26.74v27.46h25.17z"></path></svg> 