<svg xmlns="http://www.w3.org/2000/svg" viewBox="0 0 429.29 409.53"><path d="M257.21,155.57H194.68a68.88,68.88,0,0,0-68.88,68.88v11A68.87,68.87,0,0,0,188.15,304l17.57,44.8,9.95-43.52c4.52-.07,9.89-.38,15.7-.95h25.84a68.88,68.88,0,0,0,68.88-68.88v-11A68.88,68.88,0,0,0,257.21,155.57Z" transform="translate(-9.64 -21.55)" style="fill:#ffecb0"/><path d="M321.27,404.65H276.48v-9.24h44.79c16.21,0,35.16-12.65,41.39-27.61l1.3-3.12c7-16.76,11.4-27.87,12.3-30.42l.13-.37,0-.06.2.06h8.89v1.05c0,1,0,2-13,33.28l-1.31,3.13C363.55,389.7,341.16,404.65,321.27,404.65Z" transform="translate(-9.64 -21.55)" style="fill:#15baac"/><path d="M210.72,21.55C125,21.55,55.34,91.65,55.34,177.81V204.1H78V177.81c0-73.65,59.56-133.57,132.77-133.57h13.57V21.55Z" transform="translate(-9.64 -21.55)" style="fill:#15baac"/><path d="M237.86,21.55H224.29V44.24h13.57c73.21,0,132.78,59.92,132.78,133.57V204.1h22.6V177.81C393.24,91.65,323.53,21.55,237.86,21.55Z" transform="translate(-9.64 -21.55)" style="fill:#0a9b86"/><path d="M430.17,206.88c-11.68-14.59-31-15.88-31-15.88A37.45,37.45,0,0,0,380,191V361.54a37.46,37.46,0,0,0,19.17,0s19.33-1.28,31-15.88S441.86,221.48,430.17,206.88Z" transform="translate(-9.64 -21.55)" style="fill:#375560"/><path d="M356.62,224.42V328.1c0,17.12,9.53,29.6,23.37,33.44V191C366.15,194.83,356.62,207.31,356.62,224.42Z" transform="translate(-9.64 -21.55)" style="fill:#0e2d38"/><path d="M49.41,191s-19.33,1.29-31,15.88-11.66,124.17,0,138.77,31,15.88,31,15.88a37.42,37.42,0,0,0,19.16,0V191A37.41,37.41,0,0,0,49.41,191Z" transform="translate(-9.64 -21.55)" style="fill:#415b66"/><path d="M68.57,191V361.54C82.41,357.7,92,345.22,92,328.1V224.42C92,207.31,82.41,194.83,68.57,191Z" transform="translate(-9.64 -21.55)" style="fill:#113240"/><path d="M281.73,211.93H173.07a4.62,4.62,0,0,1,0-9.24H281.73a4.62,4.62,0,0,1,0,9.24Z" transform="translate(-9.64 -21.55)" style="fill:#113240"/><path d="M281.73,237.08H173.07a4.62,4.62,0,0,1,0-9.24H281.73a4.62,4.62,0,0,1,0,9.24Z" transform="translate(-9.64 -21.55)" style="fill:#113240"/><path d="M281.73,262.23H173.07a4.62,4.62,0,1,1,0-9.23H281.73a4.62,4.62,0,1,1,0,9.23Z" transform="translate(-9.64 -21.55)" style="fill:#113240"/><path d="M220.8,431.09H253a33.37,33.37,0,0,0,33.37-33.37H187.43A33.37,33.37,0,0,0,220.8,431.09Z" transform="translate(-9.64 -21.55)" style="fill:#0baf9b"/><path d="M253,364.35H220.8a33.37,33.37,0,0,0-33.37,33.37h98.92A33.37,33.37,0,0,0,253,364.35Z" transform="translate(-9.64 -21.55)" style="fill:#15baac"/></svg>