<?xml version="1.0" encoding="utf-8"?>
<!-- Generator: Adobe Illustrator 24.1.2, SVG Export Plug-In . SVG Version: 6.00 Build 0)  -->
<svg version="1.1" id="Layer_1" xmlns="http://www.w3.org/2000/svg" xmlns:xlink="http://www.w3.org/1999/xlink" x="0px" y="0px"
	 viewBox="0 0 52.4 52.4" style="enable-background:new 0 0 52.4 52.4;" xml:space="preserve">
<style type="text/css">
	.st0{fill:#231F20;}
</style>
<path class="st0" d="M18.8,38.2c-0.3-0.3-0.6-0.7-1.1-1.1c-1.2-1.2-2.5-2.6-3-3.2c-1.9-2.3-3.3-5-4.1-7.8c-0.3-1.4-0.5-2.9-0.5-4.4
	c0.2-5.6,5.6-16.1,16.1-16.1c8.9,0,16.1,7.2,16.1,16.1c0,1.4-0.2,2.9-0.6,4.3c-0.2,1.2-0.6,2.3-1.1,3.4c-0.2,0.6-0.5,1.1-0.8,1.7
	c0.2,0.2,0.5,0.4,0.8,0.7s0.5,0.5,0.7,0.7c0.6,0.6,1.2,1.1,1.7,1.7c1.5-2.1,2.7-4.4,3.5-6.8c0.5-1.9,0.7-3.8,0.8-5.7
	c0-11.7-9.5-21.2-21.2-21.2S5,10,5,21.7l0,0c0,1.9,0.3,3.8,0.8,5.7c2,5.7,5.6,10.7,10.3,14.4l1.3-1.7C17.9,39.5,18.3,38.8,18.8,38.2
	z"/>
<g transform="translate(12.693 32.544)">
	<path class="st0" d="M4.8,10.6c1.4,1.4,2.8,2.8,4.3,4.2c1.6,1.6,3.1,3.1,4.6,4.7c0.1-1,0.3-2.1,0.6-3.1c0.2-0.9,0.4-1.7,0.7-2.4
		c0,0,1.1-3,2.1-3c0.2,0,0.4,0,0.6,0c0.3,0,0.6,0.1,0.9,0.2h0.1c1,0.2,8.4-6.4,8.4-6.4c0.6-0.5,1.3-1.1,2.2-1.8l-3.2-3
		c-2.3,2.8-4.6,5.5-6.9,8.3l-3.6-1.4c-1,1.9-2,3.7-2.9,5.6L7.5,7.2L4.8,10.6z"/>
</g>
<g transform="translate(21.612 35.59)">
	<path class="st0" d="M4.7,16.4L8,8.1l3,1.6c3.1-3.3,6.2-6.5,9.3-9.8L7.6,7.4L6.1,9.3L4.6,15L4.7,16.4z"/>
</g>
<g transform="translate(8.861 9.37)">
	<path class="st0" d="M5,12.6c0,2.3,0.7,4.6,2,6.5l8.5-9.6V0.6C9.5,1.5,5.1,6.6,5,12.6z"/>
	<path class="st0" d="M7,19.5l-0.1-0.2c-3.1-4.6-2.6-10.6,1-14.7c2-2.2,4.6-3.7,7.6-4.2h0.2v9.2L7,19.5z M15.3,0.8
		c-2.8,0.5-5.3,2-7.1,4c-3.4,3.9-3.9,9.6-1.2,14l8.3-9.4V0.8z"/>
</g>
<g transform="translate(13.784 24.808)">
	<path class="st0" d="M10.6,9.2V0.6L5.1,6.9C6.7,8.1,8.6,8.9,10.6,9.2L10.6,9.2z"/>
	<path class="st0" d="M10.8,9.5h-0.2C8.6,9.2,6.7,8.4,5,7.1L4.8,6.9l6-6.8V9.5z M5.4,6.8c1.5,1.1,3.2,1.8,5,2.1V1.2L5.4,6.8z"/>
</g>
<g transform="translate(23.648 24.601)">
	<path class="st0" d="M4.8,9.4c2.1-0.3,4-1.1,5.7-2.4L4.8,0.6V9.4L4.8,9.4z"/>
	<path class="st0" d="M4.6,9.7V0.1l6.2,7l-0.2,0.1C8.9,8.5,6.9,9.3,4.8,9.6L4.6,9.7z M5,1.2v8C6.9,8.9,8.6,8.1,10.2,7L5,1.2z"/>
</g>
<g transform="translate(23.648 9.352)">
	<path class="st0" d="M4.8,0.6v8.7l8.6,9.8c1.3-1.9,1.9-4.2,1.9-6.5C15.3,6.6,10.8,1.5,4.8,0.6L4.8,0.6z"/>
	<path class="st0" d="M13.5,19.5L4.6,9.4v-9h0.2c3,0.5,5.7,1.9,7.6,4.2c3.7,4,4.2,10,1.2,14.6L13.5,19.5z M5,9.3l8.4,9.5
		c2.7-4.4,2.2-10.1-1.2-14c-1.9-2.1-4.4-3.5-7.2-4V9.3z"/>
</g>
</svg>
