<?xml version="1.0" encoding="utf-8"?>
<!-- Generator: Adobe Illustrator 24.1.2, SVG Export Plug-In . SVG Version: 6.00 Build 0)  -->
<svg version="1.1" id="Layer_1" xmlns="http://www.w3.org/2000/svg" xmlns:xlink="http://www.w3.org/1999/xlink" x="0px" y="0px"
	 viewBox="0 0 196.1 52.4" style="enable-background:new 0 0 196.1 52.4;" xml:space="preserve">
<style type="text/css">
	.st0{fill:#231F20;}
	.st1{enable-background:new    ;}
</style>
<path class="st0" d="M14.8,38.6c-0.3-0.3-0.6-0.7-1.1-1.1c-1.2-1.2-2.5-2.6-3-3.2c-1.9-2.3-3.3-5-4.1-7.8c-0.3-1.4-0.5-2.9-0.5-4.4
	C6.3,16.5,11.7,6,22.2,6c8.9,0,16.1,7.2,16.1,16.1c0,1.4-0.2,2.9-0.6,4.3c-0.2,1.2-0.6,2.3-1.1,3.4c-0.2,0.6-0.5,1.1-0.8,1.7
	c0.2,0.2,0.5,0.4,0.8,0.7c0.3,0.3,0.5,0.5,0.7,0.7c0.6,0.6,1.2,1.1,1.7,1.7c1.5-2.1,2.7-4.4,3.5-6.8c0.5-1.9,0.7-3.8,0.8-5.7
	c0-11.7-9.5-21.2-21.2-21.2S1,10.4,1,22.1c0,0,0,0,0,0c0,1.9,0.3,3.8,0.8,5.7c2,5.7,5.6,10.7,10.3,14.4l1.3-1.7
	C13.9,39.9,14.3,39.2,14.8,38.6z"/>
<g transform="translate(12.693 32.544)">
	<path class="st0" d="M0.8,11c1.4,1.4,2.8,2.8,4.3,4.2c1.6,1.6,3.1,3.1,4.6,4.7c0.1-1,0.3-2.1,0.6-3.1c0.2-0.9,0.4-1.7,0.7-2.4
		c0,0,1.1-3,2.1-3c0.2,0,0.4,0,0.6,0c0.3,0,0.6,0.1,0.9,0.2l0.1,0c1,0.2,8.4-6.4,8.4-6.4c0.6-0.5,1.3-1.1,2.2-1.8l-3.2-3
		c-2.3,2.8-4.6,5.5-6.9,8.3l-3.6-1.4c-1,1.9-2,3.7-2.9,5.6L3.5,7.6L0.8,11z"/>
</g>
<g transform="translate(21.612 35.59)">
	<path class="st0" d="M0.7,16.8l3.3-8.3l3,1.6c3.1-3.3,6.2-6.5,9.3-9.8L3.6,7.8L2.1,9.7l-1.5,5.7L0.7,16.8z"/>
</g>
<g transform="translate(8.861 9.37)">
	<path class="st0" d="M1,13c0,2.3,0.7,4.6,2,6.5l8.5-9.6V1C5.5,1.9,1.1,7,1,13z"/>
	<path class="st0" d="M3,19.9l-0.1-0.2C-0.2,15.1,0.3,9.1,3.9,5c2-2.2,4.6-3.7,7.6-4.2l0.2,0V10L3,19.9z M11.3,1.2
		C8.5,1.7,6,3.2,4.2,5.2c-3.4,3.9-3.9,9.6-1.2,14l8.3-9.4L11.3,1.2z"/>
</g>
<g transform="translate(13.784 24.808)">
	<path class="st0" d="M6.6,9.6V1L1.1,7.3C2.7,8.5,4.6,9.3,6.6,9.6L6.6,9.6z"/>
	<path class="st0" d="M6.8,9.9l-0.2,0c-2-0.3-3.9-1.1-5.6-2.4L0.8,7.3l6-6.8L6.8,9.9z M1.4,7.2c1.5,1.1,3.2,1.8,5,2.1V1.6L1.4,7.2z"
		/>
</g>
<g transform="translate(23.648 24.601)">
	<path class="st0" d="M0.8,9.8c2.1-0.3,4-1.1,5.7-2.4L0.8,1V9.8L0.8,9.8z"/>
	<path class="st0" d="M0.6,10.1V0.5l6.2,7L6.6,7.6C4.9,8.9,2.9,9.7,0.8,10L0.6,10.1z M1,1.6v8c1.9-0.3,3.6-1.1,5.2-2.2L1,1.6z"/>
</g>
<g transform="translate(23.648 9.352)">
	<path class="st0" d="M0.8,1v8.7l8.6,9.8c1.3-1.9,1.9-4.2,1.9-6.5C11.3,7,6.8,1.9,0.8,1L0.8,1z"/>
	<path class="st0" d="M9.5,19.9L0.6,9.8V0.8l0.2,0c3,0.5,5.7,1.9,7.6,4.2C12.1,9,12.6,15,9.6,19.6L9.5,19.9z M1,9.7l8.4,9.5
		c2.7-4.4,2.2-10.1-1.2-14C6.3,3.1,3.8,1.7,1,1.2L1,9.7z"/>
</g>
<g class="st1">
	<path class="st0" d="M52.4,20.9c0-0.8,0.7-1.5,1.5-1.5c0.8,0,1.5,0.7,1.5,1.5v7.4l4.5-5.4v-2c0-0.8,0.7-1.5,1.5-1.5
		s1.5,0.7,1.5,1.5v7.4l7.1-8.4c0.3-0.3,0.7-0.5,1.1-0.5c0.8,0,1.4,0.6,1.4,1.4c0,0.3-0.1,0.6-0.3,0.9L62.5,33
		c-0.4,0.4-0.8,0.6-1.2,0.6c-0.8,0-1.5-0.7-1.5-1.5v-4.9L55,33c-0.4,0.4-0.8,0.6-1.2,0.6c-0.8,0-1.5-0.7-1.5-1.5V20.9z"/>
	<path class="st0" d="M72.1,26.5c0-4,3.1-7.1,7.1-7.1c4,0,7.1,3.1,7.1,7.1s-3.1,7.1-7.1,7.1C75.2,33.6,72.1,30.4,72.1,26.5z
		 M83.2,26.5c0-2.4-1.8-4.2-4-4.2c-2.3,0-4,1.9-4,4.2s1.8,4.2,4,4.2C81.4,30.7,83.2,28.8,83.2,26.5z"/>
	<path class="st0" d="M88.4,21.1c0-0.8,0.7-1.5,1.5-1.5h3.5c2.7,0,4.5,1.9,4.5,4.3c0,1.9-1.1,3.1-2.2,3.5l-0.1,0l3.1,3.7
		c0.3,0.3,0.3,0.6,0.3,1c0,0.8-0.6,1.5-1.5,1.5c-0.4,0-0.8-0.2-1.1-0.5L92.2,28c-0.2-0.3-0.5-0.6-0.5-1.1c0-0.7,0.6-1.3,1.3-1.3h0.2
		c0.9,0,1.6-0.7,1.6-1.6s-0.7-1.6-1.6-1.6h-1.9v9.7c0,0.8-0.7,1.5-1.5,1.5s-1.5-0.7-1.5-1.5V21.1z"/>
	<path class="st0" d="M100.6,20.9c0-0.8,0.7-1.5,1.5-1.5s1.5,0.7,1.5,1.5v11.2c0,0.8-0.7,1.5-1.5,1.5s-1.5-0.7-1.5-1.5V20.9z
		 M104.2,27.4c-0.2-0.2-0.3-0.5-0.3-0.9c0-0.4,0.1-0.7,0.3-0.9l4.8-5.7c0.3-0.3,0.7-0.5,1.1-0.5c0.8,0,1.4,0.6,1.4,1.4
		c0,0.4-0.1,0.6-0.3,0.9l-3.9,4.6l4,4.8c0.3,0.3,0.3,0.6,0.3,1c0,0.8-0.6,1.5-1.5,1.5c-0.4,0-0.8-0.2-1.1-0.5L104.2,27.4z"/>
	<path class="st0" d="M112.2,26.5c0-4,3.1-7.1,7.1-7.1c2.1,0,3.9,0.8,5.1,2.1c0.3,0.3,0.4,0.7,0.4,1c0,0.8-0.7,1.5-1.5,1.5
		c-0.4,0-0.8-0.2-1.2-0.6c-0.7-0.7-1.7-1.1-2.8-1.1c-2.3,0-4,1.9-4,4.2s1.8,4.2,4,4.2c1.1,0,2.1-0.5,2.8-1.1
		c0.4-0.4,0.8-0.6,1.2-0.6c0.8,0,1.5,0.6,1.5,1.5c0,0.3-0.1,0.7-0.4,1c-1.2,1.2-3,2.1-5.1,2.1C115.3,33.6,112.2,30.4,112.2,26.5z"/>
	<path class="st0" d="M135.3,20c0.4-0.4,0.8-0.6,1.2-0.6c0.8,0,1.5,0.7,1.5,1.5v11.2c0,0.8-0.7,1.5-1.5,1.5s-1.5-0.7-1.5-1.5V31
		h-1.8c-0.8,0-1.4-0.6-1.4-1.4s0.6-1.4,1.4-1.4h1.8v-3.6l-7.1,8.4c-0.2,0.3-0.7,0.5-1.1,0.5c-0.8,0-1.4-0.6-1.4-1.4
		c0-0.3,0.1-0.6,0.3-0.9L135.3,20z"/>
	<path class="st0" d="M143.1,22.4h-2.2c-0.8,0-1.4-0.6-1.4-1.4c0-0.8,0.6-1.4,1.4-1.4h7.3c0.8,0,1.4,0.6,1.4,1.4
		c0,0.8-0.6,1.4-1.4,1.4H146v9.7c0,0.8-0.7,1.5-1.5,1.5s-1.5-0.7-1.5-1.5V22.4z"/>
	<path class="st0" d="M151.1,20.9c0-0.8,0.7-1.5,1.5-1.5s1.5,0.7,1.5,1.5v11.2c0,0.8-0.7,1.5-1.5,1.5s-1.5-0.7-1.5-1.5V20.9z"/>
	<path class="st0" d="M156.2,26.5c0-4,3.1-7.1,7.1-7.1s7.1,3.1,7.1,7.1s-3.1,7.1-7.1,7.1S156.2,30.4,156.2,26.5z M167.3,26.5
		c0-2.4-1.8-4.2-4-4.2s-4,1.9-4,4.2s1.8,4.2,4,4.2S167.3,28.8,167.3,26.5z"/>
	<path class="st0" d="M172.5,21c0-0.9,0.7-1.6,1.5-1.6c0.5,0,0.9,0.2,1.2,0.5l5.4,6.5v-5.6c0-0.8,0.7-1.5,1.5-1.5s1.5,0.7,1.5,1.5
		v11.2c0,0.8-0.7,1.5-1.5,1.5s-1.5-0.7-1.5-1.5V31l-5.2-6.2v7.3c0,0.8-0.7,1.5-1.5,1.5s-1.5-0.7-1.5-1.5V21z"/>
	<path class="st0" d="M186.1,30.4c0-0.8,0.7-1.5,1.5-1.5c0.6,0,0.9,0.3,1.2,0.7c0.4,0.5,0.7,1.2,1.7,1.2c0.9,0,1.6-0.7,1.6-1.6
		c0-0.9-0.8-1.2-1.8-1.6l-1-0.3c-1.5-0.5-3-1.4-3-4c0-2.2,1.9-3.9,4.3-3.9c2.6,0,4.2,1.9,4.2,2.9c0,0.8-0.7,1.5-1.5,1.5
		c-0.6,0-0.9-0.3-1.1-0.6c-0.4-0.5-0.7-1-1.6-1c-0.8,0-1.4,0.6-1.4,1.4c0,0.8,0.7,1.2,1.6,1.5l0.8,0.3c1.7,0.5,3.5,1.3,3.5,4.2
		c0,2.4-2,4.1-4.5,4.1C187.9,33.6,186.1,31.6,186.1,30.4z"/>
</g>
</svg>
