<?xml version="1.0" encoding="utf-8"?>
<!-- Generator: Adobe Illustrator 24.1.2, SVG Export Plug-In . SVG Version: 6.00 Build 0)  -->
<svg version="1.1" id="Layer_1" xmlns="http://www.w3.org/2000/svg" xmlns:xlink="http://www.w3.org/1999/xlink" x="0px" y="0px"
	 viewBox="0 0 426.1 282.7" style="enable-background:new 0 0 426.1 282.7;" xml:space="preserve">
<style type="text/css">
	.st0{fill:#C6DE8A;}
	.st1{fill:#69B78B;}
	.st2{fill:#5E3C69;}
	.st3{opacity:0.45;fill:#CCCCCC;enable-background:new    ;}
	.st4{fill:#C8E2ED;}
	.st5{fill:#C7857C;}
	.st6{opacity:0.32;fill:#E29EA6;enable-background:new    ;}
	.st7{fill:#E29EA6;}
	.st8{opacity:0.32;}
	.st9{fill:url(#SVGID_1_);}
	.st10{fill:#CD4B76;}
	.st11{fill:url(#SVGID_2_);}
	.st12{fill:url(#SVGID_3_);}
	.st13{fill:#F9FAE8;}
	.st14{fill:#5B89C2;}
	.st15{fill:url(#SVGID_4_);}
	.st16{fill:#FFFFFF;}
	.st17{fill:url(#SVGID_5_);}
</style>
<g transform="translate(-51.375 -280.884)">
	<g transform="translate(371.686 372.985)">
		<path class="st0" d="M36.4,36c2.6-3.4,6.3-6.4,8.3-3.5c1.2,1.7,1.2,4.9,0.5,7.8c-0.7,2.7-1.9,5.4-3.3,7.8
			c-3.3,5.7-13.6,26-16.3,17.3C22.9,56.8,32.3,41.6,36.4,36z"/>
		<path class="st0" d="M8.6,23.7c-0.4-4.3,0.3-9,3.7-8.2c2,0.4,4.2,2.8,5.7,5.4c1.3,2.5,2.2,5.2,2.8,8c1.4,6.4,7.6,28.4-0.4,23.8
			C12.6,48.2,9.2,30.7,8.6,23.7z"/>
		<path class="st1" d="M20.1,46.2c0.5-14.2,2.3-29.7,8.1-41.7c1.3-2.6,3.3-5.2,4.7-3.7c0.4,0.5,0.6,1.2,0.8,1.8
			c2.9,10.3,1.6,24.1-0.5,36.8c-1.2,7-4.8,35.2-9.6,37C16.8,79,19.9,52.5,20.1,46.2z"/>
		<path class="st1" d="M15.9,78.5C9,68.2,4.6,56.5,2.9,44.2c-0.6-4.4-1-9,0.2-13.2c0.2-0.9,0.7-1.8,1.4-2.4c1.1-0.6,2.4,0.6,3.3,1.7
			c10.9,13.8,16.8,34.2,15.7,54.1"/>
		<path class="st2" d="M1.9,62.3C-3,73.2,1.8,86,12.7,90.9c10.9,4.9,23.7,0.1,28.6-10.7c2.6-5.7,2.6-12.2,0-17.9H1.9z"/>
	</g>
	<g transform="translate(51.375 280.884)">
		<ellipse class="st3" cx="213.1" cy="268.2" rx="213.1" ry="14.2"/>
		<path class="st4" d="M184.3,22.1c-11.5,21.8,2.8,47.8,3.7,72.4c0.6,19.4-7.3,38.1-21.6,51.2c-28.1,25.5-73.5,23.5-101.7,48.9
			c-4.5,4.1-8.5,9-10.1,14.8c-3.7,14,8.4,28,22,33c42.9,15.8,86.1-28.4,131.8-27.1c24.6,0.7,46.7,14.6,70.2,22s54.2,5.8,66.5-15.6
			c13.7-23.7-4.4-53.8,0.4-80.7c4.7-26.5,31.2-48,27.2-74.6c-3.3-22.2-26.6-35.5-48.3-41.1C289.4,16.3,208.8-24.2,184.3,22.1z"/>
		<g transform="translate(234.425 201.065)">
			<rect x="0" y="0.3" class="st5" width="7.9" height="66.8"/>
			<rect x="148.5" y="0.3" class="st5" width="7.9" height="66.8"/>
			<rect x="0" y="0.3" class="st6" width="7.9" height="66.8"/>
			<rect x="148.5" y="0.3" class="st6" width="7.9" height="66.8"/>
		</g>
		<path class="st2" d="M169.8,86.5c2.7,20.4-8.5,40.8-24.1,51.7s-34.9,13.5-53.3,12.2c1.8-5.4,3.6-10.8,5.5-16.1
			c-2.2,2-4.3,4-6.5,5.9C80.5,122.8,78.8,98.8,87,79.6s26-32.8,45-34.4C153.9,43.4,166.8,63.9,169.8,86.5z"/>
		<g transform="translate(108.819 125.623)">
			<path class="st7" d="M107.9,8.2c0-0.7-0.4-1.2-1.1-1.4c-0.6-0.1-1.2,0-1.8,0.3c-1.5,0.5-10.6,3.2-11,4.5c0.4-0.9,1-1.8,1.6-2.7
				c3.1-6.1-6.4,1.5-7.1,1.9c-1.5,0.9-3.1,1.5-4.8,1.8c-16.3,3.9-32.6,4.9-49,0c-9.8-2.8-19.2-7-27.9-12.4C2.8,4.9,0.7,11.2,0,17.7
				c20,10.9,42.7,14.7,65.8,8.5c3.8-1,7.4-2.4,11.3-3c9.5-1.4,17.5,3.3,25.6-3.8c1-0.8,1.8-1.9,2.3-3.1c0.5-1.3,0.2-2.7-0.6-3.7
				c1-1.2,2-2.4,3-3.6C107.6,8.8,107.8,8.5,107.9,8.2z"/>
		</g>
		<g transform="translate(108.819 125.623)" class="st8">
			<path class="st7" d="M107.9,8.2c0-0.7-0.4-1.2-1.1-1.4c-0.6-0.1-1.2,0-1.8,0.3c-1.5,0.5-10.6,3.2-11,4.5c0.4-0.9,1-1.8,1.6-2.7
				c3.1-6.1-6.4,1.5-7.1,1.9c-1.5,0.9-3.1,1.5-4.8,1.8c-16.3,3.9-32.6,4.9-49,0c-9.8-2.8-19.2-7-27.9-12.4C2.8,4.9,0.7,11.2,0,17.7
				c20,10.9,42.7,14.7,65.8,8.5c3.8-1,7.4-2.4,11.3-3c9.5-1.4,17.5,3.3,25.6-3.8c1-0.8,1.8-1.9,2.3-3.1c0.5-1.3,0.2-2.7-0.6-3.7
				c1-1.2,2-2.4,3-3.6C107.6,8.8,107.8,8.5,107.9,8.2z"/>
		</g>
		<g transform="translate(109.215 125.23)">
			
				<linearGradient id="SVGID_1_" gradientUnits="userSpaceOnUse" x1="-102.9883" y1="44.2582" x2="-101.6033" y2="44.2582" gradientTransform="matrix(77.71 0 0 -31.7184 7489.8667 1419.9897)">
				<stop  offset="0.201" style="stop-color:#FFD584"/>
				<stop  offset="0.917" style="stop-color:#FCD271"/>
			</linearGradient>
			<path class="st9" d="M33.2,12.1c-9.1-2.8-17.9-6.8-26-11.8C2.2,6,0.1,14.3,0,22.4c18.4,9.2,39.3,11.9,59.4,7.7
				c6-1.2,12.7-2.4,16.5-3c0.7-3.2,0.9-10.1,1.8-13.3C62.9,16.7,48,16.8,33.2,12.1z"/>
		</g>
		<g transform="translate(109.215 125.23)" class="st8">
			<path class="st7" d="M33.2,12.1c-9.1-2.8-17.9-6.8-26-11.8C2.2,6,0.1,14.3,0,22.4c18.4,9.2,39.3,11.9,59.4,7.7
				c6-1.2,12.7-2.4,16.5-3c0.7-3.2,0.9-10.1,1.8-13.3C62.9,16.7,48,16.8,33.2,12.1z"/>
		</g>
		<g transform="translate(167.761 116.428)">
			<g transform="translate(21.581)">
				<path class="st1" d="M8.2,50.5c0.3-3.1-1-6-1.7-9c-1.4-6-0.6-12.2,0.3-18.3c0.5-3.2,0.9-6.4,1.4-9.5c0.3-2.9,1-5.7,2.2-8.3
					c1.3-2.6,3.8-4.7,6.6-4.9c3.8-0.3,7.2,3.1,8,6.9s-0.4,7.7-2,11.2s-3.7,6.8-4.9,10.4c-0.8,2.2-1.1,4.6-0.9,6.9
					c0.3,3.7,1.9,7.3,3.4,10.7c0.9,2,1.9,4.1,2.8,6.1c2.2,4.8,4.5,9.7,5.4,15s0.3,11-2.8,15.3C18,94,8.4,85.6,2.7,77.7
					C-5.4,66.3,7,61.1,8.2,50.5z"/>
				<path class="st6" d="M8.2,50.5c0.3-3.1-1-6-1.7-9c-1.4-6-0.6-12.2,0.3-18.3c0.5-3.2,0.9-6.4,1.4-9.5c0.3-2.9,1-5.7,2.2-8.3
					c1.3-2.6,3.8-4.7,6.6-4.9c3.8-0.3,7.2,3.1,8,6.9s-0.4,7.7-2,11.2s-3.7,6.8-4.9,10.4c-0.8,2.2-1.1,4.6-0.9,6.9
					c0.3,3.7,1.9,7.3,3.4,10.7c0.9,2,1.9,4.1,2.8,6.1c2.2,4.8,4.5,9.7,5.4,15s0.3,11-2.8,15.3C18,94,8.4,85.6,2.7,77.7
					C-5.4,66.3,7,61.1,8.2,50.5z"/>
			</g>
			<path class="st0" d="M48.9,53.6c2-3.7,2.4-8,2.9-12.2s1.2-8.5,3.7-11.9s7.1-5.6,11-3.9c5.6,2.5,5.6,10.5,3.3,16.2
				s-5.8,11.5-4.2,17.4c1,3.9,4.2,7.4,3.2,11.3c-0.8,3.3-4.4,5.2-5.9,8.3c-3.3,7.3,6.7,14.2,6.6,22.2c0,3.7-2.4,7.1-5.4,9.1
				c-3.2,1.9-6.8,3-10.5,3.1c-7.6,0.5-15.6-1.5-21.3-6.6c-7.6-6.8-9.7-18.6-5.5-27.6c2.4-5.5,6-10.4,10.6-14.2
				C41.6,61.3,46.3,58.4,48.9,53.6z"/>
			<path class="st1" d="M14.2,77.8C14,71.6,6.4,68.6,2.9,63.4c-2.7-4-2.8-9.2-2.8-14C0.1,43.5,0,37.6,0,31.8C0,27,0.5,21.2,4.8,19
				c4.2-2.2,9.5,1,11.6,5.3s1.7,9.2,1.7,14s0.5,9.9,3.6,13.4c2.7,3.1,6.7,4.4,10.3,6.3s7.1,5.2,6.9,9.3c-0.2,3.9-3.8,6.8-5.1,10.5
				c-2,5.6,1.7,11.6,5.3,16.3s7.7,10.2,6.6,16.1c-2.5,12.9-19.2,7.9-25,0.7c-2.8-3.5-5-8.4-6.9-12.5c-1.5-3.3-2.7-6.2-2.3-9.9
				S14.4,81.6,14.2,77.8z"/>
			<path class="st6" d="M47.6,87.8c0.2-4.4,1.1-8.7,2.5-12.8c2.6-7.6,8-15.2,9.7-23c-1.5,6.7-2.9,13.4-4.4,20.1
				C54.3,77.9,53,83.8,53,89.8c-0.1,4.8,1,9.6,3.2,13.8c1,1.9,3.2,4.1-0.3,4.4c-1.8,0.2-4.1-2-5-3.3c-1.1-1.6-1.8-3.5-2.2-5.4
				C47.8,95.5,47.5,91.7,47.6,87.8z"/>
			<path class="st6" d="M9,56.4c-0.7-2.7-0.8-5.5-0.3-8.2c1.4,6.3,4.9,11.8,8.7,17s7.8,10.3,10.2,16.2c1.4,3.2,2.1,6.7,2.1,10.3
				c0,1.9-0.6,3.6-0.8,5.4c-0.1,1.5,0.4,3.1-0.1,4.6c-0.4,1.3-1.7,2.1-3,1.8c-1.7-0.6-1.7-2.9-1.5-4.6c0.7-7-0.3-14-2.8-20.5
				c-2.5-6.4-7.2-10.7-10.4-16.6C10.2,60.1,9.5,58.3,9,56.4z"/>
			<path class="st10" d="M12.9,99h56.2l0,0v48.2c0,2.6-2.1,4.6-4.6,4.6c0,0,0,0,0,0h-47c-2.6,0-4.6-2.1-4.6-4.6V99L12.9,99z"/>
			
				<linearGradient id="SVGID_2_" gradientUnits="userSpaceOnUse" x1="-154.9922" y1="58.5918" x2="-153.9922" y2="58.5918" gradientTransform="matrix(56.235 0 0 -12.624 8728.9063 866.2374)">
				<stop  offset="0.201" style="stop-color:#FFD584"/>
				<stop  offset="0.917" style="stop-color:#FCD271"/>
			</linearGradient>
			<rect x="12.9" y="120.3" class="st11" width="56.2" height="12.6"/>
			<rect x="12.9" y="99" class="st6" width="56.2" height="16.6"/>
			<rect x="7.8" y="97.9" class="st10" width="66.6" height="12.1"/>
		</g>
		<g transform="translate(242.258 109.705)">
			<path class="st0" d="M36.4,36c2.6-3.4,6.3-6.4,8.3-3.5c1.2,1.7,1.2,4.9,0.5,7.8c-0.7,2.7-1.9,5.4-3.3,7.8
				c-3.3,5.7-13.6,26-16.3,17.3C22.9,56.8,32.3,41.6,36.4,36z"/>
			<path class="st0" d="M8.6,23.7c-0.4-4.3,0.3-9,3.7-8.2c2,0.4,4.2,2.8,5.7,5.4c1.3,2.5,2.2,5.2,2.8,8c1.4,6.4,7.6,28.4-0.4,23.8
				C12.6,48.2,9.2,30.7,8.6,23.7z"/>
			<path class="st1" d="M20.1,46.2c0.5-14.2,2.3-29.7,8.1-41.7c1.3-2.6,3.3-5.2,4.7-3.7c0.4,0.5,0.6,1.2,0.8,1.8
				c2.9,10.3,1.6,24.1-0.5,36.8c-1.2,7-4.8,35.2-9.6,37C16.8,79,19.9,52.5,20.1,46.2z"/>
			<path class="st1" d="M15.9,78.5C9,68.2,4.6,56.5,2.9,44.2c-0.6-4.4-1-9,0.2-13.2c0.2-0.9,0.7-1.8,1.4-2.4
				c1.1-0.6,2.4,0.5,3.3,1.7c10.9,13.8,16.8,34.2,15.7,54.1"/>
			
				<linearGradient id="SVGID_3_" gradientUnits="userSpaceOnUse" x1="-229.559" y1="59.9248" x2="-228.559" y2="59.9248" gradientTransform="matrix(43.1893 0 0 -30.5357 9914.4814 1907.4121)">
				<stop  offset="0.201" style="stop-color:#FFD584"/>
				<stop  offset="0.917" style="stop-color:#FCD271"/>
			</linearGradient>
			<path class="st12" d="M1.9,62.3C-3,73.2,1.8,86,12.7,90.9c10.9,4.9,23.7,0.1,28.6-10.7c2.6-5.7,2.6-12.2,0-17.9H1.9z"/>
		</g>
		<rect x="218.7" y="197.7" class="st5" width="187.8" height="7.9"/>
		<g transform="translate(280.581 138.42)">
			<path class="st0" d="M51.2,21.2c-1.8-0.9-2.4-3.4-1.7-5.3c0.9-1.9,2.2-3.5,3.8-4.7c2.5-2.2,5-4.5,8.2-5.7s7-0.9,9.3,1.5
				c-0.2-1.7,2.1-3,3.6-2.2c1.5,1,2.1,2.9,1.3,4.5c-0.8,1.6-2.3,2.7-4,3.1c1.9,1.5,2.2,4.3,0.7,6.2c-1.1,1.4-2.9,2-4.7,1.5
				c1.6,3.2-1.2,7.6-4.8,7.6c-0.3,2.8-2.8,4.9-5.6,4.6c-0.7,3-3.6,5.1-6.7,4.7c-0.5-0.1-4,2.8-5,3.1c-2.2,0.7-4.5,0.9-6.7,0.4
				c-4.1-0.9-7.8-3.4-6.6-7.8C34,27.5,45.5,18.1,51.2,21.2z"/>
			<path class="st6" d="M51.2,21.2c-1.8-0.9-2.4-3.4-1.7-5.3c0.9-1.9,2.2-3.5,3.8-4.7c2.5-2.2,5-4.5,8.2-5.7s7-0.9,9.3,1.5
				c-0.2-1.7,2.1-3,3.6-2.2c1.5,1,2.1,2.9,1.3,4.5c-0.8,1.6-2.3,2.7-4,3.1c1.9,1.5,2.2,4.3,0.7,6.2c-1.1,1.4-2.9,2-4.7,1.5
				c1.6,3.2-1.2,7.6-4.8,7.6c-0.3,2.8-2.8,4.9-5.6,4.6c-0.7,3-3.6,5.1-6.7,4.7c-0.5-0.1-4,2.8-5,3.1c-2.2,0.7-4.5,0.9-6.7,0.4
				c-4.1-0.9-7.8-3.4-6.6-7.8C34,27.5,45.5,18.1,51.2,21.2z"/>
			<path class="st1" d="M36,36.3c1.4,4.3,5.9,6.7,10.2,5.3c1.3-0.4,2.4-1.1,3.4-2.1c0.8,3,3.8,4.8,6.7,4c0,0,0.1,0,0.1,0
				c0.2,3,2.8,5.1,5.8,4.9c1.6-0.1,3-1,3.9-2.3c0.7,1.6,2.5,2.4,4.1,1.7c1.6-0.7,2.4-2.5,1.7-4.1c-0.1-0.4-0.4-0.7-0.6-1
				c1,2.6,3.9,3.8,6.5,2.8s3.8-3.9,2.8-6.5c-0.1-0.3-0.2-0.5-0.4-0.8c-0.9-3.2-4.2-5-7.4-4.1c-0.2,0.1-0.5,0.2-0.7,0.3
				c-3.4-4.8-10-6.2-15-3c-3-2.7-7.7-2.5-10.5,0.5c1-0.1,1.9-0.3,2.9-0.4"/>
			<path class="st6" d="M36,36.3c1.4,4.3,5.9,6.7,10.2,5.3c1.3-0.4,2.4-1.1,3.4-2.1c0.8,3,3.8,4.8,6.7,4c0,0,0.1,0,0.1,0
				c0.2,3,2.8,5.1,5.8,4.9c1.6-0.1,3-1,3.9-2.3c0.7,1.6,2.5,2.4,4.1,1.7c1.6-0.7,2.4-2.5,1.7-4.1c-0.1-0.4-0.4-0.7-0.6-1
				c1,2.6,3.9,3.8,6.5,2.8s3.8-3.9,2.8-6.5c-0.1-0.3-0.2-0.5-0.4-0.8c-0.9-3.2-4.2-5-7.4-4.1c-0.2,0.1-0.5,0.2-0.7,0.3
				c-3.4-4.8-10-6.2-15-3c-3-2.7-7.7-2.5-10.5,0.5c1-0.1,1.9-0.3,2.9-0.4"/>
			<path class="st0" d="M47.5,39.8c2.3-3.2,1.6-7.6-1.6-9.9c-1.5-1.1-3.4-1.6-5.3-1.3c1.9,0.2,2.9-2.5,1.9-4.1s-3-2.2-4.8-2.6
				s-3.8-0.9-5-2.3c-1.6-6-7.2-10.1-13.4-9.9c-0.2-5.4-4.7-9.6-10.1-9.4c-2.3,0.1-4.6,1-6.3,2.6C1.4,4.3,0.5,6.3,0.5,8.4
				c0.1,2.1,1.7,3.9,3.8,4.2c-2.3-0.1-4.2,1.6-4.3,3.9c-0.1,2.3,1.6,4.2,3.9,4.3c0.3,0,0.7,0,1-0.1c-2.7-0.4-4.2,3.5-2.8,5.8
				s4.3,3.2,6.9,3.8c2.7,0.7,5.5,1.4,8.2,2.2c1.9,0.5,4.2,1,5.7-0.3c0.9,4.2,5,6.9,9.2,6c1.3-0.3,2.5-0.9,3.5-1.7"/>
			<path class="st10" d="M21.4,36.5H58l0,0v22c0,1.4-1.1,2.5-2.5,2.5H23.9c-1.4,0-2.5-1.1-2.5-2.5V36.5L21.4,36.5z"/>
			<path class="st6" d="M21.4,44.4H58l0,0V59c0,1.2-0.9,2.1-2.1,2.1H23.5c-1.2,0-2.1-0.9-2.1-2.1c0,0,0,0,0,0V44.4L21.4,44.4z"/>
			<path class="st1" d="M33.1,26.4c-4-3.2-9.9-2.6-13.1,1.5c-0.8,1-1.3,2.1-1.7,3.2c-1.7,0.1-3.1,1.5-3,3.2c0,1.2,0.8,2.3,1.9,2.7
				c-1.7-0.6-3.5-0.8-5.2-0.7c-1.8,0.1-3.4,1.2-4.2,2.8c-0.7,1.6,0.2,3.9,1.9,4.3c-3.8,0-6.9,3-7,6.8c0,1.5,0.5,3,1.3,4.2
				c-2.8,1.6-3.1,5.9-1,8.3s5.9,2.8,8.8,1.4c2.8-1.5,4.9-4.2,5.8-7.3c4.1,0,7.5-3.3,7.5-7.4c0-1.6-0.5-3.2-1.5-4.4
				c4.5,1.5,9.9-2.4,9.9-7.1c2.3,1,5,0.5,6.9-1.2c2.5-2.3,3-7.3,1.3-9.6c-1.1-1.2-2.6-1.9-4.2-2C37.1,25.1,32.7,26.1,33.1,26.4z"/>
		</g>
		<g transform="translate(177.816 138.571)">
			<path class="st2" d="M15.4,0.3C-0.8,6.4,0,23.3,0,23.3l10.5,2.1L21,27.4C21,27.4,28.2,12.1,15.4,0.3z"/>
			<g transform="translate(7.894 19.368)">
				<path class="st13" d="M0,5.5l0.4-2.2c0,0,0-0.1,0-0.1c0.4-1.7,1.9-3,3.2-2.8h0L2.6,6L0,5.5z"/>
			</g>
			<path class="st2" d="M11.2,32.3l1.8-8.9c0.2-0.9-0.3-3.5-1.4-3.8s-2.5,2-2.7,3l-1.7,8.9L11.2,32.3z"/>
			<path class="st10" d="M5.1,30L0.7,52.1c-0.5,2.4,1,4.7,3.4,5.2c2.4,0.5,4.7-1,5.2-3.4c0,0,0-0.1,0-0.1l4.4-22.2L5.1,30z"/>
		</g>
		<g transform="translate(20.448 37.244)">
			<g transform="translate(16.436 124.041)">
				<g transform="translate(0 66.059)">
					<path class="st7" d="M124.8,27c-8.2,1-17.8-0.2-26.3-0.8c-9.7-0.6-19.4-1.4-29.1-2.3c-6.8-0.6-13.6-1.3-20.4-2
						c-5.6-0.6-17.7-4.2-22.9-2.4c-3.2,1.1-8.6,2.4-11.8,0.5S20,0.3,25.8,3.7c14.9,8.8,38.5,3.4,54.7,0.9c7.5-1.2,17.6-4.7,25.2-3.8
						C117.9,2.1,121.6,17.8,124.8,27z"/>
					<path class="st2" d="M32.7,5c-3.4,5.8-3.8,8-4.8,14.6l-11.6,9c0,0-12.7,10.5-16,8.6s16-33.8,16-33.8c1.8-3,5.7-4,8.7-2.2
						c0.1,0.1,0.2,0.1,0.3,0.2C28.9,3.5,29.2,4.8,32.7,5z"/>
				</g>
				<path class="st14" d="M129.8,92.4c-0.4,0.7-0.9,1.3-1.5,1.8c-1.6,1.3-3.7,1.5-5.8,1.7c-25,2.4-49.7,1.2-74.9-1.8
					c-0.9,0-1.9-0.3-2.7-0.8c-1-0.8-1.7-1.9-2-3.1c-2.7-6.9-2.4-14.1-4.5-21.3C55.9,72.1,74,71.4,91.3,67
					c-9.4-11.9-20.2-25.3-17.8-42C75.3,11.7,85.2,2.1,97.2,2.2c3.2,0,6.4,1.8,9.5,1.5c2.5-0.2,9.6-4.8,12-3
					c3.4,2.6,4.7,7.7,4.6,12.1s-1.1,8.8-1,13.3c0.2,9.7,7,19.6,9.4,29.2c2.6,10.5,2.6,21.6,0,32.1C131.3,89.2,130.6,90.9,129.8,92.4
					z"/>
			</g>
			<g transform="translate(16.436 124.041)" class="st8">
				<g transform="translate(0 66.059)">
					<path class="st7" d="M124.8,27c-8.2,1-17.8-0.2-26.3-0.8c-9.7-0.6-19.4-1.4-29.1-2.3c-6.8-0.6-13.6-1.3-20.4-2
						c-5.6-0.6-17.7-4.2-22.9-2.4c-3.2,1.1-8.6,2.4-11.8,0.5S20,0.3,25.8,3.7c14.9,8.8,38.5,3.4,54.7,0.9c7.5-1.2,17.6-4.7,25.2-3.8
						C117.9,2.1,121.6,17.8,124.8,27z"/>
					<path class="st7" d="M32.7,5c-3.4,5.8-3.8,8-4.8,14.6l-11.6,9c0,0-12.7,10.5-16,8.6s16-33.8,16-33.8c1.8-3,5.7-4,8.7-2.2
						c0.1,0.1,0.2,0.1,0.3,0.2C28.9,3.5,29.2,4.8,32.7,5z"/>
				</g>
				<path class="st7" d="M129.8,92.4c-0.4,0.7-0.9,1.3-1.5,1.8c-1.6,1.3-3.7,1.5-5.8,1.7c-25,2.4-49.7,1.2-74.9-1.8
					c-0.9,0-1.9-0.3-2.7-0.8c-1-0.8-1.7-1.9-2-3.1c-2.7-6.9-2.4-14.1-4.5-21.3C55.9,72.1,74,71.4,91.3,67
					c-9.4-11.9-20.2-25.3-17.8-42C75.3,11.7,85.2,2.1,97.2,2.2c3.2,0,6.4,1.8,9.5,1.5c2.5-0.2,9.6-4.8,12-3
					c3.4,2.6,4.7,7.7,4.6,12.1s-1.1,8.8-1,13.3c0.2,9.7,7,19.6,9.4,29.2c2.6,10.5,2.6,21.6,0,32.1C131.3,89.2,130.6,90.9,129.8,92.4
					z"/>
			</g>
			<g transform="translate(0 201.698)">
				<path class="st7" d="M124.8,27c-8.2,1-17.8-0.2-26.3-0.8c-9.7-0.6-19.4-1.4-29.1-2.3c-6.8-0.6-13.6-1.3-20.4-2
					c-5.6-0.6-17.7-4.2-22.9-2.4c-3.2,1.1-8.6,2.4-11.8,0.5S20,0.3,25.8,3.7c14.9,8.8,38.5,3.4,54.7,0.9C88,3.3,98-0.2,105.6,0.7
					C117.9,2.1,121.6,17.8,124.8,27z"/>
				<path class="st2" d="M32.7,5c-3.4,5.8-3.8,8-4.8,14.6l-11.6,9c0,0-12.7,10.5-16,8.6s16-33.8,16-33.8c1.8-3,5.7-4,8.7-2.2
					c0.1,0.1,0.2,0.1,0.3,0.2C28.9,3.5,29.2,4.8,32.7,5z"/>
			</g>
			<path class="st14" d="M143,224.3c-0.5,0.7-1.1,1.3-1.9,1.9c-1.9,1.4-4.4,1.7-6.7,2c-28.9,3.5-57.4,3.4-86.3,1.4
				c-1,0-2.1-0.2-3-0.7c-1-0.8-1.8-1.8-2.2-3.1c-2.9-6.9-2.1-14.2-4.3-21.3c20.4,2.5,41.2,1,61.1-4.2
				c-10.3-11.6-22.2-24.7-18.8-41.8c2.8-13.6,14.5-23.5,28.3-24c3.7-0.1,7.3,1.5,10.8,1.2c2.9-0.3,11.3-5.2,14-3.5
				c3.8,2.4,5.1,7.5,4.8,12.1s-1.7,9-1.7,13.5c-0.1,9.8,7.3,19.5,9.6,29.2c2.6,10.7,2.1,22-1.4,32.5
				C144.8,221.1,144,222.8,143,224.3z"/>
			<path class="st7" d="M113.8,47l-11.1,18.4l14.5,5.4l13.9-20.5L113.8,47z"/>
			
				<linearGradient id="SVGID_4_" gradientUnits="userSpaceOnUse" x1="-14.8954" y1="129.7177" x2="-13.8954" y2="129.7177" gradientTransform="matrix(60.069 0 0 -102.5939 543.0089 13414.7236)">
				<stop  offset="0.201" style="stop-color:#FFD584"/>
				<stop  offset="0.917" style="stop-color:#FCD271"/>
			</linearGradient>
			<path class="st15" d="M135.2,95.6c1.1,1.8,2.2,3.6,3.2,5.5c1.4,2.3,2.8,4.9,2.4,7.6c-0.5,3.8-4.3,6.6-4.7,10.4
				c-0.3,2.2,0.6,4.4,1.4,6.5c1.4,4.1,2.2,8.4,2.3,12.7c0,2-0.2,4.2,0,6.1c0.1,0.5,2,5.1,2.9,4.2c-4.1,4.1-9.9,5.9-15.5,7.1
				c-7.4,1.7-15,2.3-22.5,1.8c-4.3-0.4-8.5-1.3-12.6-2.7c-1.9-0.7-9.2-2.9-9.4-5.3c0-0.5,0.2-1,0.6-1.3c5.6-7.5,9.7-16.5,10-26
				c0.4-9.9-3.4-19.5-2.9-29.5c0.5-9.6,2.1-18.1,7.1-26.5c2.9-4.9,7.4-6.8,10.5-11c2.6,6.3,8.8,9.5,15.3,10.1c-0.5,0,0.8,8.9,1,9.7
				c0.8,3.3,2,6.5,3.4,9.6c1.3,2.8,3.3,4.4,4.9,6.9C133.5,92.8,134.4,94.2,135.2,95.6z"/>
			<path class="st6" d="M122.2,63.4l8.9-13.1L113.7,47c-1.3,2.2-2.7,4.4-4,6.7c-1.6,2.8,0.7,5.7,3.2,7
				C113.9,61.3,121.7,64.2,122.2,63.4z"/>
			<path class="st7" d="M142.8,47.1c-1,3.3-2.7,6.2-5,8.7c-2.2,2.4-4.6,2.9-7.5,3.5c-9.2,1.7-21.5-1.5-23.5-13.5
				c-1.7,0.8-3.5-1-3.9-3c-0.3-1.9,0.4-3.4,0.6-5.3c0.2-1.5,0.2-3,0.5-4.5c0.7-3.7,1.6-7.5,3.6-10.7c2-3.1,4.9-5.6,8.3-7
				c3.1-1.3,6.4-2.1,9.8-2.6c5.6-1,13.9-2,17.2,4.8c1.9,3.9,0,10.8,0.2,15.3C143.4,37.5,144.1,42.4,142.8,47.1z"/>
			<g transform="translate(95.316 29.393)">
				<path class="st7" d="M2.6,0.5C1,1.2,0.3,3,0.1,4.7c-0.5,5.1,2.5,9.9,7.3,11.8c1.4,0.5,3.2,0.6,4.2-0.5c1-1.1,0.7-2.9,0.2-4.4
					C10.8,8.8,6.8-1.2,2.6,0.5z"/>
				<g transform="translate(1.653 4.251)">
					<path class="st2" d="M0,0.3c0.7,0,1.3,0.3,1.8,0.6C3.2,1.8,4.3,3,5,4.5C5.7,5.9,6.1,7.4,6.3,9c0.1,0.6,0.2,1.3,0.1,1.9
						C6.2,10.3,6.1,9.7,6,9C5.7,7.5,5.2,6.1,4.5,4.7C3.9,3.3,2.9,2.2,1.6,1.3C0.7,0.6,0,0.4,0,0.3z"/>
					<g transform="translate(3.106 3.264)">
						<path class="st2" d="M1.8,6.7c-0.1,0-0.3-0.3-0.6-0.8c-0.4-0.7-0.8-1.5-1-2.3C-0.1,2.9,0,2,0.2,1.2c0.2-0.6,0.5-0.9,0.6-0.8
							c0.1,0-0.1,0.4-0.2,1C0.4,2,0.4,2.8,0.6,3.6C0.8,4.3,1.1,5,1.4,5.8C1.7,6.3,1.8,6.7,1.8,6.7z"/>
					</g>
				</g>
			</g>
			<g transform="translate(115.15 30.626)">
				<path class="st2" d="M0,2.8c-0.2-0.1,0.1-0.5,0.8-1.1C1.9,1,3,0.6,4.3,0.4c1.3-0.2,2.7-0.1,4,0.2c1,0.3,1.5,0.6,1.4,0.8
					c-0.2,0.3-2.4-0.2-5,0.2C2.1,2,0.4,3.1,0,2.8z"/>
				<g transform="translate(19.062 0.702)">
					<path class="st2" d="M0,0.8c0-0.2,0.5-0.3,1.3-0.4c1-0.1,2,0.1,2.9,0.4C5.1,1,5.8,1.4,6.5,2.1c0.4,0.5,0.4,0.9,0.2,1
						S6.2,2.9,5.6,2.7C4.9,2.3,4.2,2.1,3.4,1.8C1.7,1.3,0,1.1,0,0.8z"/>
				</g>
				<path class="st2" d="M15.9,3.3c-0.4,1.2-0.7,2.4-0.8,3.6c-0.2,1.2-0.2,2.4-0.2,3.7l0,0.9l0,0.2c0,0.1,0,0.2,0,0.3
					c0,0.2,0.1,0.4,0.2,0.6c0.2,0.4,0.5,0.7,0.8,0.9c0.2,0.1,0.4,0.2,0.6,0.2c0.1,0,0.1,0,0.2,0.1c0.3,0.3,0.4,0.8,0.2,1.2
					c-0.3,0.5-0.6,1-1,1.4c0.6-0.2,1.2-0.6,1.6-1.1c0.2-0.3,0.4-0.7,0.4-1c0-0.4-0.1-0.9-0.4-1.2c-0.2-0.2-0.4-0.3-0.6-0.4
					c-0.1,0-0.2-0.1-0.3-0.1c-0.2-0.1-0.3-0.3-0.3-0.5c0-0.1-0.1-0.2-0.1-0.3c0,0,0-0.1,0-0.1v-0.2l0-0.9L16,7
					C16,5.8,16,4.5,15.9,3.3z"/>
				<path class="st16" d="M18.5,19.5L6.4,17.4c0,0-1.4,5.2,2.3,6.4S18.5,19.5,18.5,19.5z"/>
				<g transform="translate(1.104 5.964)">
					<path class="st2" d="M9.3,3.4C8.9,2.7,8.2,2.2,7.5,1.9C6.8,1.7,6.1,1.6,5.4,1.6C4.6,1.6,3.9,1.8,3.2,2c-0.7,0.3-1.4,0.6-2,1.1
						L1.1,3.2C1,3.3,0.9,3.3,0.8,3.2C0.5,2.9,0.3,2.6,0,2.3c0.4,0.1,0.8,0.3,1.1,0.4l-0.4,0C1.2,2,1.9,1.4,2.7,1
						c0.8-0.4,1.7-0.6,2.6-0.7c0.9,0,1.9,0.2,2.6,0.8C8.7,1.6,9.2,2.4,9.3,3.4z"/>
					<path class="st2" d="M1.3,2.5L0.9,1.8L1.7,2c0.2,0,0.3,0.2,0.2,0.4S1.7,2.7,1.5,2.7C1.4,2.7,1.3,2.6,1.3,2.5z"/>
				</g>
				<g transform="translate(18.842 6.321)">
					<path class="st2" d="M0,3.5C0.3,2.9,0.8,2.4,1.5,2C2,1.7,2.7,1.6,3.3,1.6c0.7,0,1.3,0.1,2,0.3c0.7,0.2,1.3,0.6,1.9,1L7.3,3
						C7.4,3,7.5,3,7.5,3c0,0,0,0,0,0C7.8,2.7,8,2.3,8.2,2C7.8,2.2,7.5,2.3,7.2,2.5l0.3,0C7,1.8,6.4,1.2,5.6,0.9
						C4.9,0.5,4,0.3,3.2,0.3c-0.8,0-1.6,0.3-2.3,0.9C0.3,1.8,0,2.6,0,3.5z"/>
					<path class="st2" d="M7,2.3l0.3-0.7L6.6,1.8C6.5,1.9,6.4,2.1,6.5,2.3c0.1,0.1,0.2,0.2,0.4,0.2C6.9,2.5,7,2.4,7,2.3z"/>
				</g>
			</g>
			<path class="st7" d="M104.8,138.5c4.1,2.9,9.2,3.9,14.1,4.7c7.8,1.3,15.5,2.4,23.3,3.3c6.4,0.7,18.2,4.2,24.1,0.8
				c2.1-1.2,4.3-2.8,6.6-2.1c3.2,0.8,4.7,5.5,8.1,5.4c2.3,0,3.8-2.5,4.1-4.7c0.3-2.5-0.5-5-2.3-6.8c-3.5-3.3-16.6-3.9-20.9-2.1
				c-1,0.5-2.1,1-3.2,1.2c-1.2,0.1-2.5-0.1-3.7-0.5c-7.6-2.3-15.2-4.6-22.8-6.9c-6.2-1.9-12.7-3.9-17.7-8c-2.9-2.6-5.4-5.5-7.5-8.8
				c-2.9-4.3-5.6-8.7-8-13.3c-0.3-0.7-5.3,7.2-5.5,8c-1.1,3.4-1.1,7-0.2,10.5C95.2,126,98.8,134.2,104.8,138.5z"/>
			<path class="st6" d="M120.1,121.4c-3.8,4.7-8.9,8.3-14.6,10.3c2.7-9.9,2.7-20.2,2.4-30.3c-0.2-6.4-3.3-23.4,0.4-28.3
				c2.3,7.8,3.3,16.6,5.3,24.6C114.1,100.1,120.8,120.5,120.1,121.4z"/>
			
				<linearGradient id="SVGID_5_" gradientUnits="userSpaceOnUse" x1="-13.4892" y1="129.7496" x2="-12.4892" y2="129.7496" gradientTransform="matrix(76.8459 0 0 -99.7724 667.9946 13050.8057)">
				<stop  offset="0.201" style="stop-color:#FFD584"/>
				<stop  offset="0.917" style="stop-color:#FCD271"/>
			</linearGradient>
			<path class="st17" d="M116.4,116.2c4.4,6.5,12.1,10.2,19.6,12.6c7.6,2.4,15.5,3.9,23.4,4.5c-0.1,5.3-0.5,10.7-1.3,16
				c0,1-0.4,2-1.1,2.7c-2,1.9-9.7,3.1-12.2,3.3c-7.6,0.4-14.9-2.7-22-5.7c-6.4-2.8-12.8-5.5-18.6-9.4c-27.6-18.4-31.3-70.8,3.5-84.6
				c-2.6,1,3.1,28.6,3.7,31.9c1.7,9.6-1,19.5,4.6,28.3C116.2,115.9,116.3,116,116.4,116.2z"/>
			<path class="st2" d="M130.7,0.4c4.8-0.3,9.5,1.8,13.3,4.7c4.7,3.8,8.4,9.2,8.9,15.2s-2.4,12.5-7.8,15.2c1.1-2.4,0.4-5.3-1.1-7.5
				c-1.7-2.1-3.7-3.8-5.9-5.2c0.9,2.2-0.1,4.8-1.9,6.4c-1.9,1.4-4.1,2.4-6.5,2.8c-3.9,0.9-8,1.5-12,1.8c1.2-2,0.5-4.5-1.4-5.7
				c-0.3-0.2-0.6-0.3-0.9-0.4c-1.9,4.1-4.7,7.8-8.1,10.8c-4.9-3.6-10.3-8.3-10-14.4c0.2-2.2,0.9-4.3,2-6.1
				c4.4-8,12.1-13.5,21.1-15.2"/>
		</g>
	</g>
</g>
</svg>
