<?xml version="1.0" encoding="utf-8"?>
<!-- Generator: Adobe Illustrator 24.1.2, SVG Export Plug-In . SVG Version: 6.00 Build 0)  -->
<svg version="1.1" id="Layer_1" xmlns="http://www.w3.org/2000/svg" xmlns:xlink="http://www.w3.org/1999/xlink" x="0px" y="0px"
	 viewBox="0 0 426.1 282.7" style="enable-background:new 0 0 426.1 282.7;" xml:space="preserve">
<style type="text/css">
	.st0{opacity:0.45;fill:#CCCCCC;enable-background:new    ;}
	.st1{opacity:0.28;fill:#FF6B6C;enable-background:new    ;}
	.st2{fill:#5E3C69;}
	.st3{fill:#5B89C2;}
	.st4{opacity:0.32;fill:#E29EA6;enable-background:new    ;}
	.st5{fill:#CD4B76;}
	.st6{fill:#E29EA6;}
	.st7{fill:url(#SVGID_1_);}
	.st8{fill:#69B78B;}
	.st9{opacity:0.32;fill:#CCCCCC;enable-background:new    ;}
	.st10{fill:#C6C6C6;}
	.st11{fill:url(#SVGID_2_);}
	.st12{fill:#FFFFFF;}
	.st13{fill:#CCCCCC;}
	.st14{fill:#D9DADB;}
	.st15{opacity:0.29;fill:#FFFFFF;enable-background:new    ;}
</style>
<g transform="translate(-376.748 -63.383)">
	<ellipse class="st0" cx="575.1" cy="319.7" rx="103.5" ry="26.3"/>
	<path class="st1" d="M650.9,111.3c-13.2,3.7-23.2,14.5-25.9,27.9c-1.1,6.3-0.6,12.9-2,19.1c-4,16.9-22,27-39.2,29.3
		c-17.2,2.4-34.7-0.8-52,0.1s-36.2,7.3-44.3,22.7c-6.3,11.9-4.7,26.6,0.8,38.9c11.1,25.1,38.2,42.2,65.7,41.4
		c22.4-0.6,44.8-12,66.5-6.1c17.6,4.8,33.2,20.8,51,16.9c15.6-3.4,23.9-20.5,26.8-36.2c1.5-7.7,2.2-15.9-0.6-23.3
		c-5.8-15.7-26.2-25.7-24.5-42.3c1.6-15.8,21.6-21.9,30.4-35.1C722.6,136.1,675.6,104.8,650.9,111.3z"/>
	<g transform="translate(381.431 63.383)">
		<g transform="translate(117.232 118.381)">
			<path class="st2" d="M159.4,147.2c-4.2,4.3-15.1,8.7-17.9,3.8c-1.1-2,0-4.6,1.2-6.6c3.3-5.9,6.7-10.2,4.9-17.5l11,0.7
				c-0.6,0,0.7,6.1,0.9,6.8c1.1,3.6,2.9,6.8,1.5,10.7C160.6,145.8,160.1,146.6,159.4,147.2z"/>
			<g transform="translate(0 128.758)">
				<path class="st2" d="M124,0c-4.9,1.5-6.6,1.3-11.7,0.9l-8.5,6.8c0,0-9.8,7.3-8.8,10s27.8-5.7,27.8-5.7c2.4-0.7,3.7-3.2,3-5.6
					c-0.1-0.2-0.1-0.4-0.2-0.5C124.5,3,123.6,2.5,124,0z"/>
			</g>
			<path class="st3" d="M157.7,0c0,0,2.1,20.3,1.7,25.8c-0.9,12.6,0.6,107.7,0.8,106.5c0,0-7.4,2.5-12.3-0.1s-17-98.1-17-98.1
				l-1.9-0.4l-10.4,37.7c0,0,7.2,57.9,5.3,58.3s-14.7,3.7-15.8,0.5S97.8,68.6,97.8,68.6l15.8-67.2L157.7,0z"/>
			<path class="st4" d="M108.7,22.2c4.8,7.7,20.2,11.6,20.2,11.6l-10.4,37.7c0,0,7.2,57.9,5.3,58.3s-14.7,3.7-15.8,0.5
				c-1.1-3.2-10.2-61.8-10.2-61.8L108.7,22.2z"/>
		</g>
		<g transform="translate(110.676)">
			<path class="st5" d="M102.8,8.8c-0.4-0.7,0.1-1.6,0.5-2.3c4.5-6.1,12.7-7.8,19.7-5.8c5.7,1.8,10.7,5.4,14.1,10.4
				c1.2,1.7,2.1,3.6,2.7,5.5c0.6,2.8,0.7,5.8,0.4,8.6c-0.3,4.1-0.9,8.8-4.4,11.1c-3,1.8-6.8,1.5-9.3-0.9c-2.4-2.4-2.8-6.1-0.9-8.9"
				/>
			<path class="st6" d="M125.6,35.8c2,0.4,3.6,3.9,4.9,5.3c2.3,2.5,5.4,4.3,7.4,7.1c0.1,0.2,0.2,0.4,0.3,0.6c0,0.3,0,0.6-0.1,0.9
				c-0.5,1.5-1.2,3-2,4.3c-0.9,1.3-2.3,2.2-4,2.4c-0.8,0-1.6-0.1-2.3-0.3c-5.8-1.7-8.4-6.6-12.1-10.7c-1.6-1.7-3.2-3.5-4.8-5.2
				c0.4,0.4,7-2.4,7.7-2.7c1.2-0.4,3.7-1.9,5-1.7C125.5,35.8,125.5,35.8,125.6,35.8z"/>
			<path class="st4" d="M121,49.1l-8.2-8.9l12.8-4.5l6,7.3C128.6,45.9,125,48,121,49.1z"/>
			<path class="st6" d="M103.5,38.7c1.2,2.5,2.9,4.8,5,6.6c2,1.7,3.9,1.9,6.2,2.1c7.3,0.5,16.2-3.5,16.2-13.4
				c1.4,0.4,2.5-1.1,2.5-2.8c0-1.6-0.7-2.8-1.2-4.2c-0.4-1.2-0.6-2.4-1-3.6c-0.9-3-2.3-5.8-4.1-8.3c-1.9-2.3-4.4-4-7.3-4.9
				c-2.5-0.7-5.2-1.1-7.8-1.1c-4.4-0.2-10.9-0.2-12.5,5.6c-0.9,3.4,1.4,8.8,1.8,12.5C101.8,30.9,101.9,34.9,103.5,38.7z"/>
			<g transform="translate(33.553 21.37)">
				<path class="st6" d="M100.8,0.1c1.2,0.5,2.1,1.6,2.4,2.9c0.9,3.8-0.8,7.8-4.3,9.8c-1,0.5-2.4,0.8-3.3,0.1
					c-0.9-0.8-0.8-2.2-0.6-3.3C95.5,7.3,97.4-0.8,100.8,0.1z"/>
				<g transform="translate(3.2 3.041)">
					<path class="st2" d="M98.7,0c-0.5,0.1-1,0.3-1.3,0.7c-0.9,0.8-1.6,1.8-2,3c-0.4,1.2-0.5,2.4-0.5,3.6c0,0.5,0,1,0.1,1.5
						c0.1-0.5,0.1-1,0.1-1.5c0.1-1.2,0.3-2.3,0.6-3.5c0.4-1.1,1-2.1,1.8-2.9C98.2,0.3,98.8,0.1,98.7,0z"/>
					<g transform="translate(1.221 2.92)">
						<path class="st2" d="M94.9,5c0,0,0.2-0.2,0.4-0.7c0.3-0.6,0.4-1.2,0.5-1.8c0.1-0.6-0.1-1.3-0.4-1.9C95.2,0.1,94.9,0,94.9,0
							s0.1,0.3,0.3,0.7c0.2,0.6,0.3,1.1,0.2,1.7C95.3,3,95.2,3.6,95,4.2C94.9,4.7,94.8,4.9,94.9,5z"/>
					</g>
				</g>
			</g>
			<g transform="translate(5.716 24.864)">
				<g transform="translate(9.116)">
					<path class="st5" d="M102.3,1.3c0.1-0.1-0.1-0.4-0.7-0.7C100.8,0.2,99.8,0,98.8,0c-1,0-2,0.2-3,0.6c-0.7,0.3-1,0.6-1,0.7
						c0.2,0.2,1.8-0.4,3.8-0.4C100.7,0.9,102.1,1.6,102.3,1.3z"/>
				</g>
				<path class="st5" d="M95.7,3.1c0.6-0.4,1.1-0.7,2.9-0.4c0.2,0,0.1,0.4-0.1,0.4c-1.8,0.1-3.4,1.1-3.6,0.9
					C94.8,3.8,95.1,3.5,95.7,3.1z"/>
				<path class="st2" d="M99.2,2.6c0.4,0.8,0.8,1.7,1,2.6c0.3,0.9,0.5,1.8,0.6,2.8l0.1,0.7l0,0.2c0,0.1,0,0.2,0,0.2
					c0,0.2,0,0.3-0.1,0.5c-0.1,0.3-0.3,0.6-0.5,0.8c-0.1,0.1-0.3,0.2-0.4,0.2c-0.1,0-0.1,0-0.1,0.1c-0.2,0.3-0.2,0.7,0,0.9
					c0.3,0.4,0.6,0.7,1,0.9c-0.5-0.1-1-0.3-1.3-0.6c-0.2-0.2-0.3-0.5-0.4-0.7c-0.1-0.3,0-0.7,0.2-0.9c0.1-0.2,0.2-0.3,0.4-0.4
					c0.1,0,0.1-0.1,0.2-0.1c0.1-0.1,0.2-0.3,0.2-0.4c0-0.1,0-0.2,0-0.2c0,0,0-0.1,0-0.1l0-0.2l-0.1-0.7l-0.4-2.8
					C99.4,4.4,99.2,3.5,99.2,2.6z"/>
				<g transform="translate(11.924 3.852)">
					<path class="st2" d="M96,2.9c0.5,0,0.9-0.7,0.8-1.6S95.9-0.1,95.4,0s-0.7,0.7-0.5,1.5S95.5,2.9,96,2.9z"/>
				</g>
				<g transform="translate(1.925 5.159)">
					<path class="st2" d="M96,2.9c0.5,0,0.9-0.7,0.8-1.6S95.9-0.1,95.4,0s-0.7,0.7-0.5,1.5S95.5,2.9,96,2.9z"/>
				</g>
				<path class="st2" d="M102.5,15l9.6-2.3c0,0,1.6,3.6-2.2,5.1C104.8,19.8,102.5,15,102.5,15z"/>
				<path class="st5" d="M108.4,15.9c1.1-0.9,2.6-1.2,3.9-0.9l0,0c-0.2,1.4-1.1,2.5-2.5,2.9c-1,0.4-2.1,0.6-3.1,0.4
					C107.1,17.3,107.7,16.5,108.4,15.9z"/>
			</g>
			<path class="st5" d="M105,20.4c4,2.8,9.2,3.2,13.7,1.2c1.3,2.1,4.2,2.5,6.7,2.1c1.6-0.1,3-0.9,4-2.1c0.9-1.5,1-3.5,0.1-5
				c-0.9-1.5-2.1-2.8-3.5-3.9c-3.1-2.8-6.6-5-10.5-6.7c-7.8-3-16.2-0.6-20,7.3C92.3,19.9,101.8,28.6,105,20.4z"/>
		</g>
		
			<linearGradient id="SVGID_1_" gradientUnits="userSpaceOnUse" x1="10.7228" y1="167.5567" x2="11.7228" y2="167.5567" gradientTransform="matrix(52.93 0 0 -56.4001 -360.3319 9598.8711)">
			<stop  offset="0.201" style="stop-color:#FFD584"/>
			<stop  offset="0.917" style="stop-color:#FCD271"/>
		</linearGradient>
		<path class="st7" d="M207.2,166.5c5.6,5.8,13.5,8.9,21.5,9.9s16.1,0.1,24.1-0.9c1.5,0.2,2.9-0.9,3.1-2.4c0-0.2,0-0.4,0-0.6
			c1.4-16.3,2.9-32.5,4.3-48.8c-10.2,0.7-20.4-0.3-30.2-3.1c-3.1-0.9,2.5,4.6,1.7,3.3c-0.2-0.3,2.3-2.9-0.8-1.8
			c-4,1.3-5.5,10-7.2,13.3C218.2,145.8,210.5,155.1,207.2,166.5z"/>
		<g transform="translate(83.324 44.636)">
			<path class="st6" d="M153.5,57.2c-2.8,2.4-6.5,3.4-10.1,4.3c-5.6,1.4-11.3,2.7-16.9,3.8c-4.6,0.9-13.1,4.2-17.6,2.1
				c-1.6-0.8-3.3-1.8-5-1.2c-2.3,0.8-3.1,4.3-5.6,4.5c-1.7,0.1-3-1.6-3.3-3.2c-0.4-1.8,0.1-3.7,1.3-5.1c2.4-2.6,12-3.9,15.2-2.8
				c0.8,0.3,1.6,0.6,2.4,0.7c0.9,0,1.8-0.2,2.7-0.6l16.3-6.5c4.5-1.8,9.1-3.6,12.5-7c2-2.1,3.7-4.4,5-6.9c1.9-3.3,3.6-6.7,5-10.3
				c0.2-0.5,4.3,5,4.6,5.6c1,2.4,1.3,5.1,0.8,7.7C159.8,47.5,157.6,53.7,153.5,57.2z"/>
			<path class="st4" d="M153.5,57.2c-2.8,2.4-6.5,3.4-10.1,4.3c-5.6,1.4-11.3,2.7-16.9,3.8c-4.6,0.9-13.1,4.2-17.6,2.1
				c-1.6-0.8-3.3-1.8-5-1.2c-2.3,0.8-3.1,4.3-5.6,4.5c-1.7,0.1-3-1.6-3.3-3.2c-0.4-1.8,0.1-3.7,1.3-5.1c2.4-2.6,12-3.9,15.2-2.8
				c0.8,0.3,1.6,0.6,2.4,0.7c0.9,0,1.8-0.2,2.7-0.6l16.3-6.5c4.5-1.8,9.1-3.6,12.5-7c2-2.1,3.7-4.4,5-6.9c1.9-3.3,3.6-6.7,5-10.3
				c0.2-0.5,4.3,5,4.6,5.6c1,2.4,1.3,5.1,0.8,7.7C159.8,47.5,157.6,53.7,153.5,57.2z"/>
			<path class="st8" d="M151.6,31.6c1.1,13.1,1.4,26.5-2.1,39.3c5,1.6,46.2,12.9,42.4,0.1c5.7-1.8,3.4-11.5,2.9-16.1
				c-0.6-6.1-1.6-12.2-3.1-18.1C188.6,25,183.1,13,173.1,5.5c-2.8-2.1-8.2-6.6-11.2-5.1c-2.2,1.1-4.4,5.6-7.3,7.2
				c-4.3,2.3-5.2,2.4-4.6,8.1C150.6,20.9,151.2,26.2,151.6,31.6z"/>
			<path class="st9" d="M151.6,31.6c1.1,13.1,1.4,26.5-2.1,39.3c5,1.6,46.2,12.9,42.4,0.1c5.7-1.8,3.4-11.5,2.9-16.1
				c-0.6-6.1-1.6-12.2-3.1-18.1C188.6,25,183.1,13,173.1,5.5c-2.8-2.1-8.2-6.6-11.2-5.1c-2.2,1.1-4.4,5.6-7.3,7.2
				c-4.3,2.3-5.2,2.4-4.6,8.1C150.6,20.9,151.2,26.2,151.6,31.6z"/>
			<path class="st10" d="M164.6,12.3c1.6-4.3,4.8-8.3,9.1-9.6c-1.7-1.4-3.6-2.9-5.8-2.7c-0.8,0.1-1.6,0.3-2.3,0.7
				c-4.4,2.2-7.4,6.7-8.7,11.5s-1,9.8-0.2,14.7c1.8,0.3,3.6,0.6,5.4,0.8c0.2,0,0.4,0,0.6,0C162.8,27.8,164,14,164.6,12.3z"/>
			<path class="st9" d="M164.6,12.3c1.6-4.3,4.8-8.3,9.1-9.6c-1.7-1.4-3.6-2.9-5.8-2.7c-0.8,0.1-1.6,0.3-2.3,0.7
				c-4.4,2.2-7.4,6.7-8.7,11.5s-1,9.8-0.2,14.7c1.8,0.3,3.6,0.6,5.4,0.8c0.2,0,0.4,0,0.6,0C162.8,27.8,164,14,164.6,12.3z"/>
			
				<linearGradient id="SVGID_2_" gradientUnits="userSpaceOnUse" x1="-71.0211" y1="123.0236" x2="-70.0211" y2="123.0236" gradientTransform="matrix(26.042 0 0 -53.7133 1994.5087 6657.8804)">
				<stop  offset="0.201" style="stop-color:#FFD584"/>
				<stop  offset="0.917" style="stop-color:#FCD271"/>
			</linearGradient>
			<path class="st11" d="M145,26c0.7,6.4,1.5,12.7,2.2,19.1c0.5,4.1,1.1,8.4,0.5,12.6c-0.6,4.5-1.8,8.8-0.5,13.4
				c0.1,0.6,0.4,1.2,0.9,1.7c0.5,0.4,1.1,0.7,1.7,0.8c2,0.5,20.9,2.1,21.2,3.2c-3-11.5-6-23.2-5.6-35.1c0.1-3.2,0.4-6.4-0.1-9.6
				c-0.6-4.1-2.3-8.4-6.6-9.1C157.4,22.8,145.1,27.2,145,26z"/>
			<path class="st9" d="M158.5,42.8c3.3,2.4,7.2,3.9,11.3,4.4c-2.7-5.6-3.4-11.7-3.9-17.8c-0.3-3.8,0.7-14.3-2.3-16.8
				c-1.1,4.9-1.2,10.3-2,15.3C161.3,29.4,157.9,42.3,158.5,42.8z"/>
			<path class="st10" d="M147.3,75.7c0,0.3,0,0.6-0.1,0.9c0,0.3,19.6,2.8,21.2,2.9c7.9,0.7,15.8,0.1,23.4-1.8
				c-0.2-2.3-0.2-4.6,0.1-6.9c-0.1,0.9-11.7,1.5-12.9,1.6c-4.6,0.3-9.1,0.2-13.7-0.2c-3.3-0.3-6.6-0.8-10-1.3
				c-2.9-0.4-5.7,0.1-8.6-0.2C147.2,72.4,147.4,74.1,147.3,75.7z"/>
			<path class="st9" d="M146.8,75.8l0,0.6c0,0.1,0,0.2,0,0.4c0.1,0.1,0.2,0.2,0.4,0.2l5.2,1.1c2.1,0.5,5.6,0.2,8.1,0.6
				c3.5,0.5,7,0.9,10.5,1c1.8,0.1,21-0.3,20.8-2c-0.2-2.3-0.2-4.6,0.1-6.9c-0.1,0.9-11.7,1.5-12.9,1.6c-4.6,0.3-9.1,0.2-13.7-0.2
				c-6.1-0.5-12.2-1.2-18.2-1.8C147,72.3,146.9,74,146.8,75.8z"/>
			<g transform="translate(16.81 41.569)">
				<path class="st6" d="M147.6,0c-1.5,2.7-3.2,5.4-4.9,7.9c-7.7,11.3-18.3,19-30.4,24.8c-1.2,0.7-2.5,1.1-3.9,1.3
					c-0.6,0.1-10.4,0.2-5.4,2.4c0.8,0.2,1.6,0.5,2.3,0.9c-0.9-0.6-7.9,2.3-9.1,2.8c-0.5,0.1-0.9,0.4-1.3,0.8c-0.3,0.4-0.3,1,0,1.4
					c0.2,0.1,0.4,0.2,0.7,0.3l3.7,0.7c0,1.1,0.6,2.1,1.5,2.6c0.9,0.5,2,0.8,3,0.7c8.6,0.3,11.2-6.7,17.8-10.7
					c2.8-1.5,5.6-2.7,8.5-3.9c13.9-6.3,25.4-17,32.5-30.5C157.8,0.8,152.7,0.3,147.6,0z"/>
			</g>
			<path class="st8" d="M162.4,44.9l17.1,5.7c0.6,0.3,1.3,0.3,1.9,0.1c0.5-0.3,0.9-0.9,1-1.5c4.1-10.6,4.9-32.1-6.5-39
				c-2.3-1.5-5.2-1.9-7.8-1.2c-1,0.3-1.9,0.8-2.8,1.4c-0.8,0.6-1.5,1.4-1.9,2.4c-0.3,1.1-0.5,2.2-0.4,3.3
				C163.1,19,162.2,44.9,162.4,44.9z"/>
		</g>
		<path class="st12" d="M225.7,143.9l24,0.7l-3.8,14l-15.6,4.2l-12.4-8.4L225.7,143.9z"/>
		<g transform="translate(45.158 107.935)">
			<path class="st10" d="M104.2,22.2c-4,2.8-8.4,6-9.4,10.8c2.5-0.3,4.6-1.7,6.6-3.1l29.6-20.6c-7,8.5-15,16-23.8,22.6
				c-2,1.5-4.2,3.4-3.9,5.8c15.2-7,27-19.7,38.3-32c1.2-1.3,2.4-3.4,1.1-4.6c-4.3-3.8-14.3,5.1-17.4,7.1
				C118.3,12.7,111.2,17.4,104.2,22.2z"/>
			<path class="st9" d="M140.5,0c-3.3,4.3-7.6,7.8-11.5,11.7c-6.5,7.5-13.8,14.2-21.7,20.1c-2,1.5-4.2,3.4-3.9,5.8
				c15.2-7,27-19.7,38.3-32c1.2-1.3,2.4-3.4,1.1-4.6C142.1,0.4,141.3,0.1,140.5,0z"/>
		</g>
		<g transform="translate(20.33 143.09)">
			<rect x="138.1" y="44.8" class="st13" width="4.9" height="86.9"/>
			<rect x="190.5" y="39.5" class="st13" width="4.9" height="86.9"/>
			<rect x="100.3" y="17.8" class="st13" width="4.9" height="86.9"/>
			<rect x="157.9" y="17.3" class="st13" width="4.9" height="86.9"/>
			<path class="st13" d="M97,8.1v12.6l44.9,31.2V39.2L97,8.1z"/>
			<path class="st13" d="M141.4,39.2l0.4,12.7l56.7-6.3V33.1L141.4,39.2z"/>
			<path class="st10" d="M141.4,39.2l0.4,12.7l56.7-6.3V33.1L141.4,39.2z"/>
			<path class="st2" d="M94.9,5.7l59.8-4.4L201.4,31L141,35.3L94.9,5.7z"/>
			<path class="st10" d="M94.9,6.1l59.8-4.7l3.4,2.3L98.6,8.6L94.9,6.1z"/>
			<path class="st10" d="M102.8,10.9l59.8-4.4l3.4,2.2l-59.5,4.6L102.8,10.9z"/>
			<path class="st10" d="M111.4,16.4l59.8-4.4l3.4,2.2l-59.5,4.6L111.4,16.4z"/>
			<path class="st10" d="M119.6,21.7l59.8-4.4l3.4,2.2l-59.5,4.6L119.6,21.7z"/>
			<path class="st10" d="M130.2,28.4l59.8-4.4l3.4,2.2l-59.5,4.6L130.2,28.4z"/>
			<path class="st10" d="M138.2,33.3l59.8-4.4l3.4,2.2l-59.5,4.6L138.2,33.3z"/>
			<path class="st10" d="M154.7,1.3v2.5l42.6,27.6l4.1-0.3L154.7,1.3z"/>
			<path class="st9" d="M154.7,1.3v2.5l42.6,27.6l4.1-0.3L154.7,1.3z"/>
			<path class="st14" d="M94.9,5.7v2.4l46.5,31.1l0.4-3.5L94.9,5.7z"/>
			<path class="st14" d="M141.8,35.7v3.5l59.5-4.9v-3.2L141.8,35.7z"/>
			<g transform="translate(11.028 0)">
				<path class="st5" d="M108.2,2.3l-9,2.7c-2,0.6-4.3,1.6-4.3,3.3c0.1,1,0.8,1.9,1.7,2.3c1,0.5,2.1,0.7,3.2,0.8
					c1.8,0.2,3.6,0.1,5.4-0.3c1.2-0.3,2.4-0.7,3.5-1.2c3.1-1.2,14.6-3.7,13.7-7.5C121.1-2.4,111.3,1.4,108.2,2.3z"/>
				<path class="st9" d="M122.3,2.4c-0.3-1.1-1.2-2-2.4-2.2c1.2,5.5-7.2,7.2-13.1,8.6c-3.7,0.9-9.4,1.6-11.9-0.5v0
					c0.1,1,0.8,1.9,1.7,2.3c1,0.5,2.1,0.7,3.2,0.8c1.8,0.2,3.6,0.1,5.4-0.3c1.2-0.3,2.4-0.7,3.5-1.2C111.8,8.7,123.3,6.1,122.3,2.4z
					"/>
			</g>
			<g transform="translate(24.77 7.332)">
				<path class="st5" d="M108.2,2.3l-9,2.7c-2,0.6-4.3,1.6-4.3,3.3c0.1,1,0.8,1.9,1.7,2.3c1,0.5,2.1,0.7,3.2,0.8
					c1.8,0.2,3.6,0.1,5.4-0.3c1.2-0.3,2.4-0.7,3.5-1.2c3.1-1.2,14.6-3.7,13.7-7.5C121.1-2.4,111.3,1.4,108.2,2.3z"/>
				<path class="st9" d="M122.3,2.4c-0.3-1.1-1.2-2-2.4-2.2c1.2,5.5-7.2,7.2-13.1,8.6c-3.7,0.9-9.4,1.6-11.9-0.5v0
					c0.1,1,0.8,1.9,1.7,2.3c1,0.5,2.1,0.7,3.2,0.8c1.8,0.2,3.6,0.1,5.4-0.3c1.2-0.3,2.4-0.7,3.5-1.2C111.8,8.7,123.3,6.1,122.3,2.4z
					"/>
			</g>
			<g transform="translate(39.509 14.971)">
				<path class="st5" d="M108.2,2.3l-9,2.7c-2,0.6-4.3,1.6-4.3,3.3c0.1,1,0.8,1.9,1.7,2.3c1,0.5,2.1,0.7,3.2,0.8
					c1.8,0.2,3.6,0.1,5.4-0.3c1.2-0.3,2.4-0.7,3.5-1.2c3.1-1.2,14.6-3.7,13.7-7.5C121.1-2.4,111.3,1.4,108.2,2.3z"/>
				<path class="st9" d="M122.3,2.4c-0.3-1.1-1.2-2-2.4-2.2c1.2,5.5-7.2,7.2-13.1,8.6c-3.7,0.9-9.4,1.6-11.9-0.5v0
					c0.1,1,0.8,1.9,1.7,2.3c1,0.5,2.1,0.7,3.2,0.8c1.8,0.2,3.6,0.1,5.4-0.3c1.2-0.3,2.4-0.7,3.5-1.2C111.8,8.7,123.3,6.1,122.3,2.4z
					"/>
			</g>
			<g transform="translate(56.385 21.715)">
				<path class="st5" d="M108.2,2.3l-9,2.7c-2,0.6-4.3,1.6-4.3,3.3c0.1,1,0.8,1.9,1.7,2.3c1,0.5,2.1,0.7,3.2,0.8
					c1.8,0.2,3.6,0.1,5.4-0.3c1.2-0.3,2.4-0.7,3.5-1.2c3.1-1.2,14.6-3.7,13.7-7.5C121.1-2.4,111.3,1.4,108.2,2.3z"/>
				<path class="st9" d="M122.3,2.4c-0.3-1.1-1.2-2-2.4-2.2c1.2,5.5-7.2,7.2-13.1,8.6c-3.7,0.9-9.4,1.6-11.9-0.5v0
					c0.1,1,0.8,1.9,1.7,2.3c1,0.5,2.1,0.7,3.2,0.8c1.8,0.2,3.6,0.1,5.4-0.3c1.2-0.3,2.4-0.7,3.5-1.2C111.8,8.7,123.3,6.1,122.3,2.4z
					"/>
			</g>
		</g>
		<path class="st15" d="M94.9,126.8c-0.2-5,5.2-8.1,9.9-9.8c7.3-2.6,14.8-4.8,21.3-9s12.1-10.7,12.8-18.4c0.6-7.1-2.8-13.8-4.2-20.8
			c-2.3-11.5,1.9-24.5,11.7-30.9c5.4-3.6,12-4.9,18.5-5.1c8.4-0.3,16.8,1.2,24.6,4.6c4,1.8,7.8,4.1,10.4,7.6s3.6,8.4,1.8,12.3
			c-3.4,7.3-14,7.9-19.4,13.9c-1.2,1.2-1.9,2.8-2,4.5c0,2.9,2.6,5.1,5.1,6.5c6.3,3.5,13.7,4.5,20.8,6s14.4,4,19.1,9.6
			c1.9,2.3,3.3,5.3,2.3,8.1c-0.9,2.4-3.3,3.8-5.6,4.9c-7.8,3.4-17.2,5-21.9,12.1c-2.8,4.3-3.4,11-2.5,16c0.5,3,1.8,3.5,0.8,6.6
			c-0.6,1.9-2.8,3-2.6,5.3c0.2,1.9,2,3.1,3.5,4.2s3,3,2.2,4.7c-0.5,1.1-1.7,1.7-2.2,2.7c-0.4,1.2,0,2.6,0.9,3.5
			c0.8,1,1.9,1.7,2.8,2.6c2.2,2.4-8.9,3.9-10.1,3.8c-1.1-0.2-2.2,0.2-3,1c-2.8,2.2-6.2,3.5-9.7,3.9c-1.3,0.2-2.7,0-3.9-0.7
			c-0.4-0.4-0.9-0.7-1.4-0.9c-0.6-0.1-1.3,0-1.9,0.2c-6.9,1.9-13.5-0.8-19.1-4.5c-2.3-1.5-5.4-1.2-7.8-2.6c-3.4-2-4.3-7-8-8.5
			c-1.7-0.7-4-0.6-5.1-2.1c-0.6-0.8-0.7-2-1.3-2.8c-1.1-1.5-3.6-1.5-4.6-3.1c-0.8-1.2-0.5-2.9-1.2-4.1c-1.1-2-4-1.8-6.3-1.6
			c-4.8,0.5-10.5-5.5-14.3-8.2C101.1,135.7,95.2,132.1,94.9,126.8z"/>
	</g>
</g>
</svg>
