<?xml version="1.0" encoding="utf-8"?>
<!-- Generator: Adobe Illustrator 24.1.2, SVG Export Plug-In . SVG Version: 6.00 Build 0)  -->
<svg version="1.1" id="Layer_1" xmlns="http://www.w3.org/2000/svg" xmlns:xlink="http://www.w3.org/1999/xlink" x="0px" y="0px"
	 viewBox="0 0 426.1 282.7" style="enable-background:new 0 0 426.1 282.7;" xml:space="preserve">
<style type="text/css">
	.st0{opacity:0.45;fill:#CCCCCC;enable-background:new    ;}
	.st1{fill:url(#SVGID_1_);}
	.st2{fill:#5E3C69;}
	.st3{fill:#5B89C2;}
	.st4{opacity:0.32;fill:#E29EA6;enable-background:new    ;}
	.st5{fill:#CD4B76;}
	.st6{fill:#FFFFFF;}
	.st7{fill:#E29EA6;}
	.st8{fill:#C7857C;}
	.st9{fill:url(#SVGID_2_);}
	.st10{fill:url(#SVGID_3_);}
	.st11{fill:url(#SVGID_4_);}
	.st12{fill:none;stroke:#707070;stroke-width:0.276;stroke-miterlimit:10;}
</style>
<g transform="translate(-242.126 -61.832)">
	<ellipse class="st0" cx="438.4" cy="329.7" rx="65" ry="14.8"/>
	
		<linearGradient id="SVGID_1_" gradientUnits="userSpaceOnUse" x1="256.5465" y1="228.0541" x2="257.5645" y2="228.0541" gradientTransform="matrix(194.7185 0 0 -160.6521 -49580.7891 36832.8945)">
		<stop  offset="0.201" style="stop-color:#FFD584"/>
		<stop  offset="0.917" style="stop-color:#FCD271"/>
	</linearGradient>
	<path class="st1" d="M496.2,172.4c-7.9,0.4-15.8,0.5-23.9-3.4c-29.7-14.2-46.1-52.4-82.2-53.7c-6-0.3-12,0.7-17.5,3
		c-20.4,9.1-24.2,37.2-17.6,58.5c9.5,30.7,34.9,55.9,65.7,65.1c8.6,2.6,17.5,4,25.7,7.7c15,6.8,26.3,21.1,42.3,25.2
		c13.7,3.5,28.8-1.5,39.2-11.1c10.4-9.6,16.3-23.4,18.4-37.4c2.8-18.8-4.3-44.6-24-52.1C513.5,170.9,504.9,171.9,496.2,172.4z"/>
	<g transform="translate(295.778 183.8)">
		<path class="st2" d="M111.9,151.8c4.3,4.5,15.6,9,18.4,3.9c1.1-2.1,0-4.7-1.2-6.8c-3.5-6.1-7-10.6-5-18l-11.4,0.7
			c0.6,0-0.7,6.3-0.9,7c-1.1,3.7-3,7.1-1.5,11.1C110.7,150.4,111.2,151.2,111.9,151.8z"/>
		<g transform="translate(38.743 132.784)">
			<path class="st2" d="M111.8,0c5,1.5,6.8,1.4,12.1,1l8.8,7c0,0,10.1,7.6,9.1,10.3s-28.7-5.9-28.7-5.9c-2.5-0.7-3.8-3.3-3.1-5.8
				c0.1-0.2,0.1-0.4,0.2-0.6C111.3,3.1,112.2,2.6,111.8,0z"/>
		</g>
		<path class="st3" d="M113.7,0c0,0-2.1,21-1.8,26.6c0.9,13-0.6,111-0.8,109.9c0,0,7.7,2.6,12.7-0.1s17.6-101.2,17.6-101.2l1.9-0.4
			l10.7,38.9c0,0-7.4,59.7-5.5,60.2s15.2,3.8,16.3,0.5s10.6-63.7,10.6-63.7L159.1,1.4L113.7,0z"/>
		<path class="st4" d="M164.2,22.9c-4.9,7.9-20.8,12-20.8,12L154,73.8c0,0-7.4,59.7-5.5,60.2s15.2,3.8,16.3,0.5s10.6-63.7,10.6-63.7
			L164.2,22.9z"/>
	</g>
	<path class="st5" d="M448.5,111c2.2,1.2,4.3,2.5,6.3,4c1.5,1.1,16.9,13.5,16.2,14.2c-17.6,18.1-4.7,41.1-9.4,62.4
		c-0.1,0.6-0.3,1.2-0.7,1.7c-0.6,0.6-1.4,0.9-2.3,1c-19.5,3.8-39.6,2.8-58.6-2.8c3.8-12.1,5.9-26.1,3.9-38.7
		c-1.8-11.1-5.2-21.3,1.2-31.9c2-3.5,4.6-6.6,7.8-9c6.2-4.4,17.3-5.1,24.7-4.2C441.4,108.1,445.1,109.2,448.5,111z"/>
	<g transform="translate(285.962 61.832)">
		<path class="st6" d="M127.3,52.5c1,4.3,7.5,5.6,11.1,4.5c4.3-1.5,7-5.8,6.7-10.3c0-0.2-0.1-0.4-0.2-0.6c-0.8-1.2-4.6-0.7-5.7-0.6
			c-1.7,0.2-12.3,4.1-11.9,6.6C127.2,52.2,127.3,52.3,127.3,52.5z"/>
		<g transform="translate(0 25.552)">
			<path class="st7" d="M110.8,0.4c-0.9,0.8-1.2,2.1-1,3.2c0.6,3.5,3.4,6.3,7,6.7c1,0.2,2.1-0.2,2.8-1.1c0.5-0.9-0.1-2.1-0.7-3
				C117.8,4.5,113.4-1.6,110.8,0.4z"/>
			<g transform="translate(1.109 3.23)">
				<path class="st2" d="M109.8,0c0.5-0.1,0.9,0,1.4,0.1c1.1,0.3,2,1,2.7,1.8c0.7,0.8,1.3,1.8,1.7,2.8c0.2,0.4,0.3,0.8,0.4,1.3
					c-0.3-0.4-0.5-0.8-0.6-1.2c-0.5-1-1-1.9-1.7-2.7c-0.7-0.8-1.6-1.4-2.6-1.8C110.3,0.1,109.8,0.1,109.8,0z"/>
				<g transform="translate(2.953 1.559)">
					<path class="st2" d="M111.8,4.1c0,0-0.3-0.1-0.6-0.4c-0.4-0.4-0.8-0.8-1.1-1.3c-0.3-0.5-0.4-1.1-0.4-1.7
						c0.1-0.5,0.2-0.7,0.3-0.7s0,0.3,0,0.7c0,0.5,0.2,1.1,0.4,1.5c0.3,0.5,0.6,0.9,0.9,1.3C111.7,3.9,111.9,4.1,111.8,4.1z"/>
				</g>
			</g>
		</g>
		<g transform="translate(31.266 17.908)">
			<path class="st7" d="M114.7,0c1.1,0.4,2,1.3,2.3,2.5c1,3.4-0.4,7.1-3.4,9c-0.9,0.6-2,0.7-2.9,0.2c-0.9-0.6-0.9-1.9-0.7-3
				C110.2,6.8,111.6-0.6,114.7,0z"/>
			<g transform="translate(2.863 2.687)">
				<path class="st2" d="M113,0c-0.4,0.1-0.9,0.4-1.2,0.7c-0.8,0.8-1.4,1.7-1.7,2.8c-0.3,1.1-0.4,2.2-0.3,3.3c0,0.5,0.1,0.9,0.2,1.3
					c0.1-0.4,0.1-0.9,0.1-1.3c0-1.1,0.1-2.1,0.4-3.2c0.3-1,0.8-2,1.5-2.7C112.6,0.3,113,0.1,113,0z"/>
				<g transform="translate(0.945 2.758)">
					<path class="st2" d="M110,4.5c0,0,0.2-0.2,0.3-0.6c0.2-0.5,0.3-1.1,0.4-1.7c0-0.6-0.1-1.2-0.4-1.7c-0.2-0.4-0.5-0.5-0.5-0.5
						s0.1,0.2,0.3,0.6c0.2,0.5,0.3,1,0.3,1.6c0,0.5-0.1,1.1-0.3,1.6C110,4.2,110,4.5,110,4.5z"/>
				</g>
			</g>
		</g>
		<path class="st7" d="M138.6,37.5l2.7,9.2c0.7,2.4-0.7,5-3.1,5.7c-0.1,0-0.2,0.1-0.3,0.1l-2.2,0.5c-2.3,0.5-4.6-0.7-5.4-2.9
			l-4.8-13.4L138.6,37.5z"/>
		<path class="st4" d="M129.5,47.7l-3.9-11l13,0.9l2.6,8.7C137.5,47.6,133.5,48.1,129.5,47.7z"/>
		<path class="st7" d="M144.4,28.7c0.4,3.3-0.3,6.7-2.2,9.4c-3.3,5.1-8.5,6.5-14.3,5.4c-4.8-0.8-7.4-2.7-9.1-7.2
			c-1.8-4.8-4.2-9.3-3.5-14.5c0.4-2.7,1.6-5.2,3.4-7.2c1.7-1.8,3.6-3.3,5.7-4.6c3.4-2.3,8.6-5.4,12.6-1.7c4.7,4.3,6.4,14.1,7.3,20.1
			C144.4,28.5,144.4,28.6,144.4,28.7z"/>
		<g transform="translate(6.81 18.207)">
			<path class="st2" d="M115.9,14.8c-0.2,0.2-0.3,0.4-0.4,0.6c-1.5-2.3-3-4.6-4.5-7c-0.6,0-1.1,0.4-1.2,1c0,0.6,0.1,1.2,0.3,1.7
				c0.8,2.1,0.6,15.6,6.3,12.2c0.7,2.7,3.5,4.4,6.2,3.7c0.1,0,0.2,0,0.3-0.1c0.5-0.3,1-0.4,1.5-0.2c0.3,0.1,0.5,0.3,0.7,0.6
				c1.2,1.2,3.7,0.9,4.3-0.7c0.1-0.2,0.2-0.5,0.3-0.7c0.3-0.3,0.9-0.2,1.4-0.1c2.4,0.4,3.8-2.1,3.6-4.1c1.2,0.1,2.4-0.4,3.2-1.4
				c0.3-0.5,0.5-1.1,0.6-1.7c0.4-1.4,1.7-4.1,1.5-5.5c-0.1-0.6-2.1-3.5-2.3-2.7c0.4-1.8-0.3-3.7-1.8-4.9c0.5-1.6,0.1-3.4-1.1-4.7
				c-0.2,0.4-0.6,9.5-0.8,9.4c-0.7-0.4-1.7-0.1-2.1,0.6c-0.4,0.7-0.6,1.5-0.6,2.3c-2.2-2-3.9,1.6-5.8,1.7c-2.2,0.2-4-2.7-5.9,0.6
				c-0.2-1.2-1.4-1.9-2.5-1.7C116.7,14.2,116.2,14.4,115.9,14.8L115.9,14.8z"/>
			<g transform="translate(3.545 1.365)">
				<path class="st2" d="M109.9,3.3c-0.1,0-0.1-0.4,0.3-0.9c0.5-0.7,1.2-1.2,2-1.6c0.8-0.4,1.7-0.7,2.7-0.8c0.7,0,1.1,0.1,1.1,0.2
					c0,0.2-1.6,0.4-3.2,1.2C111,2.3,110.2,3.3,109.9,3.3z"/>
			</g>
			<g transform="translate(15.11)">
				<path class="st2" d="M109.8,0.6c0-0.1,0.5-0.3,1.2-0.4c1-0.2,1.9-0.2,2.9-0.1c0.8,0,1.6,0.3,2.3,0.7c0.5,0.3,0.4,0.6,0.2,0.7
					c-0.4,0-0.7,0-1-0.1c-0.5-0.1-1.3-0.2-2.2-0.3C111.5,0.7,109.8,0.8,109.8,0.6z"/>
			</g>
			<g transform="translate(17.868 3.97)">
				<path class="st2" d="M111.2,3c0.5-0.1,0.9-0.9,0.6-1.7s-1-1.3-1.5-1.2s-0.6,0.9-0.3,1.7S110.7,3.1,111.2,3z"/>
			</g>
			<g transform="translate(6.88 7.138)">
				<path class="st2" d="M110.9,3.1c0.5,0,1-0.7,0.9-1.6S111,0,110.5,0s-0.7,0.7-0.6,1.6S110.3,3.1,110.9,3.1z"/>
			</g>
			<path class="st2" d="M123.1,5.1c0.3,0.8,0.6,1.6,0.9,2.4l0.8,2.4l0.2,0.6l0.1,0.3c0,0.1,0,0.1,0.1,0.2c0.1,0.1,0.2,0.2,0.3,0.2
				c0.1,0,0.1,0,0.2,0c0.2,0,0.3,0,0.5,0.1c0.3,0.2,0.4,0.4,0.5,0.7c0.1,0.3,0.1,0.5,0,0.8c-0.2,0.4-0.5,0.8-0.8,1.1
				c0.2-0.4,0.3-0.8,0.4-1.2c0-0.3-0.1-0.6-0.4-0.8c0,0-0.1,0-0.1,0c-0.1,0-0.3,0-0.4,0c-0.3-0.1-0.6-0.2-0.8-0.4
				c-0.1-0.1-0.2-0.3-0.2-0.4l-0.1-0.3l-0.2-0.6c-0.3-0.8-0.5-1.7-0.6-2.5C123.1,6.8,123.1,6,123.1,5.1z"/>
			<g transform="translate(13.69 17.148)">
				<path class="st6" d="M115,0c-0.1,0-0.3,0.2-0.6,0.5c-0.5,0.4-1,0.7-1.6,0.9c-0.7,0.2-1.3,0.3-2,0.3c-0.5,0-0.9-0.1-0.9,0
					s0.3,0.2,0.8,0.3c0.8,0.1,1.6,0.1,2.4-0.2c0.7-0.2,1.3-0.6,1.8-1.2C115.1,0.3,115.1,0,115,0z"/>
			</g>
		</g>
		<path class="st2" d="M118.9,20c0-0.5,0.2-1,0.5-1.5c0.5-0.4,1.1-0.7,1.7-0.8c3.1-0.9,5.6-3.1,6.9-6.1c2.5,1.7,5.7,2.2,8.6,1.3
			c0.3-0.2,0.7-0.2,1.1-0.1c0.3,0.2,0.5,0.5,0.6,0.9c1.2,3.3,1.8,6.9,3.2,10.1c1.2-1.7,2.2-3.5,3.9-4.9c0.4-0.3-1.2-6.3-1.4-6.9
			c-0.7-2.8-1.8-5.5-3.2-8c-1.9-3.1-4.6-4.2-8.2-3.9c-4.5,0.4-9,1.2-13.3,2.6c-4.4,1.5-7.5,4.4-8.2,9s0.4,9.2,1.4,13.7
			c0,0.3,0.2,0.6,0.4,0.9c0.3,0.2,0.7,0.3,1.1,0.3c2.4,0.3,3.1,3.4,4.9,4.6C119.9,27.9,118.5,23.4,118.9,20z"/>
	</g>
	<g transform="translate(299.289 93.599)">
		<path class="st7" d="M212.7,29.6l-0.4-5c-0.1-0.9-0.5-2.1-1.3-2c-0.5,0.1-0.8,0.5-1.1,1c-1.5,2.8-1.5,6.1-0.2,8.9"/>
		<path class="st8" d="M161.5,33.3c3.7-5.7,10.4-9,17.1-9.3c6.8-0.2,13.5,2.1,18.8,6.3c7.8,5.9,13,15.6,11.9,25.3S199.8,74,190,74
			c-2.6,0-5.3-0.6-7.9-0.1c-4.6,0.9-8,4.9-10.1,9.1s-3.1,8.9-5.5,13c-6.9,12.1-24,16.2-36.6,10.2S110,86,109.8,72.1
			c-0.1-5.5,1-11.2,4.3-15.5c5.9-7.8,17.1-9.1,26.9-8.7c4.5,0.2,9.8,0.8,13.4-2.3C158,42.6,159.1,37,161.5,33.3z"/>
		<path class="st2" d="M155.5,66.1c2.6,4.3,8.1,5.6,12.4,3c4.3-2.6,5.6-8.1,3-12.4c-2.6-4.3-8.1-5.6-12.4-3c0,0,0,0,0,0
			C154.2,56.3,152.9,61.8,155.5,66.1C155.5,66.1,155.5,66.1,155.5,66.1z"/>
		<path class="st2" d="M186.9,41.1L234,13.6l5.4,9l-46.7,28.3L186.9,41.1z"/>
		<path class="st8" d="M234,13.6l2.6-5.7l11.7-7.1c2.3-1.4,5.3-0.7,6.8,1.5l3.2,4.8c1.4,2.2,1,5.1-1.1,6.7l-8.4,6.3l-9.4,2.4
			L234,13.6z"/>
		
			<linearGradient id="SVGID_2_" gradientUnits="userSpaceOnUse" x1="-38.6347" y1="141.7468" x2="-38.3317" y2="141.7468" gradientTransform="matrix(9.9566 0 0 -14.475 520.4924 2097.8499)">
			<stop  offset="0.201" style="stop-color:#FFD584"/>
			<stop  offset="0.917" style="stop-color:#FCD271"/>
		</linearGradient>
		<path class="st9" d="M194.1,53.1L194.1,53.1c0.7-0.4,0.9-1.4,0.5-2.1l-6.9-11.5c-0.4-0.7-1.4-0.9-2.1-0.5l0,0
			c-0.7,0.4-0.9,1.4-0.5,2.1l6.9,11.5C192.5,53.3,193.4,53.5,194.1,53.1z"/>
		
			<linearGradient id="SVGID_3_" gradientUnits="userSpaceOnUse" x1="-25.7549" y1="141.7466" x2="-25.4509" y2="141.7466" gradientTransform="matrix(9.9558 0 0 -14.4754 461.3405 2133.7041)">
			<stop  offset="0.201" style="stop-color:#FFD584"/>
			<stop  offset="0.917" style="stop-color:#FCD271"/>
		</linearGradient>
		<path class="st10" d="M135,88.9L135,88.9c0.7-0.4,0.9-1.4,0.5-2.1l-6.9-11.5c-0.4-0.7-1.4-0.9-2.1-0.5l0,0
			c-0.7,0.4-0.9,1.4-0.5,2.1l6.9,11.5C133.4,89.1,134.3,89.3,135,88.9z"/>
		
			<linearGradient id="SVGID_4_" gradientUnits="userSpaceOnUse" x1="-49.913" y1="143.4881" x2="-49.553" y2="143.4881" gradientTransform="matrix(8.3912 0 0 -11.8912 500.0975 1724.0388)">
			<stop  offset="0.201" style="stop-color:#FFD584"/>
			<stop  offset="0.917" style="stop-color:#FCD271"/>
		</linearGradient>
		<path class="st11" d="M240,23.5L240,23.5c0.7-0.4,0.9-1.4,0.5-2.1l-5.4-8.9c-0.4-0.7-1.4-0.9-2.1-0.5l0,0
			c-0.7,0.4-0.9,1.4-0.5,2.1L238,23C238.4,23.7,239.3,24,240,23.5z"/>
		<g transform="translate(18.086 15.195)">
			<line class="st12" x1="217.7" y1="1.4" x2="110.6" y2="66.2"/>
			<line class="st12" x1="216.9" y1="0" x2="109.8" y2="64.9"/>
			<line class="st12" x1="219.4" y1="4.1" x2="112.3" y2="68.9"/>
			<line class="st12" x1="220.2" y1="5.4" x2="113.1" y2="70.3"/>
			<line class="st12" x1="218.5" y1="2.7" x2="111.5" y2="67.6"/>
		</g>
		<path class="st7" d="M214.6,35.5c0-3.6-1.7-7-4.5-9.1c-1.5-1.2-3.7-1.9-5.1-0.8c-0.5,0.5-0.9,1.1-1.2,1.8c-0.7,1.9-1,3.9-0.7,5.9
			c0.4,2.2,1.1,4.3,2,6.3c1.3,3,2.4,5.3,5.3,3.7C212.9,42,214.5,38.3,214.6,35.5z"/>
	</g>
	<path class="st7" d="M413.2,152.1c0.3,1.7,1,3.2,2.1,4.5c1.7,1.8,4.3,2.1,6.7,2.2c9.8,0.4,19.3-1.8,29-1.2c1.1,0.1,2.6,0.5,2.6,1.6
		c-1,0.4-1.9,0.7-2.9,1.1c-0.5,0.2,4.1,4.2,4.5,4.9c1.2,2,0.7,4.6-1.2,5.9c-2.2,1.5-5.2,1.1-7.7,0.2s-5-2.2-7.6-2.4
		c-2.8-0.2-5.5,0.8-8.1,1.6c-4.4,1.4-8.9,2.4-13.4,3c-8.9,1.1-16.4-0.8-19.6-9.8c-3.2-9-5.4-25.1,2.8-31.6
		C413.4,121.3,411.8,146.3,413.2,152.1z"/>
	<path class="st5" d="M416.3,109.9c-5.5,2.3-11.1,4.8-15,9.3c-2.7,3.4-4.7,7.4-5.7,11.7c-0.5,2-5.9,25.7-2.8,25.4
		c2.2-0.2,21.5-3.6,21.6-2.6c-0.8-8.6-0.5-17.3,1-25.8c0.4-2.2,0.5-5.1-1.6-5.9c-2-0.7-3.1-0.8-4.8-2c-0.5-0.3-0.9-0.7-1.2-1.1
		C406.7,117.1,414.8,111.2,416.3,109.9z"/>
</g>
</svg>
