<?xml version="1.0" encoding="utf-8"?>
<!-- Generator: Adobe Illustrator 24.1.2, SVG Export Plug-In . SVG Version: 6.00 Build 0)  -->
<svg version="1.1" id="light" xmlns="http://www.w3.org/2000/svg" xmlns:xlink="http://www.w3.org/1999/xlink" x="0px" y="0px"
	 viewBox="0 0 512 512" style="enable-background:new 0 0 512 512;" xml:space="preserve">
<style type="text/css">
	.st0{fill:#707070;}
</style>
<path class="st0" d="M501.3,192H394.7c-5.9,0-10.7-4.8-10.7-10.7s4.8-10.7,10.7-10.7h96v-96c0-5.9,4.8-10.7,10.7-10.7
	S512,68.8,512,74.7v106.7C512,187.2,507.2,192,501.3,192z"/>
<path class="st0" d="M10.7,448C4.8,448,0,443.2,0,437.3V330.7c0-5.9,4.8-10.7,10.7-10.7h106.7c5.9,0,10.7,4.8,10.7,10.7
	s-4.8,10.7-10.7,10.7h-96v96C21.3,443.2,16.6,448,10.7,448z"/>
<path class="st0" d="M12.8,234.7c-0.4,0-0.9,0-1.4-0.1c-5.8-0.8-10-6.1-9.2-12C18.6,95.7,127.7,0,256,0
	c115.1,0,222.6,74.9,255.5,178.1c1.8,5.6-1.3,11.6-6.9,13.4c-5.7,1.8-11.6-1.3-13.4-6.9C461,90,362.1,21.3,256,21.3
	c-117.6,0-217.6,87.7-232.6,204C22.7,230.7,18.1,234.7,12.8,234.7L12.8,234.7z"/>
<path class="st0" d="M256,512C140.7,512,33.2,437.1,0.5,333.9c-1.8-5.6,1.3-11.6,6.9-13.4c5.7-1.8,11.6,1.3,13.4,7
	C50.8,422,149.7,490.7,256,490.7c117.6,0,217.6-87.7,232.6-204c0.8-5.8,5.9-9.9,12-9.2c5.8,0.8,10,6.1,9.2,12
	C493.4,416.3,384.3,512,256,512L256,512z"/>
<path class="st0" d="M225.6,426.7c-1.3,0-2.5-0.2-3.7-0.7c-4.7-1.7-7.5-6.5-6.8-11.4l18.2-137.3H160c-4,0-7.7-2.3-9.5-5.9
	c-1.8-3.6-1.4-7.9,1-11.2l128-170.7c3-4,8.2-5.3,12.7-3.4c4.5,1.9,7.1,6.7,6.3,11.6l-19.3,115.6H352c3.9,0,7.5,2.2,9.4,5.6
	c1.9,3.5,1.7,7.7-0.5,10.9l-126.4,192C232.4,424.9,229.1,426.7,225.6,426.7L225.6,426.7z M181.3,256h64c3.1,0,6,1.3,8,3.6
	s3,5.4,2.6,8.4l-13.7,103.2l90-136.6h-65.5c-3.1,0-6.1-1.4-8.1-3.8c-2-2.4-2.9-5.5-2.4-8.6l14.1-84.9L181.3,256z"/>
</svg>
