<svg xmlns="http://www.w3.org/2000/svg" width="33" height="50.2" viewBox="0 0 33 50.2"><defs><style>.a{fill:#fff;font-size:10px;font-family:OpenSans-Bold, Open Sans;font-weight:700;letter-spacing:0.018em;}.b{fill:#ff6b6c;}.c{fill:#00b6bd;}.d{fill:#fffefa;}.e{fill:#fffdfa;}.f{fill:#ffbeb5;}.g{fill:#e6aca3;}</style></defs><g transform="translate(-191 -625)"><text class="a" transform="translate(193 672.2)"><tspan x="0" y="0">PRICE</tspan></text><g transform="translate(191 625)"><path class="b" d="M413.252,351.734V344H407v10.248h6.252v-2.514Z" transform="translate(-380.768 -321.828)"/><path class="c" d="M9.5,0A9.76,9.76,0,0,1,19,10,9.76,9.76,0,0,1,9.5,20,9.76,9.76,0,0,1,0,10,9.76,9.76,0,0,1,9.5,0Z" transform="translate(7)"/><ellipse class="d" cx="8" cy="8.5" rx="8" ry="8.5" transform="translate(10 3)"/><path d="M136.25,56.5a8.247,8.247,0,1,1,6.98-3.85l-.872-.551a7.229,7.229,0,1,0-.727.963l.768.688A8.263,8.263,0,0,1,136.25,56.5Z" transform="translate(-119.75 -37.422)"/><path d="M98.828,21.656a10.828,10.828,0,1,1,10.828-10.828A10.84,10.84,0,0,1,98.828,21.656Zm0-20.625a9.8,9.8,0,1,0,9.8,9.8A9.808,9.808,0,0,0,98.828,1.031Z" transform="translate(-82.328)"/><path class="e" d="M360,360h3.094v8.25H360Z" transform="translate(-336.797 -336.797)"/><path d="M448,464h2.063v1.031H448Z" transform="translate(-419.125 -434.094)"/><path class="f" d="M18.828,371.094l-2.062-.516L14.7,368.516H11.094L10.578,368H8v1.031l5.672,5.672,9.281,2.063,7.734-1.547v-5.672l-.026-.026a3.61,3.61,0,0,0-5.1,0l-.542.542h-2.38a2.578,2.578,0,0,0-2.394,1.621l-.383.957.516-1.547Z" transform="translate(-7.484 -344.281)"/><path class="f" d="M18.828,371.094l-2.062-.516L14.7,368.516H11.094L10.578,368H8v1.031l5.672,5.672,9.281,2.063,7.734-1.547v-5.672l-.026-.026a3.61,3.61,0,0,0-5.1,0l-.542.542h-2.38a2.578,2.578,0,0,0-2.394,1.621l-.383.957.516-1.547Z" transform="translate(-7.484 -344.281)"/><path class="g" d="M59.609,376H56l3.609,3.609,2.578,1.031h2.578v-2.063l-3.094-.516Z" transform="translate(-52.391 -351.766)"/><path d="M207.734,105.031V104H200v1.031h3.609a1.55,1.55,0,0,1,1.458,1.031h-4.037v1.031h4.037a1.55,1.55,0,0,1-1.458,1.031h-2.435a1.174,1.174,0,0,0-.6,2.181l4.837,2.9.531-.884-4.837-2.9a.143.143,0,0,1,.073-.265h2.435a2.583,2.583,0,0,0,2.526-2.062h1.083v-1.031h-1.083a2.568,2.568,0,0,0-.465-1.031Z" transform="translate(-187.109 -97.297)"/><path d="M328,160h1.031v1.031H328Z" transform="translate(-306.859 -149.688)"/><path d="M168,160h1.031v1.031H168Z" transform="translate(-157.172 -149.688)"/><path d="M33,344.25v-7.734a.516.516,0,0,0-.516-.516H26.232a.516.516,0,0,0-.516.516v.516H23.2a.516.516,0,0,0-.516.516v1.014a4.13,4.13,0,0,0-4.979.658l-.391.391H15.152a3.079,3.079,0,0,0-2.309,1.031h-.932l-2.375-.475-1.952-1.952a.516.516,0,0,0-.365-.151H5.672v1.031H7.005l1.911,1.911a.517.517,0,0,0,.263.141l2.578.516a.512.512,0,0,0,.1.01h.373l-.336.84a.516.516,0,0,0,.479.707h7.219v-1.031H13.137l.1-.25a2.053,2.053,0,0,1,1.915-1.3h2.38a.515.515,0,0,0,.365-.151l.542-.542a3.094,3.094,0,0,1,4.25-.118v5.029L15.474,346.3l-9.028-2.006L1.031,338.88v-.3H2.88l3.974,3.974a.517.517,0,0,0,.173.114L9.605,343.7a.515.515,0,0,0,.191.037h1.031V342.7H9.9l-2.388-.955-4.05-4.05a.516.516,0,0,0-.365-.151H.516a.516.516,0,0,0-.516.516v1.031a.516.516,0,0,0,.151.365l5.672,5.672a.516.516,0,0,0,.253.139l9.281,2.063a.517.517,0,0,0,.213,0l7.13-1.426a.516.516,0,0,0,.5.4h2.514v.451a.516.516,0,0,0,.516.516h6.252a.516.516,0,0,0,.516-.516v-1.482H31.969v.967H26.748v-.2a.513.513,0,0,0,.064-.25v-8.25a.513.513,0,0,0-.064-.25v-.266h5.221v7.219Zm-9.281,1.031v-7.219h2v7.219Z" transform="translate(0 -314.344)"/><path d="M448,40h1.031v1.031H448Z" transform="translate(-419.125 -37.422)"/><path d="M448,72h1.031v1.031H448Z" transform="translate(-419.125 -67.359)"/><path d="M432,56h1.031v1.031H432Z" transform="translate(-404.156 -52.391)"/><path d="M464,56h1.031v1.031H464Z" transform="translate(-434.094 -52.391)"/><path d="M48,240h1.031v1.031H48Z" transform="translate(-44.906 -224.531)"/><path d="M48,272h1.031v1.031H48Z" transform="translate(-44.906 -254.469)"/><path d="M32,256h1.031v1.031H32Z" transform="translate(-29.937 -239.5)"/><path d="M64,256h1.031v1.031H64Z" transform="translate(-59.875 -239.5)"/></g></g></svg>