<svg id="Safety_Icon" data-name="Safety Icon" xmlns="http://www.w3.org/2000/svg" width="25.081" height="29.453" viewBox="0 0 25.081 29.453">
  <defs>
    <style>
      .cls-1 {
        fill: #00d3c7;
      }

      .cls-2 {
        fill: #479f9a;
      }

      .cls-3 {
        fill: #fff;
      }

      .cls-4 {
        fill: #dff0ef;
      }

      .cls-5 {
        fill: #bededc;
      }

      .cls-6 {
        fill: #6fa5aa;
      }
    </style>
  </defs>
  <path id="Path_1994" data-name="Path 1994" class="cls-1" d="M24.257,19.669A14.859,14.859,0,0,1,20.7,25.213a18.628,18.628,0,0,1-6.955,4.121,2.127,2.127,0,0,1-.676.119h-.025a2.16,2.16,0,0,1-.415-.041,2.241,2.241,0,0,1-.285-.078,18.627,18.627,0,0,1-6.963-4.119,14.831,14.831,0,0,1-3.558-5.543C.382,15.772.464,11.474.53,8.021V7.968c.013-.285.022-.585.027-.915A3.122,3.122,0,0,1,3.5,3.995,12.113,12.113,0,0,0,11.741.52L11.76.5a1.887,1.887,0,0,1,2.561,0l.019.018a12.115,12.115,0,0,0,8.245,3.475,3.122,3.122,0,0,1,2.939,3.058c0,.333.013.632.027.915v.022C25.618,11.45,25.7,15.756,24.257,19.669Zm0,0" transform="translate(-0.5 0)"/>
  <path id="Path_1995" data-name="Path 1995" class="cls-2" d="M230.139,19.672a14.86,14.86,0,0,1-3.559,5.544,18.628,18.628,0,0,1-6.955,4.121,2.127,2.127,0,0,1-.676.119V0a1.89,1.89,0,0,1,1.255.5l.019.018A12.115,12.115,0,0,0,228.468,4a3.122,3.122,0,0,1,2.939,3.058c0,.333.013.632.026.915v.022C231.5,11.454,231.582,15.76,230.139,19.672Zm0,0" transform="translate(-206.383 -0.004)"/>
  <path id="Path_1996" data-name="Path 1996" class="cls-3" d="M105.575,135.739a7.349,7.349,0,0,1-7.314,7.341h-.026a7.34,7.34,0,1,1,0-14.681h.026A7.349,7.349,0,0,1,105.575,135.739Zm0,0" transform="translate(-85.695 -121.012)"/>
  <path id="Path_1997" data-name="Path 1997" class="cls-4" d="M226.264,135.739a7.349,7.349,0,0,1-7.314,7.341V128.4A7.349,7.349,0,0,1,226.264,135.739Zm0,0" transform="translate(-206.383 -121.012)"/>
  <path id="Path_1998" data-name="Path 1998" class="cls-5" d="M161.21,213.455l-3.306,3.306-.714.714a.865.865,0,0,1-1.223,0l-1.536-1.537a.864.864,0,1,1,1.222-1.222l.925.925,3.409-3.409a.864.864,0,0,1,1.222,1.222Zm0,0" transform="translate(-145.337 -199.785)"/>
  <path id="Path_1999" data-name="Path 1999" class="cls-6" d="M222.255,213.455l-3.306,3.306v-2.445l2.084-2.084a.864.864,0,0,1,1.222,1.222Zm0,0" transform="translate(-206.383 -199.785)"/>
</svg>
