<svg id="Layer_1" data-name="Layer 1" xmlns="http://www.w3.org/2000/svg" viewBox="0 0 38.07 38.07"><defs><style>.cls-1{fill:none;}.cls-2{fill:#fff;fill-rule:evenodd;}</style></defs><g id="Icon_Search_Filled" data-name="Icon Search Filled"><rect id="Box" class="cls-1" x="943.42" y="523.8" width="32.85" height="32.85" transform="translate(-1020.16 -345.99) rotate(-10.02)"/><path id="Icon_Search" data-name="Icon Search" class="cls-2" d="M965,542.09l-1.07.19-.44-.3a8.89,8.89,0,0,0-9.2-13.29h0A8.89,8.89,0,0,0,947.11,539h0a8.89,8.89,0,0,0,10.31,7.22h0a8.86,8.86,0,0,0,5.33-3.11l.43.3.19,1.07L971.3,550l1.65-2.36L965,542.1ZM957,543.52a6.17,6.17,0,0,1-7.14-5h0a6.16,6.16,0,1,1,7.14,5Z" transform="translate(-940.81 -521.2)"/></g></svg>