<svg xmlns="http://www.w3.org/2000/svg" width="36" height="47.2" viewBox="0 0 36 47.2"><defs><style>.a{fill:#fff;font-size:10px;font-family:OpenSans-Bold, Open Sans;font-weight:700;letter-spacing:0.018em;}.b{fill:#57565c;}.c{fill:#91cc04;}.d{fill:#e0e0e2;}.e{fill:#acabb1;}.f{fill:#00b6bd;}.g{fill:#bdfdff;}</style></defs><g transform="translate(-305 -628)"><text class="a" transform="translate(305 672.2)"><tspan x="0" y="0">STATES</tspan></text><g transform="translate(298 580)"><path class="b" d="M192,88h6.667V99.667H192Z" transform="translate(-171.222 -37.222)"/><path class="c" d="M22.661,270.679a3.333,3.333,0,1,1-4.948-2.917,2.222,2.222,0,1,1,3.229,0,3.331,3.331,0,0,1,1.719,2.917Z" transform="translate(-7.438 -201.012)"/><path class="c" d="M406.661,270.679a3.333,3.333,0,1,1-4.948-2.917,2.222,2.222,0,1,1,3.229,0A3.331,3.331,0,0,1,406.661,270.679Z" transform="translate(-364.772 -201.012)"/><path class="d" d="M40.889,131.333a1.111,1.111,0,0,1-1.111,1.111H33.111a1.111,1.111,0,1,1,0-2.222h.37a2.222,2.222,0,1,1,4.444,0h1.852A1.111,1.111,0,0,1,40.889,131.333Z" transform="translate(-22.333 -74.444)"/><path class="e" d="M347.111,84.167a1.389,1.389,0,0,1-1.389,1.389h-8.333a1.389,1.389,0,0,1,0-2.778h.463a2.778,2.778,0,0,1,5.556,0h2.315A1.389,1.389,0,0,1,347.111,84.167Z" transform="translate(-305.222 -29.778)"/><path class="d" d="M234,99.778H224V77.556L234,72Z" transform="translate(-201 -22.333)"/><path class="e" d="M142.111,271,136,270.861V256h6.111Z" transform="translate(-119.111 -193.556)"/><g transform="translate(24.667 61.333)"><path class="f" d="M248,376h6.667v6.667H248Z" transform="translate(-248 -366.556)"/><path class="f" d="M248,304h6.667v2.778H248Z" transform="translate(-248 -299.556)"/><path class="f" d="M248,240h6.667v2.778H248Z" transform="translate(-248 -240)"/></g><path class="g" d="M248,176h6.667v2.778H248Z" transform="translate(-223.333 -119.111)"/><path class="g" d="M160,280h2.778v2.778H160Z" transform="translate(-141.444 -215.889)"/><path class="f" d="M160,344h2.778v2.778H160Z" transform="translate(-141.444 -275.444)"/><path class="f" d="M160,408h2.778v2.778H160Z" transform="translate(-141.444 -335)"/><path d="M481.111,464h-.556a.556.556,0,1,0,0,1.111h.556a.556.556,0,0,0,0-1.111Z" transform="translate(-439.222 -387.111)"/><path d="M56.556,329.667a.556.556,0,0,0,.556-.556v-.556a.556.556,0,1,0-1.111,0v.556A.556.556,0,0,0,56.556,329.667Z" transform="translate(-44.667 -260.556)"/><path d="M40.962,66.612a2.778,2.778,0,1,0-4.813,0A3.889,3.889,0,0,0,38,73.515v.808l-1.418-.709a.556.556,0,1,0-.5.994L38,75.566v1.323H33.556V56.333H40.5a1.944,1.944,0,1,0,0-3.889H38.694a3.331,3.331,0,0,0-5.139-2.214v-.564a.556.556,0,0,0-.825-.486L28,51.809V50.778a.556.556,0,0,0-.556-.556H24.667V48.556a.556.556,0,1,0-1.111,0v1.667H20.778a.556.556,0,0,0-.556.556V61.889H16.889a.556.556,0,0,0-.556.556V76.889H12.444V73.515a3.889,3.889,0,0,0,1.851-6.9,2.778,2.778,0,1,0-4.813,0,3.889,3.889,0,0,0,1.851,6.9v.808l-1.418-.709a.556.556,0,1,0-.5.994l1.915.958v1.323H8.556a.556.556,0,1,0,0,1.111H39.667a.556.556,0,1,0,0-1.111h-.556V73.515a3.889,3.889,0,0,0,1.851-6.9ZM9.111,69.667a2.78,2.78,0,0,1,1.433-2.431.556.556,0,0,0,.134-.868,1.667,1.667,0,1,1,2.422,0,.556.556,0,0,0,.134.868,2.778,2.778,0,0,1-.79,5.153V70.222a.556.556,0,1,0-1.111,0v2.167A2.782,2.782,0,0,1,9.111,69.667Zm26.3-18.889A2.225,2.225,0,0,1,37.63,53a.556.556,0,0,0,.556.556H40.5a.833.833,0,1,1,0,1.667H33.556V51.771a2.233,2.233,0,0,1,1.852-.993Zm-14.074.556h5.556v1.093l-4.159,2.31a.556.556,0,0,0-.286.486v6.667H21.333ZM17.444,63h5V76.876l-5-.114Zm7.778,13.889V71.333h2.222v5.556Zm3.333,0V71.333h2.222v5.556Zm3.333,0V70.778a.556.556,0,0,0-.556-.556H24.667a.556.556,0,0,0-.556.556v6.111h-.556V55.549l8.889-4.938V76.889Zm7.222-4.5V70.222a.556.556,0,1,0-1.111,0v2.167a2.778,2.778,0,0,1-.79-5.153.556.556,0,0,0,.134-.868,1.667,1.667,0,1,1,2.422,0,.556.556,0,0,0,.134.868,2.778,2.778,0,0,1-.79,5.153Z" transform="translate(0 0)"/><path d="M440.556,328a.556.556,0,0,0-.556.556v.556a.556.556,0,0,0,1.111,0v-.556A.556.556,0,0,0,440.556,328Z" transform="translate(-402 -260.556)"/><path d="M25.648,125.554h6.667a1.667,1.667,0,0,0,0-3.333H30.963a2.778,2.778,0,0,0-5.445.005,1.667,1.667,0,0,0,.13,3.328Zm-.393-2.059a.554.554,0,0,1,.393-.163h.37a.556.556,0,0,0,.556-.556,1.667,1.667,0,0,1,3.333,0,.556.556,0,0,0,.556.556h1.852a.556.556,0,0,1,0,1.111H25.648a.556.556,0,0,1-.393-.948Z" transform="translate(-14.87 -66.999)"/><path d="M247.222,296h-6.667a.556.556,0,0,0-.556.556v2.778a.556.556,0,0,0,.556.556h6.667a.556.556,0,0,0,.556-.556v-2.778A.556.556,0,0,0,247.222,296Zm-.556,2.778h-5.556v-1.667h5.556Z" transform="translate(-215.889 -230.778)"/><path d="M247.222,232h-6.667a.556.556,0,0,0-.556.556v2.778a.556.556,0,0,0,.556.556h6.667a.556.556,0,0,0,.556-.556v-2.778A.556.556,0,0,0,247.222,232Zm-.556,2.778h-5.556v-1.667h5.556Z" transform="translate(-215.889 -171.222)"/><path d="M247.222,168h-6.667a.556.556,0,0,0-.556.556v2.778a.556.556,0,0,0,.556.556h6.667a.556.556,0,0,0,.556-.556v-2.778A.556.556,0,0,0,247.222,168Zm-.556,2.778h-5.556v-1.667h5.556Z" transform="translate(-215.889 -111.667)"/><path d="M155.333,272h-2.778a.556.556,0,0,0-.556.556v2.778a.556.556,0,0,0,.556.556h2.778a.556.556,0,0,0,.556-.556v-2.778A.556.556,0,0,0,155.333,272Zm-.556,2.778h-1.667v-1.667h1.667Z" transform="translate(-134 -208.444)"/><path d="M155.333,336h-2.778a.556.556,0,0,0-.556.556v2.778a.556.556,0,0,0,.556.556h2.778a.556.556,0,0,0,.556-.556v-2.778A.556.556,0,0,0,155.333,336Zm-.556,2.778h-1.667v-1.667h1.667Z" transform="translate(-134 -268)"/><path d="M155.333,400h-2.778a.556.556,0,0,0-.556.556v2.778a.556.556,0,0,0,.556.556h2.778a.556.556,0,0,0,.556-.556v-2.778A.556.556,0,0,0,155.333,400Zm-.556,2.778h-1.667v-1.667h1.667Z" transform="translate(-134 -327.556)"/></g></g></svg>