<?xml version="1.0" encoding="utf-8"?>
<!-- Generator: Adobe Illustrator 24.1.2, SVG Export Plug-In . SVG Version: 6.00 Build 0)  -->
<svg version="1.1" id="Layer_1" xmlns="http://www.w3.org/2000/svg" xmlns:xlink="http://www.w3.org/1999/xlink" x="0px" y="0px"
	 viewBox="0 0 426.1 282.7" style="enable-background:new 0 0 426.1 282.7;" xml:space="preserve">
<style type="text/css">
	.st0{opacity:0.45;fill:#CCCCCC;enable-background:new    ;}
	.st1{fill:#C6DE8A;}
	.st2{fill:#AB777D;}
	.st3{fill:url(#SVGID_1_);}
	.st4{fill:url(#SVGID_2_);}
	.st5{fill:#5E3C69;}
	.st6{opacity:0.32;fill:#E29EA6;enable-background:new    ;}
	.st7{fill:#E29EA6;}
	.st8{fill:#CD4B76;}
	.st9{fill:#5B89C2;}
	.st10{fill:url(#SVGID_3_);}
	.st11{opacity:0.36;fill:#E29EA6;enable-background:new    ;}
</style>
<g transform="translate(-73.358 -75.887)">
	<ellipse class="st0" cx="298" cy="347.8" rx="112.4" ry="10.8"/>
	<path class="st1" d="M377.8,142.7c-5.6-1.3-11.4-1.9-17.2-1.7c-14.1,0.2-28,3.7-42,6c-27.7,4.4-52.1,2.3-78.8-3.5
		c-21.4-4.6-41.7-3.8-60.6,10.1c-17.1,12.5-26.9,34.3-24.9,55.3c2.1,21.1,16.1,40.6,35.4,49.1c20.3,8.9,43.6,5.9,65.8,4.8
		c18.9-0.9,39.7,0.5,56.6,9.8c17.5,9.7,27.5,23.9,49.6,23.9c20.7,0,40.9-12.6,50.1-31.1c9.5-19.2,7.4-41.9,5-63.1
		c-1.9-17.2-4.6-35.9-17-48.1C393.8,148.3,386.1,144.6,377.8,142.7z"/>
	<path class="st2" d="M329.2,193.8c5.5,6.6,11.6,12.7,18.4,18c2.5,2,8.4,4.9,8.7,7.5c0.1,1-1.1,3.1-0.9,4.5
		c0.5,6.4,7.6,22,12.9,10.7c3.7-7.9-0.4-18.6-5.9-24.4l-24.8-26"/>
	<g transform="translate(95.94 251.545)">
		<path class="st2" d="M179.3,17.4c0,0-14.9,6.6-82.3,22.7c-2.2,1.8-6.2,4.4-9.4,3.8s-1.4-17.5,4.2-16.4
			c17.9,3.4,51.5-20.6,65.6-26.5l17.3-1L179.3,17.4z"/>
		
			<linearGradient id="SVGID_1_" gradientUnits="userSpaceOnUse" x1="5.0315" y1="-6.9528" x2="6.7675" y2="-6.9528" gradientTransform="matrix(17.7674 0 0 -36.1909 171.9588 -207.8816)">
			<stop  offset="0.201" style="stop-color:#FFD584"/>
			<stop  offset="0.917" style="stop-color:#FCD271"/>
		</linearGradient>
		<path class="st3" d="M97.9,26.6c-1,5.7-0.6,7.5,0.6,13.1l-6.6,10.6c0,0-7,12.1-10.2,11.5S84.2,30,84.2,30c0.5-2.9,3.3-4.8,6.2-4.3
			c0.1,0,0.3,0.1,0.4,0.1C94.3,26.5,95,27.4,97.9,26.6z"/>
	</g>
	<g transform="translate(210.017 226.262)">
		<path class="st2" d="M104.4,13.7c0,0,5,20.7-2.1,70.5c1.3,2.6,2.9,6.9,1.6,10s-17.4-2.1-15-7.4c7.3-16.9,7-55.9,4.4-70.9L80.7,0
			L104.4,13.7z"/>
		
			<linearGradient id="SVGID_2_" gradientUnits="userSpaceOnUse" x1="-117.6987" y1="22.0571" x2="-116.7237" y2="22.0571" gradientTransform="matrix(36.2003 0 0 -16.7337 4473.1177 459.87)">
			<stop  offset="0.201" style="stop-color:#FFD584"/>
			<stop  offset="0.917" style="stop-color:#FCD271"/>
		</linearGradient>
		<path class="st4" d="M88.5,83.9c5.7,0.6,7.5,0.1,13-1.5l10.8,5.9c0,0,12.3,6.2,11.9,9.5s-31.7-0.5-31.7-0.5s-5.2-0.6-4.4-6.4
			C88.6,87.5,89.5,86.7,88.5,83.9z"/>
	</g>
	<path class="st5" d="M282.5,193.2c0,0,37.4,34.3,38.7,39.6c1.2,5.3-6.3,70.1-6.3,70.1l-13.8,0.7l-3.4-60.6l-32.9-24.5L282.5,193.2z
		"/>
	<path class="st6" d="M282.5,193.2c0,0,37.4,34.3,38.7,39.6c1.2,5.3-6.3,70.1-6.3,70.1l-13.8,0.7l-3.4-60.6l-32.9-24.5L282.5,193.2z
		"/>
	<path class="st5" d="M275.1,186.8c0,0-23-9.1-30.6,5.7s9.8,58.4,9.8,58.4L197,275.6l7.7,16c0,0,79.8-18.3,83.4-22.5
		c3.6-4.2-1.3-42-1.3-42l-5.1-23L275.1,186.8z"/>
	<g transform="translate(238.435 84.763)">
		<path class="st7" d="M94.8,30.3c-2.2,0.4-4,4.4-5.5,6c-2.6,2.8-6,4.9-8.4,8c-0.2,0.2-0.3,0.4-0.3,0.6c0,0.3,0,0.7,0.2,1
			c0.5,1.7,1.3,3.3,2.3,4.8c1,1.5,2.6,2.5,4.4,2.7c0.9,0,1.8-0.1,2.6-0.4c6.5-1.9,9.4-7.4,13.6-12c1.8-2,3.6-3.9,5.4-5.9
			c-0.4,0.4-7.8-2.7-8.6-3c-1.4-0.5-4.2-2.1-5.6-1.9C94.9,30.3,94.9,30.3,94.8,30.3z"/>
		<path class="st6" d="M100,45.3l9.2-10l-14.4-5l-6.7,8.2C91.5,41.6,95.5,43.9,100,45.3z"/>
		<path class="st7" d="M119.6,33.5c-1.3,2.9-3.2,5.4-5.6,7.4c-2.3,2-4.4,2.2-7,2.3c-8.2,0.5-18.2-3.9-18.2-15.1
			C87.3,28.7,86,26.9,86,25c0-1.8,0.8-3.1,1.3-4.8c0.4-1.4,0.6-2.7,1.1-4.1c1-3.4,2.6-6.5,4.7-9.4c2.1-2.6,5-4.5,8.1-5.5
			c2.9-0.8,5.8-1.2,8.8-1.3c5-0.3,12.3-0.2,14,6.3c1,3.8-1.6,9.9-2.1,14C121.5,24.7,121.4,29.3,119.6,33.5z"/>
		<g transform="translate(1.387 14.094)">
			<path class="st7" d="M83.6,0.1c-1.4,0.5-2.4,1.7-2.7,3.2c-1.1,4.3,0.9,8.8,4.8,11c1.1,0.6,2.7,0.9,3.7,0.1c1-0.8,0.9-2.4,0.7-3.7
				C89.6,8.1,87.5-0.9,83.6,0.1z"/>
			<g transform="translate(1.665 3.414)">
				<path class="st5" d="M80.7,0c0.6,0.1,1.1,0.4,1.5,0.8c1.1,0.9,1.8,2.1,2.3,3.4c0.4,1.3,0.6,2.6,0.6,4c0,0.6,0,1.1-0.2,1.7
					c-0.1-0.5-0.2-1.1-0.2-1.7c-0.1-1.3-0.3-2.6-0.7-3.9c-0.4-1.2-1.1-2.4-2-3.3C81.2,0.3,80.6,0.1,80.7,0z"/>
				<g transform="translate(1.918 3.278)">
					<path class="st5" d="M81.7,5.6c-0.1,0-0.2-0.3-0.4-0.8c-0.3-0.6-0.5-1.3-0.6-2c-0.1-0.7,0.1-1.5,0.4-2.1
						C81.4,0.2,81.7,0,81.7,0s-0.2,0.3-0.3,0.8c-0.2,0.6-0.3,1.3-0.2,1.9c0.1,0.7,0.2,1.3,0.4,2C81.7,5.2,81.8,5.5,81.7,5.6z"/>
				</g>
			</g>
		</g>
		<g transform="translate(22.506 18.016)">
			<g transform="translate(1.076)">
				<path class="st5" d="M80.7,1.5c-0.1-0.1,0.1-0.5,0.8-0.8c1-0.5,2-0.7,3.1-0.7c1.2,0,2.3,0.2,3.4,0.7c0.8,0.4,1.2,0.7,1.1,0.8
					c-0.2,0.2-2-0.5-4.3-0.4C82.6,1,81,1.7,80.7,1.5z"/>
			</g>
			<path class="st5" d="M99.4,3.4c-0.7-0.5-1.2-0.8-3.2-0.5c-0.3,0-0.1,0.4,0.1,0.4c2,0.2,3.8,1.2,4,1C100.5,4.3,100.2,3.9,99.4,3.4
				z"/>
			<path class="st5" d="M95.6,2.9c-0.5,0.9-0.9,1.9-1.2,3c-0.3,1-0.5,2.1-0.7,3.1l-0.1,0.8l0,0.2c0,0.1,0,0.2,0,0.3
				c0,0.2,0,0.3,0.1,0.5c0.1,0.3,0.3,0.7,0.6,0.9c0.1,0.1,0.3,0.2,0.5,0.3c0.1,0,0.1,0,0.2,0.1c0.2,0.3,0.2,0.7,0,1
				c-0.3,0.4-0.7,0.8-1.1,1.1c0.6-0.1,1.1-0.4,1.5-0.7c0.2-0.2,0.4-0.5,0.5-0.8c0.1-0.4,0-0.7-0.2-1.1c-0.1-0.2-0.3-0.3-0.5-0.4
				C95,11,95,11,94.9,10.9c-0.1-0.1-0.2-0.3-0.2-0.4c0-0.1,0-0.2,0-0.3c0,0,0-0.1,0-0.1l0-0.2l0.1-0.8L95.2,6
				C95.4,5,95.5,3.9,95.6,2.9z"/>
			<g transform="translate(4.209 4.323)">
				<path class="st5" d="M81.6,3.2c-0.6-0.1-1-0.8-0.9-1.7s0.9-1.6,1.4-1.5s0.7,0.8,0.6,1.7S82.1,3.3,81.6,3.2z"/>
			</g>
			<g transform="translate(15.433 5.79)">
				<path class="st5" d="M81.6,3.2c-0.6-0.1-1-0.8-0.9-1.7s0.9-1.6,1.4-1.5s0.7,0.8,0.6,1.7S82.1,3.3,81.6,3.2z"/>
			</g>
			<path class="st5" d="M91.8,16.8L81,14.3c0,0-1.8,4.1,2.4,5.7C89.3,22.3,91.8,16.8,91.8,16.8z"/>
			<path class="st8" d="M85.2,17.8c-1.3-1-2.9-1.3-4.4-1.1l0,0c0.2,1.5,1.3,2.8,2.8,3.2c1.1,0.5,2.3,0.6,3.5,0.5
				C86.7,19.4,86,18.5,85.2,17.8z"/>
		</g>
	</g>
	<path class="st5" d="M334.1,104.2c1.3-0.6,2.1-1.8,2.2-3.2c3.1,0.9,6.3-0.1,9.4-1.1c0.7-0.2,1.6-0.6,1.6-1.4
		c1.4,2.8,4.8,4.1,7.8,2.9c0.4-0.2,0.8-0.6,0.5-0.9c-0.4,0.5,0,1.3,0.6,1.7c1.1,0.9,2.3,1.6,3.7,2c1.5,0.4,3.3,0.4,4.2-0.8
		c0.8-1.1,0.6-2.6-0.3-3.6c-0.9-0.9-2.3-1.3-3.6-1.1c0.5-0.3,0.7-1,0.3-1.4c0,0,0,0,0-0.1c-0.4-0.5-0.9-0.8-1.4-1
		c-0.6-0.2-1-0.6-1.3-1.1c-0.1-0.3-0.1-0.6-0.2-0.8c-0.4-0.9-1.2-1.5-2.1-1.8c-4.7-2.1-9.9-2.6-14.9-1.7c-1.3,0.2-2.6,0.7-3.8,1.4
		c0.4,0.2,0.9-0.3,0.9-0.7c0-0.5-0.3-0.9-0.7-1.1c-1.8-1.5-4.4-1.3-6.7-0.8c-1,0.1-1.9,0.5-2.7,1.1c-0.8,0.6-1.1,1.7-0.7,2.6
		c-1.4-0.4-2.8-0.4-4.2,0c-0.6,0.1-1.1,0.5-1.5,1c-0.3,0.5,0,1.4,0.6,1.4l-1.4,0.7c0.2,0.5,0.5,0.9,0.8,1.3c-1.8,0.5-3.2,2-3.4,3.8
		c-0.2,1.2,0.4,2.7,1.6,2.7c-1.5,0.9-1.5,3.1-0.6,4.6c1.1,1.7,4.1,3.9,6.1,3.9c-0.8,0-2.2-2-2.6-2.6c-0.8-1.2-1.3-2.5-1.4-3.9
		c-0.3-2,0.3-4.1,1.6-5.6c0.5-0.6,1.2-0.9,2-0.9c1.4,0,1.8,3,3.1,3.7c0.5,0.3,1.1,0.4,1.6,0.5c0.6,0,1.1,0.1,1.7,0.3
		C332,104.5,333.1,104.6,334.1,104.2z"/>
	<path class="st8" d="M362.1,100.8c-13.4,0.7-27.7-0.1-40.6-3.7c-2.2-0.6-4.6-1.4-5.9-3.4c-0.8-1.1-0.8-2.6,0-3.8
		c0.8-0.6,1.7-0.9,2.7-0.9c4.5-0.4,9.1-0.4,13.6,0.1"/>
	<path class="st6" d="M362.1,100.8c-13.4,0.7-27.7-0.1-40.6-3.7c-2.2-0.6-4.6-1.4-5.9-3.4c-0.8-1.1-0.8-2.6,0-3.8
		c0.8-0.6,1.7-0.9,2.7-0.9c4.5-0.4,9.1-0.4,13.6,0.1"/>
	<path class="st8" d="M326.5,84.8c1.9-4.4,5.8-7.5,10.5-8.4c3.5-0.7,7-0.7,10.5,0c3.2,0.6,6.4,1.5,8.8,3.7c1.1,1,2,2.1,2.7,3.3
		c1,1.5,1.9,3,2.7,4.7c0.6,1.1,1,2.3,1.3,3.5c0.2,1.1,0.2,2.3,0.1,3.4c-0.1,1.1-0.1,4.9-1,5.6c-0.7,0.6-4.6-0.5-5.7-0.6
		c-4.1-0.4-8.3-0.5-12.4-1c-6-0.7-12.1-2.3-16.9-6c-1.1-0.8-2.5-2.1-2.5-3.6C324.6,88,325.9,86.2,326.5,84.8z"/>
	<path class="st9" d="M306.3,125.1c-7,3.7-14.1,7.1-20.3,12.1c-7.1,5.6-13.9,11.5-20.4,17.8c-6.8,6.8-11,14.7-19.2,20.5
		c-3.3,2.3-6.9,4.4-8.9,7.8c-2.4,4-2.1,9-1.2,13.6c5.6-1.9,11.8-1.6,17.2,0.9c5.7,2.6,12,2.2,18.3,3.9c7.5,2.1,15.3,3.5,23.1,3
		c0.8,0,1.6-0.2,2.3-0.6c0.5-0.4,1-0.8,1.3-1.3l21.5-27.8c5.7-7.4,11.5-15,13.4-24.1c1.3-6-1.6-9.7-1.7-15.6c0-2.9-0.5-6.4-3-7.9
		c-0.9-0.5-2-0.8-3-1c-4-0.8-7.9-1.6-11.9-2.4c-1.9-0.4-4-0.8-5.8,0.2C307.5,124.5,306.9,124.8,306.3,125.1z"/>
	
		<linearGradient id="SVGID_3_" gradientUnits="userSpaceOnUse" x1="88.2528" y1="242.852" x2="89.2528" y2="242.852" gradientTransform="matrix(54.8615 0 0 -79.1794 -4539.7676 19397.7734)">
		<stop  offset="0.201" style="stop-color:#FFD584"/>
		<stop  offset="0.917" style="stop-color:#FCD271"/>
	</linearGradient>
	<path class="st10" d="M311.4,131.3c-3.9,1.9-7.5,4.9-8.9,9c-1,3.1-0.6,6.4-0.2,9.6c0.4,3.5,1,6.9,1.8,10.3c1.3,4.6,3.1,9,5.5,13.2
		c3.6,6.2,7.7,12.1,12.1,17.8l12.9,17.3c7.3-3,14.7-5.8,22.2-8.6c-1.8-1.1-3.4-2.6-4.6-4.4c-6.2-8-11.8-16.4-16.6-25.3
		c-4-7.4-7.4-15.3-6.1-23.9c0.9-6.5,1.5-11.4-4.9-15.5C320.4,128.3,315.6,129.3,311.4,131.3z"/>
	<path class="st6" d="M311.4,131.3c-3.9,1.9-7.5,4.9-8.9,9c-1,3.1-0.6,6.4-0.2,9.6c0.4,3.5,1,6.9,1.8,10.3c1.3,4.6,3.1,9,5.5,13.2
		c3.6,6.2,7.7,12.1,12.1,17.8l12.9,17.3c7.3-3,14.7-5.8,22.2-8.6c-1.8-1.1-3.4-2.6-4.6-4.4c-6.2-8-11.8-16.4-16.6-25.3
		c-4-7.4-7.4-15.3-6.1-23.9c0.9-6.5,1.5-11.4-4.9-15.5C320.4,128.3,315.6,129.3,311.4,131.3z"/>
	<path class="st5" d="M266.7,334.4c0,5-4,9-9,9s-9-4-9-9c0-5,4-9,9-9S266.7,329.4,266.7,334.4L266.7,334.4z"/>
	<path class="st5" d="M337.9,334.4c0,5-4,9-9,9s-9-4-9-9s4-9,9-9c0,0,0,0,0,0C333.9,325.4,337.9,329.4,337.9,334.4L337.9,334.4z"/>
	<path class="st8" d="M367.6,334.4H228.5c-2.5,0-4.5-2-4.5-4.5l0,0c0-2.5,2-4.5,4.5-4.5h139.1c2.5,0,4.5,2,4.5,4.5l0,0
		C372.1,332.4,370.1,334.4,367.6,334.4z"/>
	<path class="st11" d="M224.2,331.3c0.6,1.8,2.3,3.1,4.2,3.1h139.1c1.9,0,3.6-1.3,4.2-3.1H224.2z"/>
</g>
</svg>
