<svg xmlns="http://www.w3.org/2000/svg" width="81" height="47.2" viewBox="0 0 81 47.2"><defs><style>.a{fill:#eab14d;}.b{fill:#9dc6fb;}.c{fill:#f4d8a5;}.d{fill:#ecbe6b;}.e{fill:#e49542;}.f{fill:#e28424;}.g{fill:#fff;font-size:10px;font-family:OpenSans-Bold, Open Sans;font-weight:700;letter-spacing:0.018em;}</style></defs><g transform="translate(-42 -628)"><g transform="translate(67 628)"><g transform="translate(0.435 6.415)"><path class="a" d="M0,0H5.628V22.865H0Z" transform="translate(5.628 22.865) rotate(180)"/></g><g transform="translate(2.311 9.699)"><path class="b" d="M0,0H3.635V1.876H0Z" transform="translate(1.876 0) rotate(90)"/></g><g transform="translate(2.311 15.21)"><path class="b" d="M0,0H3.635V1.876H0Z" transform="translate(1.876 0) rotate(90)"/></g><g transform="translate(2.311 23.77)"><path class="b" d="M0,0H3.635V1.876H0Z" transform="translate(1.876 0) rotate(90)"/></g><g transform="translate(23.652 6.415)"><path class="a" d="M407.524,110.537h5.628V133.4h-5.628Z" transform="translate(-407.524 -110.537)"/></g><g transform="translate(6.064 2.311)"><path class="c" d="M104.476,39.825h17.589V66.794H104.476Z" transform="translate(-104.476 -39.825)"/></g><g transform="translate(22.48 2.311)"><path class="d" d="M387.321,39.825h1.173V66.794h-1.173Z" transform="translate(-387.321 -39.825)"/></g><g transform="translate(7.94 4.188)"><g transform="translate(0)"><path class="b" d="M0,0H3.635V1.876H0Z" transform="translate(1.876) rotate(90)"/></g><g transform="translate(3.987 0)"><path class="b" d="M0,0H3.635V1.876H0Z" transform="translate(1.876) rotate(90)"/></g><g transform="translate(7.974)"><path class="b" d="M0,0H3.635V1.876H0Z" transform="translate(1.876) rotate(90)"/></g><g transform="translate(11.96 0)"><path class="b" d="M0,0H3.635V1.876H0Z" transform="translate(1.876) rotate(90)"/></g></g><g transform="translate(7.94 9.699)"><g transform="translate(0)"><path class="b" d="M0,0H3.635V1.876H0Z" transform="translate(1.876) rotate(90)"/></g><g transform="translate(3.987 0)"><path class="b" d="M0,0H3.635V1.876H0Z" transform="translate(1.876) rotate(90)"/></g><g transform="translate(7.974)"><path class="b" d="M0,0H3.635V1.876H0Z" transform="translate(1.876) rotate(90)"/></g><g transform="translate(11.96 0)"><path class="b" d="M0,0H3.635V1.876H0Z" transform="translate(1.876) rotate(90)"/></g></g><g transform="translate(7.94 15.21)"><g transform="translate(0 0)"><path class="b" d="M0,0H3.635V1.876H0Z" transform="translate(1.876) rotate(90)"/></g><g transform="translate(3.987 0)"><path class="b" d="M0,0H3.635V1.876H0Z" transform="translate(1.876 0) rotate(90)"/></g><g transform="translate(7.974 0)"><path class="b" d="M0,0H3.635V1.876H0Z" transform="translate(1.876) rotate(90)"/></g><g transform="translate(11.96)"><path class="b" d="M0,0H3.635V1.876H0Z" transform="translate(1.876) rotate(90)"/></g></g><g transform="translate(7.94 24.473)"><path class="b" d="M0,0H2.931V2.7H0Z" transform="translate(2.697 0) rotate(90)"/></g><g transform="translate(12.513 24.473)"><path class="b" d="M0,0H4.808V2.345H0Z" transform="translate(2.345) rotate(90)"/></g><g transform="translate(19.079 24.473)"><path class="b" d="M0,0H2.931V2.7H0Z" transform="translate(2.697) rotate(90)"/></g><g transform="translate(14.858 24.473)"><path class="b" d="M0,0H4.808V2.345H0Z" transform="translate(2.345) rotate(90)"/></g><g transform="translate(5.477 20.721)"><path class="e" d="M0,0H1.876V18.761H0Z" transform="translate(18.761) rotate(90)"/></g><g transform="translate(22.832 20.721)"><path class="f" d="M393.382,357.016h1.407v1.876h-1.407Z" transform="translate(-393.382 -357.016)"/></g><g transform="translate(5.477 0.435)"><path class="e" d="M0,0H1.876V18.761H0Z" transform="translate(18.761 0) rotate(90)"/></g><g transform="translate(22.832 0.435)"><path class="f" d="M393.382,7.5h1.407V9.376h-1.407Z" transform="translate(-393.382 -7.5)"/></g><g transform="translate(25.529 9.699)"><path class="b" d="M0,0H3.635V1.876H0Z" transform="translate(1.876 0) rotate(90)"/></g><g transform="translate(25.529 15.21)"><path class="b" d="M0,0H3.635V1.876H0Z" transform="translate(1.876 0) rotate(90)"/></g><g transform="translate(25.529 23.77)"><path class="b" d="M0,0H3.635V1.876H0Z" transform="translate(1.876 0) rotate(90)"/></g><g transform="translate(0)"><path d="M32.76,164.112h1.876a.435.435,0,0,0,.435-.435v-3.635a.435.435,0,0,0-.435-.435H32.76a.435.435,0,0,0-.435.435v3.635A.435.435,0,0,0,32.76,164.112Zm.435-3.635H34.2v2.764H33.2Z" transform="translate(-30.449 -150.343)"/><path d="M32.325,258.631a.435.435,0,0,0,.435.435h1.876a.435.435,0,0,0,.435-.435V255a.435.435,0,0,0-.435-.435H32.76a.435.435,0,0,0-.435.435Zm.871-3.2H34.2V258.2H33.2Z" transform="translate(-30.449 -239.786)"/><path d="M32.325,406.115a.435.435,0,0,0,.435.435h1.876a.435.435,0,0,0,.435-.435V402.48a.435.435,0,0,0-.435-.435H32.76a.435.435,0,0,0-.435.435Zm.871-3.2H34.2v2.764H33.2Z" transform="translate(-30.449 -378.711)"/><path d="M29.281,9.228a.435.435,0,0,0,.435-.435V6.415a.435.435,0,0,0-.435-.435H24.087V2.747h.151a.435.435,0,0,0,.435-.435V.435A.435.435,0,0,0,24.239,0H5.477a.435.435,0,0,0-.435.435V2.311a.435.435,0,0,0,.435.435h.151V5.98H.435A.435.435,0,0,0,0,6.415V8.793a.435.435,0,0,0,.871,0V6.851H5.629V20.286H5.477a.435.435,0,0,0-.435.435V22.6a.435.435,0,0,0,.435.435h.151v5.813H.871V10.828a.435.435,0,0,0-.871,0V29.281a.435.435,0,0,0,.435.435H29.281a.435.435,0,0,0,.435-.435V10.828a.435.435,0,1,0-.871,0V28.846H24.087V23.032h.151a.435.435,0,0,0,.435-.435V20.721a.435.435,0,0,0-.435-.435h-.151V6.851h4.758V8.793A.435.435,0,0,0,29.281,9.228ZM23.648,21.156H23.8v1.006H5.913V21.156H23.648Zm-9.225,7.689H12.948V24.909h1.475Zm.871,0V24.909h1.475v3.937Zm7.924,0H17.639V24.473a.435.435,0,0,0-.435-.435h-4.69a.435.435,0,0,0-.435.435v4.372H6.5V23.032H23.217ZM6.5,20.286V2.747H19.915a.435.435,0,0,0,0-.871h-14V.871H23.8V1.876H21.949a.435.435,0,1,0,0,.871h1.268V20.286Z" transform="translate(0)"/><path d="M131.612,64.65h-1.876a.435.435,0,0,0-.435.435V68.72a.435.435,0,0,0,.435.435h1.876a.435.435,0,0,0,.435-.435V65.085A.435.435,0,0,0,131.612,64.65Zm-.435,3.635h-1.006V65.521h1.006Z" transform="translate(-121.796 -60.898)"/><path d="M200.3,64.65h-1.876a.435.435,0,0,0-.435.435V68.72a.435.435,0,0,0,.435.435H200.3a.435.435,0,0,0,.435-.435V65.085A.435.435,0,0,0,200.3,64.65Zm-.435,3.635h-1.006V65.521h1.006Z" transform="translate(-186.501 -60.898)"/><path d="M268.994,64.65h-1.876a.435.435,0,0,0-.435.435V68.72a.435.435,0,0,0,.435.435h1.876a.435.435,0,0,0,.435-.435V65.085A.435.435,0,0,0,268.994,64.65Zm-.435,3.635h-1.006V65.521h1.006Z" transform="translate(-251.205 -60.898)"/><path d="M337.685,64.65h-1.876a.435.435,0,0,0-.435.435V68.72a.435.435,0,0,0,.435.435h1.876a.435.435,0,0,0,.435-.435V65.085A.435.435,0,0,0,337.685,64.65Zm-.435,3.635h-1.006V65.521h1.006Z" transform="translate(-315.909 -60.898)"/><path d="M131.612,159.6h-1.876a.435.435,0,0,0-.435.435v3.635a.435.435,0,0,0,.435.435h1.876a.435.435,0,0,0,.435-.435V160.04A.435.435,0,0,0,131.612,159.6Zm-.435,3.635h-1.006v-2.764h1.006Z" transform="translate(-121.796 -150.342)"/><path d="M200.3,159.6h-1.876a.435.435,0,0,0-.435.435v3.635a.435.435,0,0,0,.435.435H200.3a.435.435,0,0,0,.435-.435V160.04A.435.435,0,0,0,200.3,159.6Zm-.435,3.635h-1.006v-2.764h1.006Z" transform="translate(-186.501 -150.342)"/><path d="M268.994,159.6h-1.876a.435.435,0,0,0-.435.435v3.635a.435.435,0,0,0,.435.435h1.876a.435.435,0,0,0,.435-.435V160.04A.435.435,0,0,0,268.994,159.6Zm-.435,3.635h-1.006v-2.764h1.006Z" transform="translate(-251.205 -150.342)"/><path d="M337.685,159.6h-1.876a.435.435,0,0,0-.435.435v3.635a.435.435,0,0,0,.435.435h1.876a.435.435,0,0,0,.435-.435V160.04A.435.435,0,0,0,337.685,159.6Zm-.435,3.635h-1.006v-2.764h1.006Z" transform="translate(-315.909 -150.342)"/><path d="M131.612,254.561h-1.876a.435.435,0,0,0-.435.435v3.635a.435.435,0,0,0,.435.435h1.876a.435.435,0,0,0,.435-.435V255A.435.435,0,0,0,131.612,254.561Zm-.435,3.635h-1.006v-2.764h1.006Z" transform="translate(-121.796 -239.786)"/><path d="M200.3,254.561h-1.876a.435.435,0,0,0-.435.435v3.635a.435.435,0,0,0,.435.435H200.3a.435.435,0,0,0,.435-.435V255A.435.435,0,0,0,200.3,254.561Zm-.435,3.635h-1.006v-2.764h1.006Z" transform="translate(-186.501 -239.786)"/><path d="M268.994,254.561h-1.876a.435.435,0,0,0-.435.435v3.635a.435.435,0,0,0,.435.435h1.876a.435.435,0,0,0,.435-.435V255A.435.435,0,0,0,268.994,254.561Zm-.435,3.635h-1.006v-2.764h1.006Z" transform="translate(-251.205 -239.786)"/><path d="M337.685,254.561h-1.876a.435.435,0,0,0-.435.435v3.635a.435.435,0,0,0,.435.435h1.876a.435.435,0,0,0,.435-.435V255A.435.435,0,0,0,337.685,254.561Zm-.435,3.635h-1.006v-2.764h1.006Z" transform="translate(-315.909 -239.786)"/><path d="M129.736,417.969h2.7a.435.435,0,0,0,.435-.435V414.6a.435.435,0,0,0-.435-.435h-2.7a.435.435,0,0,0-.435.435v2.931A.435.435,0,0,0,129.736,417.969Zm.435-2.931H132V417.1h-1.826Z" transform="translate(-121.796 -390.129)"/><path d="M321.666,417.969h2.7a.435.435,0,0,0,.435-.435V414.6a.435.435,0,0,0-.435-.435h-2.7a.435.435,0,0,0-.435.435v2.931A.435.435,0,0,0,321.666,417.969Zm.435-2.931h1.826V417.1H322.1Z" transform="translate(-302.587 -390.129)"/><path d="M435.1,160.04a.435.435,0,0,0-.435-.435h-1.876a.435.435,0,0,0-.435.435v3.635a.435.435,0,0,0,.435.435h1.876a.435.435,0,0,0,.435-.435Zm-.871,3.2h-1.006v-2.764h1.006Z" transform="translate(-407.257 -150.342)"/><path d="M435.1,255a.435.435,0,0,0-.435-.435h-1.876a.435.435,0,0,0-.435.435v3.635a.435.435,0,0,0,.435.435h1.876a.435.435,0,0,0,.435-.435Zm-.871,3.2h-1.006v-2.764h1.006Z" transform="translate(-407.257 -239.786)"/><path d="M434.661,402.045h-1.876a.435.435,0,0,0-.435.435v3.635a.435.435,0,0,0,.435.435h1.876a.435.435,0,0,0,.435-.435V402.48A.435.435,0,0,0,434.661,402.045Zm-.435,3.635h-1.006v-2.764h1.006Z" transform="translate(-407.257 -378.711)"/></g></g><text class="g" transform="translate(42 672.2)"><tspan x="0" y="0">PROPERTY TYPE</tspan></text></g></svg>