<svg id="Layer_1" enable-background="new 0 0 512 512" height="512" viewBox="0 0 512 512" width="512" xmlns="http://www.w3.org/2000/svg"><g><path d="m326 184h-156c-14.337 0-26-11.664-26-26v-76c0-14.336 11.663-26 26-26h156c14.337 0 26 11.664 26 26v76c0 14.336-11.663 26-26 26zm-150-32h144v-64h-144zm150-64h.01z"/><path d="m248 392c-39.701 0-72-32.299-72-72 0-16.382 10.096-38.865 30.863-68.732 14.307-20.575 28.416-37.015 29.009-37.705 3.04-3.532 7.468-5.563 12.128-5.563s9.088 2.031 12.128 5.563c.593.689 14.702 17.13 29.009 37.705 20.767 29.867 30.863 52.35 30.863 68.732 0 39.701-32.299 72-72 72zm.004-142.683c-19.11 24.602-40.004 56.741-40.004 70.683 0 22.056 17.944 40 40 40s40-17.944 40-40c0-13.97-20.886-46.095-39.996-70.683z"/><path d="m457.814 331.709c14.514-19.959 22.186-43.551 22.186-68.228v-135.481c0-6.061-3.424-11.601-8.845-14.311l-55.155-27.578v-40.111c0-25.364-20.636-46-46-46h-244c-25.364 0-46 20.636-46 46v370h-22c-14.337 0-26 11.664-26 26v44c0 14.336 11.663 26 26 26h380c14.337 0 26-11.664 26-26v-44c0-14.336-11.663-26-26-26h-22v-26.797zm-9.814-193.82v125.593c0 17.869-5.556 34.954-16.065 49.407l-15.935 21.909v-212.909zm-16 342.111h-368v-32h32 304 32zm-320-64v-370c0-7.72 6.28-14 14-14h244c7.72 0 14 6.28 14 14v370z"/></g></svg>