<?xml version="1.0" encoding="iso-8859-1"?>
<!-- Generator: Adobe Illustrator 19.0.0, SVG Export Plug-In . SVG Version: 6.00 Build 0)  -->
<svg version="1.1" id="Capa_1" xmlns="http://www.w3.org/2000/svg" xmlns:xlink="http://www.w3.org/1999/xlink" x="0px" y="0px"
	 viewBox="0 0 512 512" style="enable-background:new 0 0 512 512;" xml:space="preserve">
<g>
	<g>
		<path d="M133,83c-5.52,0-10,4.48-10,10s4.48,10,10,10s10-4.48,10-10S138.52,83,133,83z"/>
	</g>
</g>
<g>
	<g>
		<path d="M256,0C118.02,0,0,117.801,0,256c0,138.011,117.815,256,256,256c137.98,0,256-117.801,256-256
			C512,117.989,394.185,0,256,0z M256,492C128.075,492,20,383.925,20,256S128.075,20,256,20s236,108.075,236,236
			S383.925,492,256,492z"/>
	</g>
</g>
<g>
	<g>
		<path d="M256,43c-32.065,0-65.985,7.4-93.062,20.303c-4.985,2.376-7.102,8.344-4.726,13.329c2.375,4.985,8.341,7.104,13.329,4.726
			C196.024,69.691,226.809,63,256,63c104.617,0,193,88.383,193,193s-88.383,193-193,193S63,360.617,63,256
			c0-47.786,17.531-94.885,48.099-129.221c3.673-4.125,3.306-10.446-0.819-14.118c-4.126-3.674-10.445-3.303-14.118,0.819
			C62.376,151.43,43,203.376,43,256c0,115.728,97.103,213,213,213c115.728,0,213-97.103,213-213C469,140.272,371.897,43,256,43z"/>
	</g>
</g>
<g>
	<g>
		<path d="M376,206h-70v-70c0-5.522-4.478-10-10-10h-80c-5.522,0-10,4.478-10,10v70h-70c-5.522,0-10,4.478-10,10v80
			c0,5.522,4.478,10,10,10h70v70c0,5.522,4.478,10,10,10h80c5.522,0,10-4.478,10-10v-70h70c5.522,0,10-4.478,10-10v-80
			C386,210.478,381.522,206,376,206z M366,286h-70c-5.522,0-10,4.478-10,10v70h-60v-70c0-5.522-4.478-10-10-10h-70v-60h70
			c5.522,0,10-4.478,10-10v-70h60v70c0,5.522,4.478,10,10,10h70V286z"/>
	</g>
</g>
<g>
</g>
<g>
</g>
<g>
</g>
<g>
</g>
<g>
</g>
<g>
</g>
<g>
</g>
<g>
</g>
<g>
</g>
<g>
</g>
<g>
</g>
<g>
</g>
<g>
</g>
<g>
</g>
<g>
</g>
</svg>
