<?xml version="1.0" encoding="utf-8"?>
<!-- Generator: Adobe Illustrator 24.1.2, SVG Export Plug-In . SVG Version: 6.00 Build 0)  -->
<svg version="1.1" id="Layer_1" xmlns="http://www.w3.org/2000/svg" xmlns:xlink="http://www.w3.org/1999/xlink" x="0px" y="0px"
	 viewBox="0 0 87.7 100.7" style="enable-background:new 0 0 87.7 100.7;" xml:space="preserve">
<style type="text/css">
	.st0{opacity:0.45;fill:#FF6C6B;}
	.st1{fill:#555555;}
</style>
<g transform="translate(-30.827)">
	<path class="st0" d="M83.4,86.4c-17.5-0.1-32.4-12.9-35.1-30.2c-0.1-0.9,0.5-1.8,1.4-1.9c0.1,0,0.2,0,0.3,0h66.9
		c0.9,0,1.7,0.8,1.7,1.7c0,0,0,0,0,0c0,0.1,0,0.2,0,0.3C115.8,73.5,100.9,86.3,83.4,86.4z"/>
	<circle class="st0" cx="61.3" cy="42.3" r="5.1"/>
	<rect x="80" y="37.3" class="st0" width="10.2" height="10.2"/>
	<path class="st0" d="M96.9,42.3l10.2-5.1v10.2L96.9,42.3z"/>
	<circle class="st0" cx="37.6" cy="55.9" r="5.1"/>
	<path class="st1" d="M80,49.1h10.2c0.9,0,1.7-0.8,1.7-1.7V44h4.7l9.8,4.9c0.8,0.4,1.9,0.1,2.3-0.8c0.1-0.2,0.2-0.5,0.2-0.8V44h8.5
		v-3.4h-8.5v-3.4c0-0.9-0.8-1.7-1.7-1.7c-0.3,0-0.5,0.1-0.8,0.2l-9.8,4.9h-4.7v-3.4c0-0.9-0.8-1.7-1.7-1.7H80
		c-0.9,0-1.7,0.8-1.7,1.7v3.4h-3.6c-0.9-3.9-3.9-7.1-7.7-8.4l-1.2,3.2c2.5,0.8,4.5,2.7,5.4,5.2h-3.3c-0.9-3.6-4.6-5.8-8.2-4.9
		c-2.4,0.6-4.3,2.5-4.9,4.9h-3.6V44h3.6c0.9,3.6,4.6,5.8,8.2,4.9c2.4-0.6,4.3-2.5,4.9-4.9h3.3c-0.9,2.5-2.9,4.4-5.4,5.2l1.2,3.2
		c3.8-1.3,6.8-4.4,7.7-8.4h3.6v3.4C78.3,48.3,79,49.1,80,49.1C80,49.1,80,49.1,80,49.1z M105.4,40v4.7l-4.7-2.3L105.4,40z
		 M81.7,38.9h6.8v6.8h-6.8V38.9z M61.3,45.7c-1.9,0-3.4-1.5-3.4-3.4s1.5-3.4,3.4-3.4s3.4,1.5,3.4,3.4v0
		C64.7,44.2,63.2,45.7,61.3,45.7L61.3,45.7z"/>
	<path class="st1" d="M85.1,79.5l-0.2-3.4c-1.1,0.1-2.1,0.1-3.2,0l-0.2,3.4c0.6,0,1.2,0.1,1.8,0.1S84.6,79.6,85.1,79.5z"/>
	<path class="st1" d="M110,61.6l-3.1-1.3c-3.2,8-10.3,13.8-18.8,15.4l0.6,3.3C98.4,77.3,106.4,70.7,110,61.6z"/>
	<path class="st1" d="M55.4,25.4h39.8c2.8,0,5.1,2.3,5.1,5.1v0h3.4c0-4.7-3.8-8.5-8.5-8.5H55.4c-1.4,0-2.5-1.1-2.5-2.5
		c0-1.4,1.1-2.5,2.5-2.5h30.5c3.3,0,5.9-2.7,5.9-5.9c0-3.3-2.7-5.9-5.9-5.9c0,0,0,0,0,0H69.8c-2.8,0-5.1-2.3-5.1-5.1h-3.4
		c0,4.7,3.8,8.5,8.5,8.5h16.1c1.4,0,2.5,1.1,2.5,2.5s-1.1,2.5-2.5,2.5H55.4c-3.3,0-5.9,2.7-5.9,5.9S52.1,25.4,55.4,25.4L55.4,25.4
		L55.4,25.4z"/>
	<path class="st1" d="M118.5,56.1c0.1-0.9-0.5-1.8-1.4-1.9c-0.1,0-0.2,0-0.3,0H49.9c-0.1,0-0.3,0-0.4,0.1v-0.1h-5.3
		c-0.9-3.6-4.6-5.8-8.3-4.9S30.1,54,31,57.6c0.9,3.6,4.6,5.8,8.3,4.9c2.4-0.6,4.2-2.5,4.9-4.9h4.4c1.6,8.1,6,15.4,12.4,20.7
		L49.7,99.1l3,1.6l4.1-7.6H110l4.1,7.6l3-1.6l-11.2-20.9C112.6,72.7,117.1,64.8,118.5,56.1z M37.6,59.3c-1.9,0-3.4-1.5-3.4-3.4
		c0-1.9,1.5-3.4,3.4-3.4c1.9,0,3.4,1.5,3.4,3.4l0,0C41,57.8,39.5,59.3,37.6,59.3z M51.9,57.6h62.8C111,74.9,93.9,86,76.6,82.2
		C64.2,79.6,54.6,69.9,51.9,57.6z M108.1,89.8H58.6l5.1-9.5c11.9,8.1,27.5,8.1,39.4,0L108.1,89.8z"/>
</g>
</svg>
