<?xml version="1.0" encoding="utf-8"?>
<!-- Generator: Adobe Illustrator 24.1.2, SVG Export Plug-In . SVG Version: 6.00 Build 0)  -->
<svg version="1.1" id="Layer_1" xmlns="http://www.w3.org/2000/svg" xmlns:xlink="http://www.w3.org/1999/xlink" x="0px" y="0px"
	 viewBox="0 0 100.3 100.3" style="enable-background:new 0 0 100.3 100.3;" xml:space="preserve">
<style type="text/css">
	.st0{opacity:0.9;fill:#FF6C6B;}
	.st1{opacity:0.45;fill:#FF6C6B;}
	.st2{opacity:0.7;fill:#FF6C6B;}
	.st3{opacity:0.2;fill:#FF6C6B;}
	.st4{fill:#FF6C6B;}
	.st5{fill:#FFFFFF;}
	.st6{fill:#555555;}
</style>
<g transform="translate(-18.343 -18.343)">
	<path class="st0" d="M91,68.5c3.4,4.3,1.6,12.5-5.6,12.5c-7.2,0-9-8.2-5.6-12.5H68.6c1,1.6,1.1,3.8,0.6,5.6
		c-0.4,1.9-1.8,3.4-3.4,4.5c-1.3,0.9-3.2,1.2-4.9,0.9c-0.1,0.1-0.2,0.2-0.3,0.4c-0.1,0.2-0.2,0.3-0.4,0.4c-0.7,0.7-1.4,1.3-2.3,1.7
		c-0.3,0.2-0.6,0.3-0.9,0.4c0.5,1.8,0.4,3.9-0.3,5.7c0.2,0.7,0.4,1.5,0.4,2.2c1,0.1,1.9,0.3,2.9,0.4c0.4-0.1,0.8-0.1,1.2-0.1
		c2.7,0,4.6,1.2,5.8,2.8c2,2.3,2.4,6,1,8.8h34.1V68.5H91z"/>
	<path class="st1" d="M78.8,45.2c-1,0.6-2.3,1-3.8,1c-6.2,0-8.4-6.1-6.7-10.5c-0.2-0.3-0.4-0.6-0.5-0.9H34.7v33.8h11
		c-2.4-4.4-0.3-11.4,6.3-11.4c6.6,0,8.7,7,6.3,11.4h10.8c0-0.1,0.1-0.1,0.1-0.2c-2.4-4.4-0.3-11.4,6.3-11.4c0.9,0,1.7,0.1,2.4,0.4
		c0.7-0.5,1.3-0.9,2-1.3V45.7C79.6,45.6,79.2,45.4,78.8,45.2z"/>
	<path class="st2" d="M34.7,68.5h12.4c-2.8-2.5-3.1-6.7-0.6-9.5c2.5-2.8,6.7-3.1,9.5-0.6c2.8,2.5,3.1,6.7,0.6,9.5
		c-0.2,0.2-0.4,0.4-0.6,0.6h12.4v12.4c-2.5-2.8-6.7-3.1-9.5-0.6c-2.8,2.5-3.1,6.7-0.6,9.5s6.7,3.1,9.5,0.6c0.2-0.2,0.4-0.4,0.6-0.6
		v12.4H34.7V68.5z"/>
	<path class="st3" d="M68.5,34.7v12.4c2.5-2.8,6.7-3.1,9.5-0.6c2.8,2.5,3.1,6.7,0.6,9.5c-2.5,2.8-6.7,3.1-9.5,0.6
		c-0.2-0.2-0.4-0.4-0.6-0.6v12.4h12.4c-2.8,2.5-3.1,6.7-0.6,9.5c2.5,2.8,6.7,3.1,9.5,0.6c2.8-2.5,3.1-6.7,0.6-9.5
		c-0.2-0.2-0.4-0.4-0.6-0.6h12.4V34.7H68.5z"/>
	<path class="st4" d="M85.4,99.1l3.6,3.2h13.3v-7.5c-3.1-0.6-6.2,0.4-8.4,2.6l-7.6-7.6c-1.4-1.4-3.6-1.5-5.1-0.1s-1.5,3.6-0.1,5.1
		c0,0,0.1,0.1,0.1,0.1L85.4,99.1z"/>
	<path class="st4" d="M37.9,85.4L34.7,89v13.3h7.5c0.6-3.1-0.4-6.2-2.6-8.4l7.6-7.6c1.4-1.4,1.5-3.6,0.1-5.1s-3.6-1.5-5.1-0.1
		c0,0-0.1,0.1-0.1,0.1L37.9,85.4z"/>
	<path class="st4" d="M51.6,37.9L48,34.7H34.7v7.5c3.1,0.6,6.2-0.4,8.4-2.6l7.6,7.6c1.4,1.4,3.6,1.5,5.1,0.1s1.5-3.6,0.1-5.1
		c0,0-0.1-0.1-0.1-0.1L51.6,37.9z"/>
	<path class="st4" d="M99.1,51.6l3.2-3.6V34.7h-7.5c-0.6,3.1,0.4,6.2,2.6,8.4l-7.6,7.6c-1.4,1.4-1.5,3.6-0.1,5.1s3.6,1.5,5.1,0.1
		c0,0,0.1-0.1,0.1-0.1L99.1,51.6z"/>
	<g transform="translate(19.537 19.537)">
		<path class="st5" d="M0,82.7l3.4-3.4V64.2c0-2.8,2.3-5.1,5.1-5.1h6.8v6.8l4.2-4.2c1.4-1.4,3.7-1.3,5.1,0.1c1.3,1.4,1.3,3.6,0,5
			l-7.6,7.6c3.7,3.7,3.7,9.8,0,13.5l-8.4,8.4L0,82.7z"/>
		<path class="st5" d="M15.2,0l3.4,3.4h15.2c2.8,0,5.1,2.3,5.1,5.1c0,0,0,0,0,0v6.8h-6.8l4.2,4.2c1.4,1.4,1.3,3.7-0.1,5.1
			c-1.4,1.3-3.6,1.3-5,0l-7.6-7.6c-3.7,3.7-9.8,3.7-13.5,0L1.7,8.4L15.2,0z"/>
		<path class="st5" d="M97.9,15.2l-3.4,3.4v15.2c0,2.8-2.3,5.1-5.1,5.1l0,0h-6.8v-6.8l-4.2,4.2c-1.4,1.4-3.6,1.5-5.1,0.1
			C72,35,72,32.7,73.4,31.3c0,0,0.1-0.1,0.1-0.1l7.6-7.6c-3.7-3.7-3.7-9.8,0-13.5l8.4-8.4L97.9,15.2z"/>
		<path class="st5" d="M82.7,97.9l-3.4-3.4H64.2c-2.8,0-5.1-2.3-5.1-5.1v-6.8h6.8l-4.2-4.2c-1.4-1.4-1.3-3.7,0.1-5.1
			c1.4-1.3,3.6-1.3,5,0l7.6,7.6c3.7-3.7,9.8-3.7,13.5,0l8.4,8.4L82.7,97.9z"/>
	</g>
	<path class="st6" d="M100.6,96.1c-2.4,0-4.7,0.8-6.7,2.2l-6.5-6.5c-2.1-2.1-5.4-2.1-7.5,0s-2.1,5.4,0,7.5l1.3,1.3H70.2V89.8
		c0-0.9-0.8-1.7-1.7-1.7c-0.5,0-0.9,0.2-1.3,0.6c-1.9,2.1-5.1,2.3-7.1,0.4c-2.1-1.9-2.3-5.1-0.4-7.1c1.9-2.1,5.1-2.3,7.1-0.4
		c0.2,0.1,0.3,0.3,0.4,0.4c0.6,0.7,1.7,0.8,2.4,0.2c0.4-0.3,0.6-0.8,0.6-1.3V70.2h7.5c-1.9,4.3,0.1,9.2,4.4,11.1s9.2-0.1,11.1-4.4
		c0.9-2.2,0.9-4.6,0-6.8h7.5v21.9h3.4V60.1h5.1c3.7,0,6.8-3,6.8-6.8V38.8l2.9-2.9l-2.4-2.4l-3.4,3.4c-0.3,0.3-0.5,0.7-0.5,1.2v15.2
		c0,1.9-1.5,3.4-3.4,3.4H104v-4.4l2.9-2.9l-2.4-2.4l-7.6,7.6c-0.7,0.7-1.9,0.7-2.7,0c-0.7-0.7-0.7-1.9,0-2.7l7.6-7.6
		c0.7-0.7,0.7-1.7,0-2.4c0,0,0,0,0,0c-3.1-3.1-3.1-8,0-11.1l8.4-8.4l-2.4-2.4l-8.4,8.4c-3.9,3.9-4.4,10.1-1.1,14.6l-6.5,6.5
		c-2.1,2.1-2.1,5.4,0,7.5c2.1,2.1,5.4,2.1,7.5,0l1.3-1.3v11.1H89.8c-0.9,0-1.7,0.8-1.7,1.7c0,0.5,0.2,0.9,0.6,1.3
		c2.1,1.9,2.3,5.1,0.4,7.1s-5.1,2.3-7.1,0.4s-2.3-5.1-0.4-7.1c0.1-0.2,0.3-0.3,0.4-0.4c0.7-0.6,0.8-1.7,0.2-2.4
		c-0.3-0.4-0.8-0.6-1.3-0.6H70.2v-7.5c4.3,1.9,9.2-0.1,11.1-4.4s-0.1-9.2-4.4-11.1c-2.2-0.9-4.6-0.9-6.8,0v-7.5h21.9V33H60.1V28
		c0-3.7-3-6.8-6.8-6.8H38.8l-2.9-2.9l-2.4,2.4l3.4,3.4c0.3,0.3,0.7,0.5,1.2,0.5h15.2c1.9,0,3.4,1.5,3.4,3.4V33h-4.4l-2.9-2.9
		L47,32.6l7.6,7.6c0.7,0.7,0.7,1.9,0,2.7c-0.7,0.7-1.9,0.7-2.7,0l-7.6-7.6c-0.7-0.7-1.7-0.7-2.4,0c0,0,0,0,0,0
		c-3.1,3.1-8,3.1-11.1,0c0,0,0,0,0,0l-8.4-8.4L20,29.2l8.4,8.4c3.9,3.9,10.1,4.4,14.6,1.1l6.5,6.5c2.1,2.1,5.4,2.1,7.5,0
		s2.1-5.4,0-7.5l0,0l-1.3-1.3h11.1v10.7c0,0.9,0.8,1.7,1.7,1.7c0.5,0,0.9-0.2,1.3-0.6c1.9-2.1,5.1-2.3,7.1-0.4s2.3,5.1,0.4,7.1
		c-1.9,2.1-5.1,2.3-7.1,0.4c-0.2-0.1-0.3-0.3-0.4-0.4c-0.6-0.7-1.7-0.8-2.4-0.2c-0.4,0.3-0.6,0.8-0.6,1.3v10.7h-7.5
		c1.9-4.3-0.1-9.2-4.4-11.1s-9.2,0.1-11.1,4.4c-0.9,2.2-0.9,4.6,0,6.8h-7.5V44.9H33v32.1H28c-3.7,0-6.8,3-6.8,6.8v14.5l-2.9,2.9
		l2.4,2.4l3.4-3.4c0.3-0.3,0.5-0.7,0.5-1.2V83.7c0-1.9,1.5-3.4,3.4-3.4H33v4.4l-2.9,2.9l2.4,2.4l7.6-7.6c0.7-0.7,1.9-0.7,2.7,0
		c0.7,0.7,0.7,1.9,0,2.7l-7.6,7.6c-0.7,0.7-0.7,1.7,0,2.4c0,0,0,0,0,0c3.1,3.1,3.1,8,0,11.1l-8.4,8.4l2.4,2.4l8.4-8.4
		c3.9-3.9,4.4-10.1,1.1-14.6l6.5-6.5c2.1-2.1,2.1-5.4,0-7.5c-2.1-2.1-5.4-2.1-7.5,0l-1.3,1.3V70.2h10.7c0.9,0,1.7-0.8,1.7-1.7
		c0-0.5-0.2-0.9-0.6-1.3c-2.1-1.9-2.3-5.1-0.4-7.1s5.1-2.3,7.1-0.4c2.1,1.9,2.3,5.1,0.4,7.1c-0.1,0.2-0.3,0.3-0.4,0.4
		c-0.7,0.6-0.8,1.7-0.2,2.4c0.3,0.4,0.8,0.6,1.3,0.6h10.7v7.5c-4.3-1.9-9.2,0.1-11.1,4.4s0.1,9.2,4.4,11.1c2.2,0.9,4.6,0.9,6.8,0
		v7.5H44.9v3.4h32.1v5.1c0,3.7,3,6.8,6.8,6.8h14.5l2.9,2.9l2.4-2.4l-3.4-3.4c-0.3-0.3-0.7-0.5-1.2-0.5H83.7c-1.9,0-3.4-1.5-3.4-3.4
		V104h4.4l2.9,2.9l2.4-2.4l-7.6-7.6c-0.7-0.7-0.7-1.9,0-2.7c0.7-0.7,1.9-0.7,2.7,0l7.6,7.6c0.7,0.7,1.7,0.7,2.4,0c0,0,0,0,0,0
		c3.1-3.1,8-3.1,11.1,0c0,0,0,0,0,0l8.4,8.4l2.4-2.4l-8.4-8.4C106.4,97.3,103.6,96.1,100.6,96.1L100.6,96.1z"/>
</g>
</svg>
