<?xml version="1.0" encoding="utf-8"?>
<!-- Generator: Adobe Illustrator 24.1.2, SVG Export Plug-In . SVG Version: 6.00 Build 0)  -->
<svg version="1.1" id="Layer_1" xmlns="http://www.w3.org/2000/svg" xmlns:xlink="http://www.w3.org/1999/xlink" x="0px" y="0px"
	 viewBox="0 0 97.6 99.2" style="enable-background:new 0 0 97.6 99.2;" xml:space="preserve">
<style type="text/css">
	.st0{opacity:0.45;fill:#FF6C6B;}
	.st1{opacity:0.2;fill:#FF6C6B;}
	.st2{opacity:0.14;fill:#FF6C6B;}
	.st3{opacity:0.65;fill:#FF6B6C;}
	.st4{opacity:0.45;fill:#FF6B6C;}
	.st5{opacity:0.35;fill:#555555;}
	.st6{fill:#FFFFFF;}
	.st7{opacity:0.6;fill:#FF6C6B;}
	.st8{opacity:0.6;}
	.st9{fill:#555555;}
</style>
<g transform="translate(-948 -910.5)">
	<path class="st0" d="M982.1,938.1h-26l3.3-16.3h19.5L982.1,938.1z"/>
	<path class="st1" d="M1029.3,957.7h-8c-0.1,0.7-0.2,1.3-0.4,1.9c0.7,1.4,0.6,3.2-0.5,4.4c0.7,0.8,1,2,0.8,3c1.8,1.9,1,6-2.5,6
		c-1.2,0-2-0.5-2.6-1.2c-1.5-0.8-2-2.7-1.5-4.3c-0.3-1.1-0.2-2.4,0.5-3.3c-0.3,0-0.6,0.1-1,0.1c-2,0-3.6-0.7-4.8-1.7
		c-1.1-0.4-2-1-2.7-1.8c-0.3,0-0.6-0.1-0.9-0.2c-0.1,0.5-0.2,1.1-0.3,1.6c0.4,1.1,0.3,2.4-0.3,3.4c0.8,1.3,0.7,3.3-0.3,4.4
		c0,0.8-0.1,1.5-0.3,2.2c1,1.9,1.2,4.3,0.6,6.4c0.2,0,0.3,0,0.5,0c0.9,0,1.7,0.3,2.2,0.8c0.3-0.7,0.8-1.2,1.5-1.6
		c0.6-0.6,1.4-1.1,2.5-1.1c3,0,4,3.1,3,5.1c0.7,1.5,0.3,3.6-1.1,4.5c0.4,0,0.8,0.1,1.2,0.2c0.5-0.1,1.1-0.2,1.7-0.2
		c0.7,0,1.3,0.1,1.9,0.2c0.6-0.1,1.2-0.2,1.9-0.2c1.4,0,2.6,0.3,3.6,0.9c0.9-0.5,2.1-0.7,3.4-0.7c0.2,0,0.3,0,0.5,0
		c0-1.5,0.4-3,1.2-4.3c0-0.1,0-0.2,0-0.3c-2.2-4.4,0-11.1,6.4-11.1c0.1,0,0.1,0,0.2,0l0-0.2v-6.5
		C1035.8,960.6,1032.9,957.7,1029.3,957.7z"/>
	<path class="st1" d="M988.2,972.7c-0.2-1.9,0.2-3.8,1.2-5.4c-0.5-1.1-0.8-2.4-0.7-3.7c-1.1-0.1-2.1-0.4-2.9-0.9
		c-1.1,0.8-2.5,1.3-4.3,1.3c-0.5,0-0.9,0-1.4-0.1c0,0,0,0,0,0c0.1,1.1-0.3,2.3-1.1,3.1c0,0.4-0.1,0.8-0.2,1.2c0.4,2-0.7,4.3-3.3,4.3
		c-2.8,0-3.9-2.7-3.2-4.8c-0.1-0.8,0-1.5,0.3-2.2c-0.7-1.7-0.3-3.9,1.5-4.8c0.2-0.4,0.4-0.8,0.7-1.1c-0.3-0.6-0.4-1.3-0.5-2h-10
		c-3.6,0-6.5,2.9-6.5,6.5v5.4c0.1,0,0.2,0,0.4,0c5,0,7.4,4.1,7.2,8c0.1,0.3,0.1,0.6,0.1,0.9c0.3,1.3,0.4,2.7,0,4
		c0.8,1.6,1.1,3.4,0.9,5.2c0.9-0.4,2-0.7,3.3-0.7c0.4,0,0.7,0,1.1,0.1c0.9-0.4,2-0.7,3.3-0.7c0.8,0,1.6,0.1,2.3,0.3
		c0.9-0.4,1.8-0.6,3-0.6c0.2,0,0.4,0,0.6,0c1-0.6,2.3-1,3.9-1c0.3,0,0.6,0,0.8,0.1c-3-1.3-2.6-6.7,1.4-6.7c0.2,0,0.4,0,0.6,0.1
		c0.3-0.1,0.7-0.2,1.1-0.2c0.5,0,0.9,0.1,1.3,0.3C988,976.8,987.8,974.6,988.2,972.7z"/>
	<path class="st2" d="M1027.6,987.7l1.1-11.2c0.3-3.3,3.1-5.9,6.5-5.9h2.2c3.6,0,6.5,2.9,6.5,6.5c0,3.6-2.9,6.5-6.5,6.5h-1.6
		l-1.2,15.1c-0.3,3.4-3.1,6-6.5,6h-62.7c-3.4,0-6.2-2.6-6.5-6l-1.2-15.1h-1.6c-3.6,0-6.5-2.9-6.5-6.5c0-3.6,2.9-6.5,6.5-6.5h2.2
		c3.3,0,6.1,2.5,6.5,5.9l1.1,11.2c10.2-1.6,20.5-2.4,30.8-2.4C1007.1,985.4,1017.4,986.2,1027.6,987.7L1027.6,987.7z"/>
	<path class="st0" d="M1014.7,921.9h29.3v22.8h-29.3V921.9z"/>
	<path class="st3" d="M1021.2,928.4h16.3v9.8h-16.3V928.4z"/>
	<path class="st4" d="M996.8,912.1c5.4,0,9.8,4.4,9.8,9.8c0,5.4-4.4,9.8-9.8,9.8c-5.4,0-9.8-4.4-9.8-9.8
		C987,916.5,991.4,912.1,996.8,912.1C996.8,912.1,996.8,912.1,996.8,912.1z"/>
	<path class="st5" d="M998,1002.2l3.1-14.4c0.3-1.7,2-2.8,3.7-2.5c1.7,0.3,2.8,2,2.5,3.7c0,0,0,0.1,0,0.1l-3.2,14.7L998,1002.2z"/>
	<path class="st6" d="M1000,1001.6c2.7,0,4.9,2.2,4.9,4.9v1.6h-9.8v-1.6C995.2,1003.7,997.3,1001.6,1000,1001.6z"/>
	<path class="st5" d="M1009.4,985.3h-24c-1.8-0.1-3.2-1.6-3.1-3.4c0.1-1.7,1.4-3.1,3.1-3.1h24V985.3z"/>
	<path class="st6" d="M1013,977.2h1.6v9.8h-1.6c-2.7,0-4.9-2.2-4.9-4.9S1010.3,977.2,1013,977.2L1013,977.2z"/>
	<path class="st7" d="M1001.8,971c-0.3,0-0.6,0-0.8-0.1c-0.5,0.3-1.1,0.5-1.8,0.5c-0.6,0-1.1-0.1-1.5-0.3c-0.4,0.1-0.7,0.2-1.2,0.2
		c-1,0-1.7-0.3-2.3-0.9c-0.5,0.5-1.3,0.7-2.2,0.7c-2.1,0-3.2-1.5-3.4-3.2v10.8h16.3v-9.9C1004.5,970.1,1003.4,971,1001.8,971z"/>
	<path class="st7" d="M1017.7,958.2l-12.8-3.8h-16.3l-12.8,3.8c-2.1,0.6-3.5,2.5-3.5,4.7v9.4h3.3c1.8,0,3.3-1.5,3.3-3.3v-4.9
		l9.8-3.3v6.4c0.1-1.6,1.2-3.2,3.4-3.2c1,0,1.7,0.3,2.3,0.9c0.5-0.5,1.3-0.7,2.2-0.7c0.6,0,1.1,0.1,1.5,0.3c0.4-0.1,0.7-0.2,1.2-0.2
		c0.3,0,0.6,0,0.8,0.1c0.5-0.3,1.1-0.5,1.8-0.5c1.6,0,2.7,0.9,3.1,2.1v-5.1l9.8,3.3v4.9c0,1.8,1.5,3.3,3.3,3.3h3.3v-9.4
		C1021.2,960.8,1019.8,958.9,1017.7,958.2z"/>
	<path class="st6" d="M991.9,944.6v9.8h4.9c2.7,0,4.9-2.2,4.9-4.9l0,0v-4.9H991.9z"/>
	<path class="st6" d="M975.6,972.3h-3.3v-6.5h6.5v3.3C978.9,970.8,977.4,972.3,975.6,972.3z"/>
	<path class="st6" d="M1017.9,972.3h3.2v-6.5h-6.5v3.3C1014.7,970.8,1016.1,972.3,1017.9,972.3z"/>
	<path class="st8" d="M991.9,946.3V943c0-1.8,1.5-3.2,3.3-3.2h6.5c1.8-0.1,3.3,1.3,3.4,3.1c0.1,1.8-1.3,3.3-3.1,3.4
		c-0.1,0-0.2,0-0.2,0H991.9z"/>
	<path class="st5" d="M988.7,964.2h16.3v6.5h-16.3V964.2z"/>
	<path class="st9" d="M1043.9,920.3h-29.3c-0.9,0-1.6,0.7-1.6,1.6c0,0,0,0,0,0v22.8c0,0.9,0.7,1.6,1.6,1.6l0,0h29.3
		c0.9,0,1.6-0.7,1.6-1.6l0,0v-22.8C1045.6,921,1044.8,920.3,1043.9,920.3L1043.9,920.3z M1042.3,943h-26v-19.5h26V943z"/>
	<path class="st9" d="M1021.2,939.8h16.3c0.9,0,1.6-0.7,1.6-1.6l0,0v-9.8c0-0.9-0.7-1.6-1.6-1.6h0h-16.3c-0.9,0-1.6,0.7-1.6,1.6v9.8
		C1019.5,939,1020.3,939.8,1021.2,939.8L1021.2,939.8z M1022.8,930h13v6.5h-13V930z"/>
	<path class="st9" d="M996.8,933.3c6.3,0,11.4-5.1,11.4-11.4c0-6.3-5.1-11.4-11.4-11.4c-6.3,0-11.4,5.1-11.4,11.4
		C985.4,928.2,990.5,933.3,996.8,933.3L996.8,933.3z M996.8,913.8c4.5,0,8.1,3.6,8.1,8.1c0,4.5-3.6,8.1-8.1,8.1
		c-4.5,0-8.1-3.6-8.1-8.1C988.7,917.4,992.3,913.8,996.8,913.8C996.8,913.8,996.8,913.8,996.8,913.8z"/>
	<path class="st9" d="M998.9,926.3l2.3-2.3l-2.8-2.8V917h-3.3v4.9c0,0.4,0.2,0.8,0.5,1.2L998.9,926.3z"/>
	<path class="st9" d="M954.5,975.5h4.9v3.3h-4.9V975.5z"/>
	<path class="st9" d="M1034.2,975.5h4.9v3.3h-4.9V975.5z"/>
	<path class="st9" d="M1037.4,969v-4.9c0-4.5-3.6-8.1-8.1-8.1H1016l-10.6-3.2c-0.2,0-0.3-0.1-0.5-0.1h-2.5c0.6-1,0.9-2.1,0.9-3.3
		v-1.9c2.5-0.9,3.9-3.7,3-6.2c-0.7-1.9-2.5-3.2-4.6-3.2h-6.5c-2.7,0-4.9,2.2-4.9,4.9v9.8h-1.6c-0.2,0-0.3,0-0.5,0.1l-10.6,3.2h-6.8
		v-16.3h11.4c0.9,0,1.6-0.7,1.6-1.6c0-0.1,0-0.2,0-0.3l-3.3-16.3c-0.2-0.8-0.8-1.3-1.6-1.3h-19.5c-0.8,0-1.4,0.5-1.6,1.3l-3.3,16.3
		c-0.2,0.9,0.4,1.7,1.3,1.9c0.1,0,0.2,0,0.3,0h4.9v3.3h3.3v-3.3h3.3V956h-3.3c-4.5,0-8.1,3.6-8.1,8.1v4.9c-4.5,0-8.1,3.6-8.1,8.1
		c0,4.5,3.6,8.1,8.1,8.1h0.1l1,13.6c0.3,4.2,3.9,7.5,8.1,7.5h0.5v3.3h3.3v-3.3h24.4v1.6c0,0.9,0.7,1.6,1.6,1.6c0,0,0,0,0,0h9.8
		c0.9,0,1.6-0.7,1.6-1.6l0,0v-1.6h17.9v3.3h3.3v-3.3h0.5c4.2,0,7.8-3.3,8.1-7.5l1-13.6h0.1c4.5,0,8.1-3.6,8.1-8.1
		C1045.6,972.7,1041.9,969,1037.4,969L1037.4,969z M960.7,923.5h3.2l-1.2,6.2l3.2,0.6l1.4-6.8h3.8l1.4,6.8l3.2-0.6l-1.2-6.2h3.2
		l2.6,13h-22L960.7,923.5z M1034.2,964.2v4.9c-3.8,0.5-6.7,3.5-7.1,7.3l-0.9,9.4c-2.4-0.4-5.6-0.9-9.9-1.3v-7.3
		c0-0.9-0.7-1.6-1.6-1.6h-1.6c-1.6,0-3.1,0.6-4.3,1.6h-2.2v-14l6.5,2.2v3.7c0,2.7,2.2,4.9,4.9,4.9h3.3c0.9,0,1.6-0.7,1.6-1.6v-9.4
		c0-1.3-0.4-2.6-1.1-3.6h7.6C1032,959.3,1034.2,961.5,1034.2,964.2L1034.2,964.2z M1013,978.8v6.5c-1.8,0.1-3.3-1.3-3.4-3.1
		s1.3-3.3,3.1-3.4C1012.9,978.8,1013,978.8,1013,978.8z M1005.4,987.5c0.3,0.4,0.4,0.8,0.3,1.3l-2.6,11.9c-0.9-0.5-2-0.8-3-0.8
		l2.6-11.8c0.2-0.7,0.8-1.2,1.5-1.2C1004.7,986.9,1005.1,987.1,1005.4,987.5z M1006.7,983.7h-21.3c-0.9,0-1.6-0.7-1.6-1.6
		c0-0.9,0.7-1.6,1.6-1.6h21.3C1006.5,981.5,1006.5,982.6,1006.7,983.7z M990.3,965.8h13v3.3h-13V965.8z M990.3,972.3h13v4.9h-13
		V972.3z M1016.3,967.4h3.3v3.3h-1.6c-0.9,0-1.6-0.7-1.6-1.6V967.4z M993.5,943c0-0.9,0.7-1.6,1.6-1.6h6.5c0.9,0,1.6,0.7,1.6,1.6
		c0,0.9-0.7,1.6-1.6,1.6h-8.1L993.5,943z M993.5,947.9h6.5v1.6c0,1.8-1.5,3.2-3.2,3.3h-3.3V947.9z M988.9,956h15.8l12.6,3.8
		c1.4,0.4,2.3,1.7,2.3,3.1v1.2h-3.3c0-0.7-0.4-1.3-1.1-1.5l-9.8-3.3c-0.9-0.3-1.8,0.2-2.1,1c-0.1,0.2-0.1,0.3-0.1,0.5v1.6h-13v-1.6
		c0-0.9-0.7-1.6-1.6-1.6c-0.2,0-0.3,0-0.5,0.1l-9.8,3.3c-0.7,0.2-1.1,0.8-1.1,1.5H974v-1.2c0-1.4,0.9-2.7,2.3-3.1L988.9,956z
		 M974,967.4h3.3v1.6c0,0.9-0.7,1.6-1.6,1.6H974V967.4z M964.3,959.3h7.6c-0.7,1.1-1.1,2.3-1.1,3.6v9.4c0,0.9,0.7,1.6,1.6,1.6h3.3
		c2.7,0,4.9-2.2,4.9-4.9v-3.7l6.5-2.2v14h-1.6c-2.7,0-4.9,2.2-4.9,4.9c0,0.7,0.2,1.5,0.5,2.1c-4.6,0.3-8.1,0.7-10.7,1.1
		c-1.1,0.2-2.1,0.3-2.9,0.5l-0.9-9.4c-0.4-3.8-3.3-6.8-7.1-7.3v-4.9C959.4,961.5,961.6,959.3,964.3,959.3L964.3,959.3z
		 M994.4,1003.2h-29c-2.5,0-4.7-2-4.9-4.5l-1.2-15.1c-0.1-0.8-0.8-1.5-1.6-1.5h-1.6c-2.7,0-4.9-2.2-4.9-4.9c0-2.7,2.2-4.9,4.9-4.9
		c0,0,0,0,0,0h2.2c2.5,0,4.6,1.9,4.9,4.4l1,9.8c-1.4,0.3-2,0.5-2.1,0.6l1,3.1c2.6-0.7,5.2-1.3,7.8-1.6c8.6-1.1,17.2-1.7,25.8-1.6
		h2.9c-0.1,0.2-0.1,0.4-0.2,0.5l-2.9,13.5C995.7,1001.5,994.9,1002.3,994.4,1003.2L994.4,1003.2z M996.8,1006.4
		c-0.1-1.8,1.3-3.3,3.1-3.4c1.8-0.1,3.3,1.3,3.4,3.1c0,0.1,0,0.2,0,0.2H996.8z M1037.4,982h-1.6c-0.8,0-1.6,0.7-1.6,1.5l-1.2,15.1
		c-0.2,2.5-2.3,4.5-4.9,4.5h-22.2l3-13.7c0.2-0.8,0.1-1.7-0.1-2.5c1.2,1,2.7,1.6,4.3,1.6h1.6c0.6,0,1.1-0.3,1.4-0.8
		c9.9,0.9,14.3,2.3,14.3,2.4l1-3.1c-0.1,0-0.7-0.2-2.1-0.6l1-9.8c0.2-2.5,2.3-4.4,4.9-4.4h2.2c2.7,0,4.9,2.2,4.9,4.9
		C1042.3,979.9,1040.1,982,1037.4,982L1037.4,982z"/>
</g>
</svg>
