<?xml version="1.0" encoding="utf-8"?>
<!-- Generator: Adobe Illustrator 24.1.2, SVG Export Plug-In . SVG Version: 6.00 Build 0)  -->
<svg version="1.1" id="Layer_1" xmlns="http://www.w3.org/2000/svg" xmlns:xlink="http://www.w3.org/1999/xlink" x="0px" y="0px"
	 viewBox="0 0 100.3 100.1" style="enable-background:new 0 0 100.3 100.1;" xml:space="preserve">
<style type="text/css">
	.st0{opacity:0.14;fill:#FF6C6B;}
	.st1{opacity:0.66;fill:#FF6C6B;}
	.st2{fill:#555555;}
</style>
<g transform="translate(-15.5 -16)">
	<path class="st0" d="M112.2,105.7c-1.8-1.6-4.2-2.5-6.6-2.5l0,0c-0.6,0-1.1,0-1.7,0.1v-0.1c0-5.5-4.5-10-10-10V76.4
		c-1.1,0.2-2.3,0.3-3.4,0.3c-1.9,0-3.7-0.2-5.4-0.6c-1.4,0.3-2.9,0.4-4.3,0.4c-0.9,0-1.8-0.1-2.6-0.2c-1.3,0.2-2.5,0.3-3.8,0.3
		c-1.4,0-2.8-0.1-4.2-0.4c-1.3,0.2-2.7,0.4-4,0.4c-1.2,0-2.4-0.1-3.6-0.3c-1.2,0.2-2.3,0.3-3.5,0.3c-1.1,0-2.2-0.1-3.3-0.2
		c-1,0.1-2.1,0.2-3.1,0.2c-1.5,0-3-0.1-4.4-0.4c-1.4,0.3-2.8,0.4-4.2,0.4c-0.5,0-0.9,0-1.4,0c-0.4,0-0.9,0-1.3,0
		c-1.3,0-2.6-0.1-3.9-0.3v16.8c-5.5,0-10,4.5-10,10v0.1c-0.6-0.1-1.1-0.1-1.7-0.1c-2.4,0-4.8,0.9-6.6,2.5c-1.3,1.2-2.1,2.9-2.1,4.6
		c0,3.4,2.8,6.2,6.2,6.2c0,0,0,0,0,0h85c3.4,0,6.2-2.8,6.2-6.2C114.3,108.6,113.6,106.9,112.2,105.7z"/>
	<path class="st1" d="M105.6,106.6c-0.4,0-0.7,0-1.1,0.1c-0.2,0-0.4,0-0.6,0c-1.8,0-3.3-1.5-3.3-3.4v-0.1c0-3.7-3-6.6-6.7-6.6
		c-1.8,0-3.3-1.5-3.3-3.3V76.7c0,0-0.1,0-0.1,0c-1.9,0-3.7-0.2-5.4-0.6c-1.4,0.3-2.9,0.4-4.3,0.4c-0.9,0-1.8-0.1-2.6-0.2
		c-1.3,0.2-2.5,0.3-3.8,0.3c-1.4,0-2.8-0.1-4.2-0.4c-1.3,0.2-2.7,0.4-4,0.4c-1.2,0-2.4-0.1-3.6-0.3c-1.2,0.2-2.3,0.3-3.5,0.3
		c-1.1,0-2.2-0.1-3.3-0.2c-1,0.1-2.1,0.2-3.1,0.2c-1.5,0-3-0.1-4.4-0.4c-1.4,0.3-2.8,0.4-4.2,0.4c-0.4,0-0.9,0-1.3,0
		c-0.5,0-0.9,0-1.4,0c-0.2,0-0.4,0-0.6,0v16.5c0,1.8-1.5,3.3-3.3,3.3c-3.7,0-6.7,3-6.7,6.6v0.1c0,0.2,0,0.4,0,0.6
		c-0.3,1.8-2,3-3.8,2.7c-0.4-0.1-0.7-0.1-1.1-0.1c-1.6,0-3.1,0.6-4.3,1.6c-0.6,0.5-1,1.3-1,2.2c0,1.6,1.3,2.9,2.9,2.9h85
		c0.8,0,1.6-0.4,2.2-1c1-1.2,0.9-3-0.3-4.1C108.8,107.1,107.2,106.6,105.6,106.6z"/>
	<path class="st2" d="M65.7,62.7c-2.8,0-5-2.2-5-5c0-2.8,2.2-5,5-5c2.8,0,5,2.2,5,5c0,1.3-0.5,2.6-1.5,3.5
		C68.3,62.2,67,62.7,65.7,62.7z M65.7,56c-0.9,0-1.7,0.7-1.7,1.7c0,0.9,0.7,1.7,1.7,1.7c0.9,0,1.7-0.7,1.7-1.7c0-0.2,0-0.4-0.1-0.6
		C66.9,56.4,66.3,56,65.7,56z"/>
	<path class="st2" d="M66.8,54.2l18.9-18.9l2.4,2.4L69.2,56.5L66.8,54.2z"/>
	<path class="st2" d="M77.5,45.9c-6.4-6.4-16.7-6.5-23.2-0.3l-2.3-2.4c7.9-7.4,20.2-7.3,27.9,0.4L77.5,45.9z"/>
	<path class="st2" d="M47,43.7l-2.7-2c8.8-11.8,25.6-14.2,37.4-5.3c1,0.8,2,1.6,2.9,2.5l-2.4,2.4c-9.1-9.1-23.9-9.1-33,0
		C48.4,42,47.6,42.8,47,43.7L47,43.7z"/>
	<path class="st2" d="M72.7,50.6c-3.3-3.2-8.3-3.9-12.2-1.5l-1.7-2.9c5.3-3.2,12-2.3,16.3,2L72.7,50.6z"/>
	<path class="st2" d="M109,77.7H22.3c-3.7,0-6.7-3-6.7-6.7v-3.3c0-0.9,0.7-1.7,1.7-1.7h28.4c0.3,0,0.5,0.1,0.7,0.2l3,1.5h32.6l3-1.5
		c0.2-0.1,0.5-0.2,0.7-0.2H114c0.9,0,1.7,0.7,1.7,1.7v3.3C115.7,74.7,112.7,77.7,109,77.7z M18.9,69.4v1.7c0,1.8,1.5,3.3,3.3,3.3
		H109c1.8,0,3.3-1.5,3.3-3.3v-1.7H86.1l-3,1.5c-0.2,0.1-0.5,0.2-0.7,0.2H49c-0.3,0-0.5-0.1-0.7-0.2l-3-1.5H18.9z"/>
	<path class="st2" d="M110.7,67.7h-3.3v-45c0-1.8-1.5-3.3-3.3-3.3H27.3c-1.8,0-3.3,1.5-3.3,3.3v45h-3.3v-45c0-3.7,3-6.7,6.7-6.7H104
		c3.7,0,6.7,3,6.7,6.7V67.7z"/>
	<path class="st2" d="M104,62.7h-3.3V26H30.6v36.7h-3.3V24.3c0-0.9,0.7-1.7,1.7-1.7h73.4c0.9,0,1.7,0.7,1.7,1.7L104,62.7z"/>
	<path class="st2" d="M52.3,81.1h3.3v6.7h-3.3V81.1z"/>
	<path class="st2" d="M80.7,81.1H84v6.7h-3.3V81.1z"/>
	<path class="st2" d="M65.7,106.1H69v5h-3.3V106.1z"/>
	<path class="st2" d="M62.9,89.4c-2.3,0-4.5,0.7-6.5,1.9l1.8,2.8c3.8-2.5,9-1.5,11.6,2.3c0.9,1.4,1.4,3,1.4,4.6c0,0.5,0,0.9-0.1,1.4
		l3.3,0.6c1.1-6.4-3.2-12.4-9.6-13.5C64.1,89.5,63.5,89.4,62.9,89.4z"/>
	<path class="st2" d="M49,102.8c-4.9,0-9.4,3.1-11,7.8l3.1,1.1c1.5-4.3,6.3-6.6,10.7-5.1c2.4,0.8,4.2,2.7,5.1,5.1l3.1-1.1
		C58.3,105.9,53.9,102.8,49,102.8z"/>
	<path class="st2" d="M87.9,102.8c-4.9,0-9.4,3.1-11,7.8l3.1,1.1c1.5-4.3,6.3-6.6,10.7-5.1c2.4,0.8,4.2,2.7,5.1,5.1l3.1-1.1
		C97.3,105.9,92.9,102.8,87.9,102.8z"/>
	<path class="st2" d="M37.3,94.4c1.5,0,2.9,0.4,4.2,1.1l1.7-2.9c-1.3-0.7-2.7-1.2-4.2-1.4V81.1h-3.3v10.1c-5.1,0.7-9.1,4.8-9.9,9.9
		h-0.1c-4.2,0-8,2.2-10.1,5.8l2.9,1.7c2.3-4,7.4-5.4,11.4-3.1c0.5,0.3,1,0.6,1.4,1l2.2-2.5c-1.3-1.1-2.7-2-4.4-2.5
		C29.6,97.5,33.1,94.4,37.3,94.4z"/>
	<path class="st2" d="M105.6,101.1c-0.7-5.1-4.8-9.1-9.9-9.9V81.1h-3.3v10.1c-1.5,0.2-2.9,0.7-4.2,1.4l1.7,2.9
		c4-2.3,9.1-0.9,11.4,3.1c0.5,0.9,0.9,1.9,1,3c-1.6,0.5-3.1,1.3-4.4,2.5l2.2,2.5c3.4-3.1,8.7-2.8,11.8,0.7c0.4,0.4,0.7,0.9,1,1.4
		l2.9-1.7C113.7,103.3,109.8,101.1,105.6,101.1z"/>
	<path class="st2" d="M47.3,94.4h3.3v3.3h-3.3V94.4z"/>
	<path class="st2" d="M79,92.7h3.3v3.3H79V92.7z"/>
	<path class="st2" d="M42.3,84.4h3.3v3.3h-3.3V84.4z"/>
	<path class="st2" d="M65.7,82.7H69v3.3h-3.3V82.7z"/>
	<path class="st2" d="M40.6,56H44v3.3h-3.3V56z"/>
	<path class="st2" d="M47.3,56h3.3v3.3h-3.3V56z"/>
	<path class="st2" d="M54,56h3.3v3.3H54V56z"/>
	<path class="st2" d="M74,56h3.3v3.3H74V56z"/>
	<path class="st2" d="M80.7,56H84v3.3h-3.3V56z"/>
	<path class="st2" d="M87.3,56h3.3v3.3h-3.3V56z"/>
</g>
</svg>
