<?xml version="1.0" encoding="utf-8"?>
<!-- Generator: Adobe Illustrator 25.2.2, SVG Export Plug-In . SVG Version: 6.00 Build 0)  -->
<svg version="1.1" id="Layer_1" xmlns="http://www.w3.org/2000/svg" xmlns:xlink="http://www.w3.org/1999/xlink" x="0px" y="0px"
	 viewBox="0 0 196.1 52.4" style="enable-background:new 0 0 196.1 52.4;" xml:space="preserve">
<polygon points="4.1,17.1 15.2,28.2 33.9,17.8 54.4,36.4 66.8,26.2 54.9,40.5 33.9,21.4 14.8,32 "/>
<path d="M72.8,17.4c1,0,1.6,1.1,1.8,3.2c0,0.4-0.1,0.6-0.2,0.6l-0.3-0.4h-0.1l-0.2,0.1l0.5,1V22h0.1l0.1-0.1h0.1l-0.1-0.3l0.2-0.2
	c0.1,0.2,0.2,0.4,0.2,0.5V22c0,0.3-0.1,0.4-0.4,0.4l0.1,0.3l0.4-0.1l0.1,0.1v0.1L75,22.7v0.1l0.1,0.5h-0.1l-0.2,0.1h-0.2v0.1
	c0,0.1,0.2,0.2,0.6,0.3l1.1,6.8c-0.2,0-0.5,0.2-0.8,0.6h-0.1L75.5,31h-0.1v0.1c0.2,0.3,0.4,0.4,0.6,0.4v-0.1
	c0.1-0.6,0.4-0.9,0.7-0.9h0.2l1,0.1c0-0.1-0.2-0.2-0.5-0.3v-0.1l0.1-0.2c-0.1-0.2-0.2-0.3-0.3-0.4h-0.1c-0.1,0.3-0.1,0.4-0.2,0.4
	h-0.1l-0.1-0.1l1.3-5.6l0.1-0.5H78c0.2,0.2,0.4,0.3,0.5,0.3l0.1-0.1v-0.1l-0.4-0.5l0.8-3.6h0.1l0.3,0.1h0.1v-0.3h-0.3L79,19.9v-0.1
	l0.1-0.1h0.3v-0.1l-0.3-0.3v-0.1l0.2-0.4l0.3,0.1h0.5l0.1,0.1h0.1v-0.1c0-0.1-0.2-0.2-0.6-0.3v-0.1c0-0.1,0.2-0.1,0.5-0.1v-0.1
	l-0.4-0.1c0-0.2,0.4-0.4,1.2-0.7c0.3,0,0.4,0.2,0.4,0.4l0.4-0.4h0.1l0.1,0.1H82L82,17.6v0.2c0.1,0,0.2,0,0.2,0.1l-0.1,0.1l-0.3-0.2
	h-0.2l-0.1,0.2l0.7,0.2l0.1-0.1l0.1-0.2h0.1c0.3,0,0.7,0.6,1.1,1.7l0.6,3.1H84l-0.3-0.1l-1,0.1v0.1c0.4,0.2,0.7,0.3,0.9,0.3l0.6-0.2
	l1.6,7.1c0.3,0,0.5-1.2,0.7-3.6l1.7-7.7h0.1c0,0.2,0.2,0.3,0.5,0.3c0.2,0,0.3-0.1,0.3-0.3c-0.1-0.3-0.2-0.4-0.3-0.4l-0.5,0.1
	c0-0.6,0.4-1,1.3-1.2h0.2l0.1,0.1v0.1L89.6,18h0.1c0.3,0,0.5-0.2,0.7-0.4c0.6,0.4,0.9,0.8,0.9,1.4v0.4c0,1.7-0.6,4.6-1.8,8.5
	c-0.6,3-1,5.3-1.4,6.8L87.8,35c-0.1,0-0.2,0.2-0.2,0.5c-0.4,0.5-0.9,0.7-1.4,0.7l-0.1-0.1l0.1-0.1v-0.2c-0.4-0.1-0.6-0.2-0.6-0.3
	l0.1-0.1H86c0-0.4-0.1-0.6-0.2-0.6l-1.5,0.2l-0.1-0.1v-0.3l0.2-0.3h0.3v-0.1c-0.5,0-0.8-0.1-0.8-0.3v-0.1l0.1-0.1l0.1,0.1h0.1V34
	c-0.5-1-1-2.8-1.5-5.2l-1.3-5.7v-0.1c0-0.1,0.1-0.2,0.4-0.3v-0.2l-0.1-0.1l-0.4,0.2l-0.1-0.1c-0.3,0.7-0.6,2.3-1.1,4.6
	c-0.2,0.6-0.4,1-0.6,1.2l0.1,0.8c0,0.7-0.2,1.3-0.6,1.9c0,2.1-0.5,3.7-1.4,4.8c-0.3,0.3-0.8,0.4-1.3,0.4c-1.1,0-1.8-1.1-2.2-3.4
	L74,32.3c0.3-0.2,0.6-0.3,0.8-0.3c0-0.1-0.3-0.2-0.9-0.3l-0.1-0.1v-0.1l0.1-0.1H74l1,0.2h0.1v-0.1c-0.3-0.2-0.5-0.4-0.5-0.7l0.3-0.1
	v-0.1h-0.3l-0.1-0.1h-0.1l-0.1,0.2l0.1,0.6l-0.1,0.1h0c-0.5,0-0.8-0.5-0.8-1.5l0.1-0.1h0.1l0.5,0.1h0.1l0.3-0.1
	c-0.1-0.2-0.4-0.3-0.7-0.3l-0.3,0.1c-0.1-0.2-0.3-0.6-0.3-1.3l0.1-0.1l0.2,0.1l0.7-0.3l-0.2-0.2v-0.1c-0.3,0.2-0.6,0.3-0.7,0.3
	c-0.1,0-0.2-0.4-0.3-1.3c-0.3-0.7-0.4-1.3-0.4-1.9c0.1-0.3,0.2-0.4,0.3-0.4l-0.1-0.3l-0.4,0.1L72,22.9v-0.3c0.1-0.2,0.2-0.3,0.4-0.3
	v-0.1c-0.3,0-0.6-0.1-0.8-0.4v-0.1c0-0.1,0.1-0.1,0.2-0.1l0.4,0.1l0.2-0.1v-0.1c-0.4,0-0.6-0.2-0.7-0.5c-0.1-0.8-0.3-1.2-0.4-1.4
	l0.1-0.1h0.5v-0.1l-0.2-0.9l-0.2-0.2l0.1-0.1l0.4,0.1v-0.1l0.1-0.2L72,18.1v-0.4L72.8,17.4z M72.5,18.6L72.5,18.6
	c0,0.1,0.1,0.3,0.4,0.6v0.1l-0.1,0.2h0.1c0.2-0.1,0.3-0.1,0.3-0.2v-0.3c-0.2,0-0.3-0.1-0.3-0.4L72.5,18.6z M73.3,21.6
	c-0.4,0.5-0.6,0.8-0.6,0.9h0.1c0.3-0.4,0.5-0.6,0.7-0.6h0.1c0.1,0,0.1,0.1,0.1,0.3H74l0.1-0.3C73.8,21.9,73.6,21.8,73.3,21.6
	L73.3,21.6z M73.5,24.3l0.2,0.3h0.1v-0.2c0-0.3,0.1-0.4,0.3-0.4l-0.1-0.1v-0.1C73.8,24,73.6,24.1,73.5,24.3L73.5,24.3z M74,26.8
	c0,0.3-0.1,0.5-0.3,0.7v0.1c0.2,0,0.5-0.3,0.8-0.8H74z M74.3,28.8L74.3,28.8l0.6-0.1h0.3v-0.1c0-0.1-0.1-0.2-0.3-0.2
	C74.4,28.5,74.3,28.6,74.3,28.8L74.3,28.8z M80.9,21.7H81c0.4-0.1,0.6-0.1,0.6-0.3v-0.1l-0.3-0.1C81,21.4,80.9,21.6,80.9,21.7
	L80.9,21.7z M83.9,30.1h0.6v-0.3l-0.1-0.1C84.2,29.7,84,29.8,83.9,30.1L83.9,30.1z M87.2,33.7l0.1,0.2c0.3,0,0.4-0.2,0.6-0.6h-0.1
	C87.4,33.4,87.2,33.5,87.2,33.7L87.2,33.7z M90.2,18.1L90,18.6l0.5,0.3c0.1-0.1,0.2-0.1,0.2-0.2c-0.3-0.2-0.4-0.3-0.5-0.4l0.1-0.1
	v-0.1L90.2,18.1z"/>
<path d="M99.5,19.8L99.5,19.8c1.3,0,2.3,1.3,2.9,3.9c1.1,3.5,2.1,6.3,2.9,8.5c0,0.1-0.1,0.3-0.3,0.5v0.1l0.4-0.1h0
	c0.1,0,0.2,0.2,0.2,0.7c0.3,0.6,0.4,1.2,0.4,1.8l-0.1,0.1l-0.3-0.3h0v0.2c0.3,0.3,0.5,0.5,0.5,0.6c-0.4,0.6-0.9,0.9-1.4,0.9
	c-0.8,0-1.5-1.1-2.1-3.4l-0.1-0.7l-0.2,0.1l-3.8-0.1h-1.5c-0.3,0.2-0.7,1.3-1.1,3.1c-0.3,0.7-0.7,1-1.1,1h-0.1
	c-0.7,0-1.3-0.5-1.5-1.5V35c0-0.5,0.6-2.1,1.7-4.9c1.2-3.8,2-6.2,2.5-7h0.8c0-0.1-0.2-0.2-0.7-0.3v-0.1c0-1.3,0.6-2.3,1.9-2.9
	L99.5,19.8z M99.4,23.4c-0.2,1-0.4,1.4-0.7,1.4l-0.1,0.3l0.3-0.3l0.1,0.1v0.1c0,0.2-0.2,0.4-0.5,0.6l0,0.1v0.5c0,0.5-0.3,1.7-1,3.5
	l0,0.3h4.1c0-0.2-0.4-1.3-1.1-3.4l-0.1-0.7v-0.6c-0.3-0.2-0.5-0.4-0.5-0.7v-0.2l0-0.3C99.7,24.1,99.5,23.9,99.4,23.4L99.4,23.4z
	 M97.8,30.8c0.1,0.1,0.2,0.2,0.3,0.2c0-0.2,0.1-0.4,0.3-0.6h-0.1C98.1,30.4,98,30.5,97.8,30.8L97.8,30.8z"/>
<path d="M109.2,19.8c1.1,0.2,1.7,0.7,1.7,1.4c1,1.4,2.4,3.7,4.1,7c0.6,1.1,1.2,2,1.8,2.9v-7.7c0-2.1,0.1-3.2,0.3-3.2
	c0.3-0.2,0.5-0.3,0.7-0.3h0.2c0.7,0,1.2,0.4,1.4,1.3l-0.1,1.5l0.2,10.4c0,1.7-0.1,2.7-0.4,3c-0.4,0.5-0.9,0.7-1.3,0.7
	c-0.7,0-1.3-0.5-1.9-1.5c-1.2-1.9-2.6-4.4-4.2-7.7v-0.2h0.1v-0.1c-0.4,0-0.8-0.6-1.4-1.8h0l-0.1,1.5l0.2,6v0.3
	c0,1.6-0.3,2.7-0.9,3.2l-0.4,0.1h-0.3c-0.7,0-1.1-0.6-1.1-1.7v-0.2l0.2-3c-0.1-2.2-0.2-4.8-0.2-7.8l0-3.1c0.5-0.4,0.8-0.8,1.1-1.1
	L109.2,19.8z M113.5,27.3v0.2l0.1,0.1c0-0.2,0.1-0.3,0.1-0.3h0.1l0.3,0.1h0.1v-0.1c-0.2,0-0.3-0.2-0.3-0.6L113.5,27.3z"/>
<path d="M124.5,20.1l3.6,0.2l0.7-0.1l0.1,0.1l-0.1,0.3v0.2c0,0.8,0.3,1.3,0.9,1.3l0,0.1v0.1l-0.1,0.1h-0.1l-0.8-0.1
	c-0.2,0-0.3,0.1-0.3,0.2c0.4,0.1,0.5,0.2,0.5,0.2v0.3h0.3c0-0.2,0.1-0.3,0.1-0.3h0.1c0.1,0,0.5,0.3,1.1,0.8h0
	c0.4-0.2,0.6-0.4,0.6-0.9v-0.1c-0.4,0.2-0.7,0.2-1,0.2h0c-0.3,0-0.4-0.1-0.5-0.3c0.8-0.7,1.2-1.1,1.3-1.1l0.9,1
	c0.2,0.3,0.3,0.6,0.3,1c0.3,0,0.6,0.7,0.9,2.1c0.2,0.9,0.2,1.7,0.2,2.3l-1.1,0.5c0,0.1,0,0.1,0.1,0.1l0.4-0.2h0.1l0.1,0.1v0.3
	c-0.1,0.2-0.2,0.3-0.3,0.3v0.1L133,29l0.5-0.2v0.1l-0.2,0.3c0.1,0,0.2,0.1,0.2,0.2v0.3c0,2.6-1,4.5-2.9,5.8
	c-0.8,0.5-2.5,0.8-5.3,0.8c-0.4,0.1-1,0.2-1.5,0.2h-0.6c-1.1,0-1.6-0.3-1.6-1c-0.1,0-0.1-0.2-0.2-0.7l0.1-0.1h0
	c0,0.2,0.1,0.2,0.1,0.2h0.1c0.1,0,0.1-0.1,0.1-0.2c0-0.3,0-0.5-0.1-0.5c-0.1,0-0.2,0.1-0.2,0.2h-0.1l-0.1-0.4v-0.1
	c0-0.2,0.1-0.7,0.3-1.4c0-0.1-0.1-0.2-0.2-0.2v-0.1l0.1-0.2h-0.1v-0.1c0-0.4,0.2-0.6,0.4-0.6h0c0,0.5,0.2,0.7,0.6,0.7h0V32
	c-0.2-0.3-0.3-0.6-0.3-0.7c0-0.1,0.1-0.2,0.3-0.2l-0.1-0.1l-0.9,0.3h0l-0.1-0.1V31c0-0.1,0.1-0.1,0.4-0.2v-0.1l-0.4-0.2l0.1-1.5
	l-0.1-6.9v-0.7l0.4-0.5l0.4,0.1v-0.2c0-0.1-0.1-0.2-0.3-0.2v-0.1C122.7,20.2,123.5,20.1,124.5,20.1z M122.3,35.3l-0.1,0.3h0l0.6,0.1
	l0.1-0.2h0l-0.3,0.1C122.4,35.5,122.3,35.4,122.3,35.3L122.3,35.3z M122.7,28.8L122.7,28.8l0,0.1l0.6-0.1l0.4,0.1v-0.1
	c0.1-0.2,0.1-0.2,0.2-0.2l-0.1-0.1C123.5,28.5,123.1,28.6,122.7,28.8L122.7,28.8z M122.7,35.2v0.1c0.5,0,0.8,0.1,1.1,0.4h0.1
	c0.1,0,0.1-0.1,0.1-0.3l0-0.1h0c0.1,0.1,0.3,0.3,0.4,0.7h0.2l0-0.3l0.4-0.4c-0.7-0.1-1.4-0.2-2.1-0.2L122.7,35.2z M123,30.7
	L123,30.7l0.3,0.2v0.1h-0.2c-0.2,0-0.3,0.1-0.3,0.2v0.1c0.8,0,1.1-0.2,1.1-0.5v-0.1l-0.3-0.1H123z M123,33.7L123,33.7
	c0,0.4,0.1,0.6,0.4,0.6h0.1C123.5,34.1,123.3,33.9,123,33.7L123,33.7z M126,22.8l-1.7-0.1l-0.3,0.1c0.2,0.5,0.3,1.1,0.3,1.9v0.5
	c0,0.8-0.1,1.4-0.3,1.7c0.2,0.2,0.3,0.3,0.3,0.6v0.2c0,0.3-0.1,0.5-0.2,0.7c0.2,0.1,0.3,0.2,0.3,0.5c0,0.3-0.1,0.4-0.2,0.4
	c0.1,0.4,0.2,0.8,0.2,1.1v0.4c0,0.5-0.1,1-0.2,1.5c0.2,0.1,0.2,0.2,0.2,0.3l0,1l0.1,0.3l0.6-0.1h0.9c0.4,0,0.7,0.1,0.9,0.2l0,0.2
	c0,0.2,0.2,0.3,0.3,0.3h0l0.1-0.1l-0.2-0.2V34l0.1-0.1v-0.1l0.3,0.1V34l-0.1-0.3l0.6-0.1c0.2,0,0.2,0.1,0.2,0.2v0.1
	c0,0.1,0,0.1-0.1,0.1l-0.2-0.1V34l0.6,0.3c0-0.4,0.1-0.6,0.2-0.6h0.4v-0.1c0.2-0.1,0.3-0.2,0.3-0.3c-0.3,0-0.4-0.1-0.4-0.2v-0.1
	l0-0.1v-0.1l0,0.1h0l0.3-0.1c0-0.1-0.1-0.2-0.2-0.2v-0.1c0.8-1.1,1.2-2.4,1.2-3.9l0-0.2l0-0.1l0.1,0.1h0.2l0.1-0.2l-0.4-0.1v-0.1
	h0.3c-0.2-0.2-0.3-0.7-0.4-1.5l0.3-0.1v-0.2c-0.3-0.1-0.5-0.3-0.5-0.6c0.1-0.3,0.2-0.5,0.2-0.5c0.2,0.2,0.3,0.2,0.4,0.2v-0.1
	c0-0.2-0.1-0.3-0.3-0.3h0l-0.3,0.1c-0.2-0.7-0.7-1.3-1.4-1.9c-0.6-0.3-1-0.5-1.3-0.5l-0.2,0.1h-0.1c-0.1,0-0.1-0.1-0.1-0.4
	C126.7,22.7,126.4,22.8,126,22.8L126,22.8z M124.9,35.1l0.2,0.1l0.2-0.1h0.1l0.1,0.1v0.2l0,0.1v0.1l0.7-0.2v-0.1
	c-0.2,0-0.3-0.1-0.3-0.3l-0.2-0.2C125.3,34.7,125.1,34.8,124.9,35.1L124.9,35.1z M125,21.4v0.1h0.2c0.2,0,0.4-0.2,0.6-0.5h-0.1
	L125,21.4z M125.9,34.5L125.9,34.5l0.3-0.1c0.2,0,0.4,0.3,0.4,0.9h0.1l0.1-0.1h0.3l0.1,0.1l0.1-0.1v-0.1c0-0.1-0.2-0.2-0.7-0.5v-0.1
	l0-0.3l-0.2-0.1h-0.3C126,34.2,126,34.3,125.9,34.5z M128.3,35.6l-0.2-0.1l0,0.1l0.1,0.2c0.5-0.1,0.7-0.2,0.7-0.3v-0.1
	C128.7,35.6,128.5,35.6,128.3,35.6L128.3,35.6z M128.2,34.7L128.2,34.7l1.2-0.1l-0.1-0.2C128.6,34.5,128.2,34.6,128.2,34.7
	L128.2,34.7z M131.3,32.4L131.3,32.4c0.4,0,0.6-0.1,0.7-0.3h-0.1C131.5,32.2,131.3,32.3,131.3,32.4L131.3,32.4z"/>
<path d="M143.8,20c1.1,0,1.7,0.3,1.9,0.6v0.1l-0.1,0.1l-0.2-0.2h-0.1v0.1c0.1,0.6,0.3,0.9,0.6,0.9v0.1c-0.1,0.7-0.7,1-1.6,1l-2-0.1
	v-0.1c0.1,0,0.2-0.1,0.2-0.2h0c-0.3,0.2-0.7,0.3-1.1,0.3h-0.1l-2.3-0.2c-0.6,0-0.8,0.1-0.8,0.4l0.1,1.4c0,0.3-0.1,0.5-0.4,0.5
	c0.2,0.4,0.3,0.8,0.3,1.1c0,0.3-0.2,0.8-0.5,1.5h0c0.2,0,0.4-0.3,0.6-0.9l0-0.1h0.3c0.3,0,0.8,0.1,1.4,0.3l0.4-0.1v0.1l0,0.2
	l0.5,0.5v0.1l-0.1,0.1v0.1l0.1,0.1h0.1c0.1,0,0.1-0.2,0.2-0.5h0.1v-0.1c-0.3-0.1-0.5-0.2-0.7-0.2v-0.1c0.9-0.3,1.7-0.5,2.3-0.5
	c1,0,1.7,0.3,2.1,0.8c0.1,0.2,0.2,0.4,0.2,0.6V28c0,0.8-0.4,1.1-1.3,1.1h-0.5l-0.1-0.1v-0.1c0-0.2,0.1-0.5,0.4-0.8h-0.1
	c-0.4,0.1-0.6,0.3-0.6,0.6l0.1,0.3v0.1l-1-0.1l-2.9,0.1h-0.9l-0.1,0.1v0.5l-0.2,0.2l-0.3-0.3h-0.1c-0.2,0.2-0.2,0.3-0.2,0.5l0.1,0.1
	v0.1c-0.3,0.2-0.8,0.3-1.3,0.3l-0.7-0.1v-0.1l0.1-0.6l-0.1-0.9v-0.3l0-0.1v-0.1l0.3,0.1h0.1c0.1,0,0.3-0.4,0.5-1.1l0.3-0.1l0.5,0.2
	c0.1-0.2,0.2-0.4,0.2-0.5V27c0-0.4-0.2-0.6-0.6-0.8h0v0.1c0.1,0,0.2,0.1,0.3,0.2c0,0.1-0.1,0.1-0.3,0.1v0.1l0.2,0.3V27
	c-0.2,0-0.6,0.4-1.2,1.3h0l-0.3-0.2l0-0.7V26l0-3.2c0-0.1,0.2-0.3,0.5-0.5v-0.2l-0.4-0.4l0.1-0.1h0.2l0.5,0.2l0.2-0.1
	c0-0.1-0.1-0.2-0.3-0.3l0,0.1h-0.4c-0.1,0-0.1-0.1-0.1-0.2c0.3-0.8,0.8-1.1,1.7-1.1h0.6c0.5,0,1.1,0.1,1.7,0.3
	c0.3-0.2,0.6-0.3,1-0.3c0.1,0,0.4,0.1,0.8,0.3c0.2,0,0.3-0.1,0.3-0.2h0.1c0.1,0.3,0.3,0.5,0.5,0.5h0.1l0.1-0.1l-0.2-0.2v-0.1
	C142.8,20.1,143.3,20,143.8,20z M137.8,30.3h0.2l0.1,0.1v1.1c0,0.8-0.1,1.3-0.3,1.5c0.1,0.5,0.4,0.7,0.7,0.7c0.9,0,1.6,0.1,2,0.3
	c0-0.2,0.2-0.2,0.4-0.2h0.2l0.8,0.1v-0.1l0.1-0.2h1.5c1.3,0,2.2,0.3,2.5,1l0,0.3c0,1.1-0.6,1.6-1.9,1.6h-0.7c-0.7,0-1.7-0.1-2.8-0.3
	c-0.7,0.2-1.4,0.3-2,0.3h-0.9c-1.6,0-2.4-0.3-2.4-1c-0.1-0.7-0.2-1.3-0.2-1.8v-0.7c0-0.5,0.1-1,0.2-1.5l-0.2-0.3v-0.3l0-0.1v-0.1
	c0.1,0.1,0.4,0.1,0.6,0.1h0.5C137.1,30.8,137.5,30.7,137.8,30.3L137.8,30.3z M135.9,20.6L135.9,20.6l1.3,0.1l0.2-0.1v-0.1l-0.9-0.2
	C136.2,20.4,136,20.5,135.9,20.6z M136.1,33.2L136.1,33.2c0.4,0,0.7-0.3,0.8-1C136.3,32.3,136.1,32.6,136.1,33.2z M136.2,22.5v0.2
	c0,0.1,0.1,0.2,0.4,0.3l0-0.5l0,0.1h0L136.2,22.5z M136.9,28.1L136.9,28.1L136.9,28.1l-0.1,0.9l0.3,0.2v-0.3l0.1-0.1v-0.1l0.5,0.1
	v-0.1l-0.1-0.3l0-0.1h0l0.5,0.1c0.1-0.1,0.2-0.2,0.2-0.2v-0.1H138c-0.1-0.1-0.2-0.2-0.2-0.4c0.3,0,0.4-0.1,0.4-0.2l-0.2-0.2
	C137.4,27.9,137.1,28.1,136.9,28.1L136.9,28.1z M137.6,28.1L137.6,28.1l0,0.3c0,0.1-0.1,0.2-0.3,0.2h-0.4v-0.1
	C137.1,28.2,137.3,28.1,137.6,28.1L137.6,28.1z M137.8,34.7L137.8,34.7l0.1,0.2v0.3l-0.2,0.3l0,0.1c0.1,0,0.3-0.3,0.6-0.9l-0.4-0.1
	L137.8,34.7z M139.7,21.4L139.7,21.4c0.1,0.1,0.2,0.2,0.2,0.5c0.2,0,0.4-0.1,0.6-0.3v-0.1h0v0.1h-0.1c0-0.2,0-0.3-0.1-0.3H140
	L139.7,21.4z M141.3,20.5l-0.1,0.2v0.1l0.6,0.2l0.1-0.1v-0.1L141.3,20.5z M141.2,27.9L141.2,27.9c0.2,0.1,0.4,0.1,0.4,0.3l-0.1,0.5
	v0.1h0c0.3-0.1,0.5-0.3,0.5-0.5h0l-0.6-0.4L141.2,27.9z M143.3,35.5c0.2,0.3,0.3,0.5,0.4,0.6h0.1V36l-0.1-0.2v-0.4h-0.2L143.3,35.5z
	"/>
<path d="M151.3,19.7c3.5,0,5.5,0.4,6.2,1.1c1.1,0.9,1.6,2,1.6,3.1v0.4c0,1.4-0.5,2.6-1.4,3.4c0,0.2-0.1,0.3-0.1,0.3h0l-0.3-0.5
	c-0.3,0.8-0.6,1.2-0.9,1.2l-0.1-0.2H156c-0.1,0-0.1,0.2-0.2,0.5c1.5,1.5,2.4,2.8,2.7,3.8l0,0.2v0.2l-0.3,0.3c0,0.1,0.2,0.2,0.7,0.3
	l0.1,0.2v0.2h-0.1v0.1c0.3,0.5,0.5,0.8,0.5,1.1v0.1c0,0.3-0.3,0.5-0.8,0.6l-0.5,0.3l-0.1-0.4h-0.2l-0.3,0.5
	c-0.3-0.1-0.4-0.2-0.4-0.3l0.1-0.2c-0.4-0.3-0.6-0.5-0.6-0.7l0-0.2c-0.5-0.2-0.7-0.5-0.7-1v-0.1c0-0.3,0.2-0.5,0.5-0.7h-0.1
	l-0.6,0.2c0-0.1-0.4-0.8-1.3-2.2V31l0-0.1h0l0.3,0.1h0v-0.2c-0.1,0-0.7-0.4-1.7-1.1c-0.5-0.3-1-0.5-1.5-0.5c-0.6,0-0.8,0.1-0.8,0.3
	l-0.1,0.7l0.1,2.8v0.3h-0.1l-0.2-0.1c-0.1,0-0.2,0.2-0.3,0.5l0,0.2c-0.5,0.2-0.7,0.3-0.8,0.4l0,0.1v0.1c0.2-0.1,0.2-0.2,0.2-0.3h0
	l0.5,0.6c0.3,0,0.4,0.1,0.4,0.2c-0.2,0.2-0.3,0.4-0.3,0.7c-0.3,0-0.7,0.2-1.1,0.6l-0.3,0.1c-0.3,0-0.4-0.1-0.4-0.2s0.1-0.2,0.3-0.2
	v-0.2h0l-0.4,0.3c-0.4-0.2-0.6-0.7-0.6-1.4l0.9-0.5v-0.1l-0.1-0.1c-0.3,0.1-0.5,0.2-0.6,0.5c-0.1,0-0.1-0.1-0.1-0.4l0.1-0.9l0.1-0.1
	l0.4,0.2l0.1-0.1v-0.2c0-0.1-0.1-0.2-0.4-0.3l-0.2,0.1l-0.1-0.3c0-0.4,0.1-0.6,0.1-0.6l-0.1-0.8v-1.8c0-0.1,0.1-0.1,0.4-0.2
	c0-0.1-0.1-0.1-0.4-0.2l0-0.4l-0.1-3.6l0.1-0.3l0.9,0.2V25l-0.1-0.4h0l-0.1,0.1l-0.1-0.2v-0.1l0.5-0.5c-0.3,0-0.4-0.2-0.4-0.6h0
	c-0.1,0.1-0.3,0.2-0.5,0.2v0.2c0.2,0.2,0.3,0.4,0.3,0.6c0,0.1-0.1,0.2-0.3,0.3c-0.1,0-0.1-0.3-0.2-0.9c0-0.3,0.1-0.5,0.2-0.7
	c-0.2-0.3-0.2-0.6-0.2-0.8v-0.3c0.1-1.4,0.7-2.1,1.8-2.1C149.8,19.8,150.4,19.7,151.3,19.7z M147.7,32l0.2,0.3l0.1-0.1
	c-0.1-0.2-0.1-0.3-0.2-0.3h-0.1L147.7,32z M148.3,26.4c0,0.2,0.1,0.3,0.1,0.3l0.4-0.5l-0.4-0.1C148.4,26.1,148.3,26.2,148.3,26.4
	L148.3,26.4z M148.8,34.6c0,0.3-0.2,0.4-0.5,0.4v0.2h0l0.5-0.2l0.1,0.3c0.1,0,0.1-0.2,0.1-0.3C149.1,34.9,149.1,34.7,148.8,34.6
	L148.8,34.6z M148.5,25.5L148.5,25.5L148.5,25.5L148.5,25.5l1.1-0.1c-0.1-0.2-0.2-0.3-0.2-0.4h-0.1
	C148.8,25.2,148.5,25.3,148.5,25.5L148.5,25.5z M148.8,23.4c0.1,0.2,0.2,0.4,0.3,0.4c0-0.4,0.1-0.7,0.4-1.1h-0.1
	C149.2,22.8,149,23,148.8,23.4L148.8,23.4z M149.1,30.1L149.1,30.1c0.1,0.4,0.3,0.5,0.4,0.6l0-0.1h0l-0.1-0.3v-0.2H149.1z
	 M149.4,35.3l0.5,0.2h0v-0.3l-0.1-0.1h-0.1C149.6,35.1,149.5,35.2,149.4,35.3z M150.5,22.5l0.1,0.3c0,0.6-0.1,1.1-0.2,1.5
	c0.1,0,0.1,0.1,0.1,0.2l-0.1,0.6l0.1,0.3c-0.2,0-0.2,0.1-0.2,0.2c0.2,0.6,0.3,1,0.3,1.3h0l2.6-0.1c0.5,0,0.8,0.2,1,0.5
	c-0.2,0.3-0.3,0.4-0.5,0.4h-0.1l0-0.1h0v0.1c0,0.7,0.1,1,0.2,1h0.1c0.2,0,0.4-0.1,0.4-0.3h-0.1l-0.2,0.2l-0.1-0.1v-0.2h0.2v-0.6
	c0-0.1,0.1-0.1,0.1-0.1c0.2,0,0.3,0.2,0.3,0.7l0.7,0.1c0.2,0,0.3-0.1,0.4-0.3c-0.3,0-0.5-0.1-0.5-0.4v-0.2c-0.2,0.2-0.4,0.3-0.5,0.3
	c-0.1-0.1-0.2-0.2-0.2-0.2v-0.1l0.1-0.1h0.1l0.4,0.1v-0.1l-0.1-0.2h-0.5v-0.1l0-0.2h0l-0.1-0.2v-0.1l0.1-0.1l0.8,0.2
	c0.1-0.1,0.2-0.2,0.2-0.2H155v-0.2l0.6-0.3h0l0.2,0.1v-0.1c0.1-1.1,0.2-1.9,0.4-2.3c-0.4-0.2-0.6-0.5-0.6-0.9
	c-0.4-0.3-1.6-0.6-3.5-0.8V22h0C152.2,22.2,151.6,22.4,150.5,22.5z M155,22.4l0.6,0.1l0.1-0.1c0-0.1-0.1-0.2-0.4-0.2h-0.2L155,22.4z
	 M155.5,21.3l-0.1,0.2v0.1c0.1,0,0.3,0.1,0.5,0.3c0.1,0,0.2-0.1,0.2-0.2L155.5,21.3z M156,22.3L156,22.3c0.6,0.2,0.8,0.4,0.8,0.7
	c0.3-0.2,0.5-0.3,0.6-0.3l-0.3-0.9C157,22,156.6,22.2,156,22.3L156,22.3z M157.7,26.4l0.2,0.2h0.1l-0.1-0.1v-0.1
	c0-0.2,0.2-0.4,0.7-0.5l0.1-0.1v-0.1h-0.1C158.3,25.9,158,26,157.7,26.4L157.7,26.4z"/>
<path d="M167.1,17.5h0.9c3.6,0,6.1,1.5,7.3,4.4v0.2l-0.2,0.3c0,0.1,0.2,0.2,0.6,0.4c0.4,1.2,0.6,2.5,0.6,3.9c0,3.4-0.8,6-2.4,7.8
	c-0.4,0.4-0.7,0.6-0.8,0.6c-0.7-0.2-1.3-0.3-1.7-0.3l-0.2,0.1l0.1,0.1v0.1l-0.1,0.2v0.1l0.1,0.1h0.3v0.1c-0.3,0.6-1.1,1-2.4,1
	c-2.6-0.2-4-0.6-4.3-1v-0.1l0.1-0.2h-0.1c-0.5,0-1.3-0.6-2.3-1.7c-1.1-1.8-1.6-3.7-1.6-5.9v-0.6c0-3.3,1-5.9,2.9-7.8
	c0.9-0.8,2-1.2,3.1-1.2l0.1,0.1v0.1c0,0.2-0.1,0.4-0.4,0.7v0.1h0.1c0.4,0,0.6-0.3,0.6-1L167.1,17.5z M161.1,25.7l0.8,0.3l0.1-0.1
	v-0.1c-0.1,0-0.3-0.1-0.6-0.4h-0.1C161.2,25.5,161.1,25.6,161.1,25.7L161.1,25.7z M162.8,26.2c0,0.1-0.1,0.2-0.2,0.3l-0.1,0.2
	l0.1,0.1h0.6l0.1-0.1L162.8,26.2L162.8,26.2z M163.9,26.9c0,0.9,0.1,1.9,0.4,3l-0.1,0.1h-0.4c-0.4,0-0.8,0.3-1.3,0.8h0.1l1.8-0.6
	l0.4,1.1v0.1l-0.1,0.4c1.8,1.2,3.4,1.9,4.9,1.9c0-0.4,0.3-0.7,0.9-0.8l0.2,0.1c0-0.5,0.4-1,1.3-1.5l-0.1-0.1v-0.2
	c0-0.6,0.3-1.1,0.9-1.5v-0.1c-0.1,0-0.2-0.1-0.2-0.3l0.1-1.2v-0.4l-0.2-3.5l0.1-0.8h-0.1l-0.3,0.1c-0.8-2.1-2.1-3.1-3.9-3.1h-0.1
	c-2,0-3.3,1.1-4,3.4C164,24.9,163.9,25.9,163.9,26.9L163.9,26.9z M163.7,20.5L163.7,20.5c0.5,0,0.7-0.1,0.7-0.4h-0.2
	C164,20.1,163.8,20.2,163.7,20.5L163.7,20.5z M167.8,18.2v0.6h0.4c0.2,0,0.3-0.1,0.4-0.3v-0.1c0-0.1-0.1-0.2-0.3-0.2L167.8,18.2z
	 M172.1,34.3L172.1,34.3L172.1,34.3h0.2l0.4,0.1h0.1v-0.2l-0.1-0.1h-0.3C172.2,34.1,172.1,34.2,172.1,34.3L172.1,34.3z M172.9,22.7
	l0.6,0.3l0.8-0.3v-0.1l-0.8-0.1C173.1,22.4,172.9,22.5,172.9,22.7z"/>
<path d="M179.2,19.8c1.1,0.2,1.7,0.7,1.7,1.4c1,1.4,2.4,3.7,4.1,7c0.6,1.1,1.2,2,1.8,2.9v-7.7c0-2.1,0.1-3.2,0.3-3.2
	c0.3-0.2,0.5-0.3,0.7-0.3h0.2c0.7,0,1.2,0.4,1.4,1.3l-0.1,1.5l0.2,10.4c0,1.7-0.1,2.7-0.4,3c-0.4,0.5-0.9,0.7-1.3,0.7
	c-0.7,0-1.3-0.5-1.9-1.5c-1.2-1.9-2.6-4.4-4.2-7.7v-0.2h0.1v-0.1c-0.4,0-0.8-0.6-1.4-1.8h0l-0.1,1.5l0.2,6v0.3
	c0,1.6-0.3,2.7-0.9,3.2l-0.4,0.1h-0.3c-0.7,0-1.1-0.6-1.1-1.7v-0.2l0.2-3c-0.1-2.2-0.2-4.8-0.2-7.8l0.1-3.1c0.5-0.4,0.8-0.8,1.1-1.1
	L179.2,19.8z M183.5,27.3v0.2l0.1,0.1c0-0.2,0.1-0.3,0.1-0.3h0.1l0.3,0.1h0v-0.1c-0.2,0-0.3-0.2-0.3-0.6L183.5,27.3z"/>
<path d="M33.8,42V26.7l-0.1,0c-0.1,0.5-0.2,1-0.3,1.5c-0.5,2.6-1.5,5.1-3.2,7.4c-0.9,1.3-2.1,2.4-3.7,3.1c-0.1,0.1-0.3,0.1-0.4,0.2
	S26,39,25.8,39.1c1,1.1,2,2.1,3.5,2.9h-8.3c0.2-0.6,0.5-1.3,0.7-2c0.2-0.7,0.2-1.3,0.1-2.1c-0.4,0.4-0.8,0.7-1.2,1
	c-0.9,0.6-1.8,1.1-2.6,1.7c-0.1,0.1-0.2,0.2-0.3,0.3c-0.1,0.3-0.1,0.6-0.2,0.9c0,0.1-0.1,0.1-0.2,0.2C17.1,42,17,41.9,17,41.8
	c-0.1-0.5-0.3-1-0.4-1.5c0-0.1,0.1-0.2,0.2-0.3c0.3-0.1,0.7-0.1,0.9,0.2c1.4-0.8,2.6-1.6,3.7-2.6c0.1-0.1,0.1-0.2,0.1-0.2
	c0-0.2-0.1-0.4-0.1-0.6c6.2-2.5,10.3-6.5,12.4-11.9c0.3,0.6,0.5,1.3,0.8,1.9c2.1,4.1,5.4,7.2,10,9.4c0.4,0.2,0.8,0.4,1.3,0.5
	c0.2,0.1,0.3,0.2,0.2,0.3c-0.2,0.4,0,0.7,0.3,1c1,0.8,2,1.5,3.2,2.2c0.1,0,0.1,0.1,0.2,0.1c0.3-0.2,0.6-0.3,0.9-0.2
	c0.1,0,0.2,0.2,0.2,0.2c-0.1,0.5-0.2,1-0.4,1.6c0,0.1-0.1,0.1-0.2,0.2c-0.1-0.1-0.2-0.2-0.2-0.3c-0.1-0.4-0.1-0.8-0.3-1.1
	c-0.2-0.3-0.7-0.4-1.1-0.7c-0.9-0.6-1.8-1.3-2.6-1.9c-0.1-0.1-0.1-0.1-0.2-0.2c-0.2,1.4,0.1,2.7,0.8,4L33.8,42z"/>
<path d="M32.1,12.4l-1.1,0.1c0,0-0.4,0.2-0.5,0.5c0,0-0.1,0.3,0,0.4c0.1,0.1,0,0,0,0s0.1,0.1,0.1,0.2c0,0.1-0.1,0.2-0.1,0.2
	c0,0-0.5,0.7,0.2,1.3c0,0,0.4,0.4,0.7,0.5l0.2,0.3c0,0,0.3,0.9,0.1,1.4c0,0-0.1,1.5,0.1,1.8c0,0,0,0.1,0.1,0.1
	c0.1,0.1-0.1-0.2-0.1-0.2l0.6-0.2c0,0-0.2-0.5-0.1-0.9c0,0,0.2-0.6,0.2-0.7s0.1-0.4,0-0.6c0,0,0.6,0.4,0.7,1.2l0.1,0.3l0,0.2
	l0.6-0.4l-0.1-0.8c0,0-0.1-0.3-0.2-0.4l-0.7-1c0,0,0-0.4-0.1-0.6c0,0-0.1-0.4,0-0.5c0,0,0.1-0.3,0.1-0.5c0,0,0.2-0.4,0.3-0.5
	c0,0,0,0,0,0c0.1,0,0.1-0.1,0-0.2c0,0,0,0,0,0c-0.1-0.1-0.1-0.2-0.1-0.2s-0.1-0.1-0.2,0c0,0,0,0,0,0c-0.1,0.1-0.1,0.1-0.1,0
	c0,0,0,0,0,0c0,0,0-0.2,0-0.3c0,0,0,0,0,0c-0.1-0.1,0-0.1-0.1-0.2c0,0-0.1-0.1,0-0.1l0-0.1c0,0,0,0,0.1,0L32.1,12.4z"/>
<path d="M32.1,12.4c0,0,0-0.1,0-0.2l0,0c0,0-0.1-0.1-0.1-0.3c0-0.1,0,0.1,0,0.1s-0.1-0.2,0-0.4c0,0,0.1-0.3,0.4-0.3
	c0,0,0.4,0,0.5,0.1c0,0,0.2,0.1,0.2,0.3c0,0.1,0,0,0,0s0,0.1,0,0.2c0,0,0.1,0.1,0.1,0.2c0,0,0,0.1-0.1,0l0,0.1l-0.1,0l0.1,0.1
	c0,0,0,0,0,0c0,0,0,0,0,0.1c0,0,0.1,0.1-0.1,0.1l-0.1,0L32.1,12.4L32.1,12.4z"/>
<path d="M33.2,13.3c0,0,0-0.1,0-0.2c0,0,0.1-0.1,0.1,0l0.1-0.1c0,0,0,0,0-0.1c0,0,0.1-0.1,0.2,0c0,0,0.1,0.2,0.1,0.2
	c0,0-0.1,0.1-0.1,0.1l0,0.1l-0.2,0.1"/>
<polyline points="33.4,13.1 32.8,12.8 32.7,12.7 32.7,12.7 33.5,13 "/>
<path d="M33.5,13.4c0,0,0.2,0.1,0.1,0.2l0.1-0.1l0.1,0c0,0-0.1-0.2-0.1-0.3c0,0-0.1,0-0.1,0L33.5,13.4z"/>
</svg>
