<?xml version="1.0" encoding="utf-8"?>
<!-- Generator: Adobe Illustrator 25.2.2, SVG Export Plug-In . SVG Version: 6.00 Build 0)  -->
<svg version="1.1" id="Layer_1" xmlns="http://www.w3.org/2000/svg" xmlns:xlink="http://www.w3.org/1999/xlink" x="0px" y="0px"
	 viewBox="0 0 196.1 52.4" style="enable-background:new 0 0 196.1 52.4;" xml:space="preserve">
<style type="text/css">
	.st0{fill:#231F20;}
	.st1{enable-background:new    ;}
</style>
<path class="st0" d="M19.1,35.1c-0.2-0.2-0.5-0.5-0.8-0.8c-0.9-0.9-1.9-2-2.3-2.4c-1.4-1.7-2.5-3.8-3.1-5.9
	c-0.2-1.1-0.4-2.2-0.4-3.3c0.2-4.2,4.2-12.1,12.1-12.1c6.7,0,12.1,5.4,12.1,12.1c0,1.1-0.2,2.2-0.5,3.2c-0.2,0.9-0.5,1.7-0.8,2.6
	c-0.2,0.5-0.4,0.8-0.6,1.3c0.2,0.2,0.4,0.3,0.6,0.5c0.2,0.2,0.4,0.4,0.5,0.5c0.5,0.5,0.9,0.8,1.3,1.3c1.1-1.6,2-3.3,2.6-5.1
	c0.4-1.4,0.5-2.9,0.6-4.3c0-8.8-7.1-15.9-15.9-15.9S8.8,14,8.8,22.7l0,0c0,1.4,0.2,2.9,0.6,4.3c1.5,4.3,4.2,8,7.7,10.8l1-1.3
	C18.5,36.1,18.8,35.6,19.1,35.1z"/>
<g transform="translate(12.693 32.544)">
	<path class="st0" d="M5.5,6.3c1.1,1.1,2.1,2.1,3.2,3.2c1.2,1.2,2.3,2.3,3.5,3.5c0.1-0.8,0.2-1.6,0.5-2.3c0.2-0.7,0.3-1.3,0.5-1.8
		c0,0,0.8-2.3,1.6-2.3c0.2,0,0.3,0,0.5,0c0.2,0,0.5,0.1,0.7,0.2h0.1c0.8,0.2,6.3-4.8,6.3-4.8c0.5-0.4,1-0.8,1.7-1.4l-2.4-2.3
		c-1.7,2.1-3.5,4.1-5.2,6.2l-2.7-1.1c-0.8,1.4-1.5,2.8-2.2,4.2l-3.9-4L5.5,6.3z"/>
</g>
<g transform="translate(21.612 35.59)">
	<path class="st0" d="M3.2,9.9l2.5-6.2l2.3,1.2c2.3-2.5,4.7-4.9,7-7.4L5.3,3.1L4.2,4.5L3.1,8.8L3.2,9.9z"/>
</g>
<g transform="translate(8.861 9.37)">
	<path class="st0" d="M6.6,13.6c0,1.7,0.5,3.5,1.5,4.9l6.4-7.2V4.6C10,5.2,6.7,9.1,6.6,13.6z"/>
	<path class="st0" d="M8.1,18.7L8,18.6c-2.3-3.5-2-8,0.8-11c1.5-1.7,3.5-2.8,5.7-3.2h0.2v6.9L8.1,18.7z M14.3,4.7
		c-2.1,0.4-4,1.5-5.3,3c-2.6,2.9-2.9,7.2-0.9,10.5l6.2-7.1V4.7z"/>
</g>
<g transform="translate(13.784 24.808)">
	<path class="st0" d="M9.6,7.2V0.7L5.4,5.4C6.6,6.3,8.1,6.9,9.6,7.2L9.6,7.2z"/>
	<path class="st0" d="M9.7,7.4H9.6C8.1,7.2,6.6,6.6,5.4,5.6L5.2,5.4l4.5-5.1V7.4z M5.7,5.4c1.1,0.8,2.4,1.4,3.8,1.6V1.2L5.7,5.4z"/>
</g>
<g transform="translate(23.648 24.601)">
	<path class="st0" d="M2.7,7.4c1.6-0.2,3-0.8,4.3-1.8L2.7,0.8V7.4L2.7,7.4z"/>
	<path class="st0" d="M2.6,7.6V0.4l4.7,5.3L7.1,5.7c-1.3,1-2.8,1.6-4.4,1.8L2.6,7.6z M2.9,1.2v6C4.3,7,5.6,6.4,6.8,5.6L2.9,1.2z"/>
</g>
<g transform="translate(23.648 9.352)">
	<path class="st0" d="M2.7,4.6v6.5l6.5,7.4c1-1.4,1.4-3.2,1.4-4.9C10.6,9.1,7.2,5.2,2.7,4.6L2.7,4.6z"/>
	<path class="st0" d="M9.3,18.7l-6.7-7.6V4.4h0.2C5,4.8,7,5.8,8.4,7.6c2.8,3,3.2,7.5,0.9,11L9.3,18.7z M2.9,11.1l6.3,7.1
		c2-3.3,1.7-7.6-0.9-10.5C6.9,6.1,5,5.1,2.9,4.7V11.1z"/>
</g>
<g class="st1">
	<path class="st0" d="M45.3,19.4c0-0.8,0.7-1.5,1.5-1.5s1.5,0.7,1.5,1.5v7.4l4.5-5.4v-2c0-0.8,0.7-1.5,1.5-1.5s1.5,0.7,1.5,1.5v7.4
		l7.1-8.4c0.3-0.3,0.7-0.5,1.1-0.5c0.8,0,1.4,0.6,1.4,1.4c0,0.3-0.1,0.6-0.3,0.9l-9.7,11.3c-0.4,0.4-0.8,0.6-1.2,0.6
		c-0.8,0-1.5-0.7-1.5-1.5v-4.9l-4.8,5.8c-0.4,0.4-0.8,0.6-1.2,0.6c-0.8,0-1.5-0.7-1.5-1.5V19.4H45.3z"/>
	<path class="st0" d="M65,25c0-4,3.1-7.1,7.1-7.1s7.1,3.1,7.1,7.1s-3.1,7.1-7.1,7.1S65,28.9,65,25z M76.1,25c0-2.4-1.8-4.2-4-4.2
		c-2.3,0-4,1.9-4,4.2s1.8,4.2,4,4.2C74.3,29.2,76.1,27.3,76.1,25z"/>
	<path class="st0" d="M81.3,19.6c0-0.8,0.7-1.5,1.5-1.5h3.5c2.7,0,4.5,1.9,4.5,4.3c0,1.9-1.1,3.1-2.2,3.5h-0.1l3.1,3.7
		c0.3,0.3,0.3,0.6,0.3,1c0,0.8-0.6,1.5-1.5,1.5c-0.4,0-0.8-0.2-1.1-0.5l-4.2-5.1c-0.2-0.3-0.5-0.6-0.5-1.1c0-0.7,0.6-1.3,1.3-1.3
		h0.2c0.9,0,1.6-0.7,1.6-1.6s-0.7-1.6-1.6-1.6h-1.9v9.7c0,0.8-0.7,1.5-1.5,1.5s-1.5-0.7-1.5-1.5v-11H81.3z"/>
	<path class="st0" d="M93.5,19.4c0-0.8,0.7-1.5,1.5-1.5s1.5,0.7,1.5,1.5v11.2c0,0.8-0.7,1.5-1.5,1.5s-1.5-0.7-1.5-1.5V19.4z
		 M97.1,25.9c-0.2-0.2-0.3-0.5-0.3-0.9s0.1-0.7,0.3-0.9l4.8-5.7c0.3-0.3,0.7-0.5,1.1-0.5c0.8,0,1.4,0.6,1.4,1.4
		c0,0.4-0.1,0.6-0.3,0.9l-3.9,4.6l4,4.8c0.3,0.3,0.3,0.6,0.3,1c0,0.8-0.6,1.5-1.5,1.5c-0.4,0-0.8-0.2-1.1-0.5L97.1,25.9z"/>
	<path class="st0" d="M105.1,25c0-4,3.1-7.1,7.1-7.1c2.1,0,3.9,0.8,5.1,2.1c0.3,0.3,0.4,0.7,0.4,1c0,0.8-0.7,1.5-1.5,1.5
		c-0.4,0-0.8-0.2-1.2-0.6c-0.7-0.7-1.7-1.1-2.8-1.1c-2.3,0-4,1.9-4,4.2s1.8,4.2,4,4.2c1.1,0,2.1-0.5,2.8-1.1
		c0.4-0.4,0.8-0.6,1.2-0.6c0.8,0,1.5,0.6,1.5,1.5c0,0.3-0.1,0.7-0.4,1c-1.2,1.2-3,2.1-5.1,2.1C108.2,32.1,105.1,28.9,105.1,25z"/>
	<path class="st0" d="M128.2,18.5c0.4-0.4,0.8-0.6,1.2-0.6c0.8,0,1.5,0.7,1.5,1.5v11.2c0,0.8-0.7,1.5-1.5,1.5s-1.5-0.7-1.5-1.5v-1.1
		h-1.8c-0.8,0-1.4-0.6-1.4-1.4s0.6-1.4,1.4-1.4h1.8v-3.6l-7.1,8.4c-0.2,0.3-0.7,0.5-1.1,0.5c-0.8,0-1.4-0.6-1.4-1.4
		c0-0.3,0.1-0.6,0.3-0.9L128.2,18.5z"/>
	<path class="st0" d="M136,20.9h-2.2c-0.8,0-1.4-0.6-1.4-1.4s0.6-1.4,1.4-1.4h7.3c0.8,0,1.4,0.6,1.4,1.4s-0.6,1.4-1.4,1.4h-2.2v9.7
		c0,0.8-0.7,1.5-1.5,1.5s-1.5-0.7-1.5-1.5v-9.7H136z"/>
	<path class="st0" d="M144,19.4c0-0.8,0.7-1.5,1.5-1.5s1.5,0.7,1.5,1.5v11.2c0,0.8-0.7,1.5-1.5,1.5s-1.5-0.7-1.5-1.5V19.4z"/>
	<path class="st0" d="M149.1,25c0-4,3.1-7.1,7.1-7.1s7.1,3.1,7.1,7.1s-3.1,7.1-7.1,7.1S149.1,28.9,149.1,25z M160.2,25
		c0-2.4-1.8-4.2-4-4.2s-4,1.9-4,4.2s1.8,4.2,4,4.2S160.2,27.3,160.2,25z"/>
	<path class="st0" d="M165.4,19.5c0-0.9,0.7-1.6,1.5-1.6c0.5,0,0.9,0.2,1.2,0.5l5.4,6.5v-5.6c0-0.8,0.7-1.5,1.5-1.5s1.5,0.7,1.5,1.5
		v11.2c0,0.8-0.7,1.5-1.5,1.5s-1.5-0.7-1.5-1.5v-1l-5.2-6.2v7.3c0,0.8-0.7,1.5-1.5,1.5s-1.5-0.7-1.5-1.5V19.5H165.4z"/>
	<path class="st0" d="M179,28.9c0-0.8,0.7-1.5,1.5-1.5c0.6,0,0.9,0.3,1.2,0.7c0.4,0.5,0.7,1.2,1.7,1.2c0.9,0,1.6-0.7,1.6-1.6
		s-0.8-1.2-1.8-1.6l-1-0.3c-1.5-0.5-3-1.4-3-4c0-2.2,1.9-3.9,4.3-3.9c2.6,0,4.2,1.9,4.2,2.9c0,0.8-0.7,1.5-1.5,1.5
		c-0.6,0-0.9-0.3-1.1-0.6c-0.4-0.5-0.7-1-1.6-1c-0.8,0-1.4,0.6-1.4,1.4s0.7,1.2,1.6,1.5l0.8,0.3c1.7,0.5,3.5,1.3,3.5,4.2
		c0,2.4-2,4.1-4.5,4.1C180.8,32.1,179,30.1,179,28.9z"/>
</g>
</svg>
